Seventy-Regular.ufo
<glyph name="two" format="2">
	<unicode hex="0032"/>
	<advance height="1024" width="479"/>
	<outline>
		<contour>
			<point x="132.34183" y="454.26851" type="line"/>
			<point x="30.206473" y="448.41638" type="line" smooth="yes"/>
			<point x="21.339931" y="447.90835"/>
			<point x="14.071449" y="454.70457"/>
			<point x="14.607792" y="463.56791" type="curve" smooth="yes"/>
			<point x="16.913292" y="501.66747"/>
			<point x="27.889684" y="539.23676"/>
			<point x="46.566206" y="572.53111" type="curve" smooth="yes"/>
			<point x="67.865378" y="610.50083"/>
			<point x="99.129743" y="642.82272"/>
			<point x="136.37019" y="665.37273" type="curve" smooth="yes"/>
			<point x="178.60501" y="690.94696"/>
			<point x="228.00615" y="703.753698"/>
			<point x="277.36352" y="705.046224" type="curve" smooth="yes"/>
			<point x="309.15308" y="705.8787"/>
			<point x="341.34566" y="701.976076"/>
			<point x="371.05289" y="690.62928" type="curve" smooth="yes"/>
			<point x="400.76012" y="679.28249"/>
			<point x="427.91564" y="660.19386"/>
			<point x="446.27819" y="634.23069" type="curve" smooth="yes"/>
			<point x="472.61934" y="596.98641"/>
			<point x="478.95366" y="547.87316"/>
			<point x="469.35587" y="503.27636" type="curve" smooth="yes"/>
			<point x="456.70025" y="444.47114"/>
			<point x="419.04893" y="394.20387"/>
			<point x="377.89038" y="350.33825" type="curve" smooth="yes"/>
			<point x="337.13228" y="306.89942"/>
			<point x="292.07033" y="267.74629"/>
			<point x="249.46855" y="226.11406" type="curve" smooth="yes"/>
			<point x="195.27235" y="173.15127"/>
			<point x="145.03525" y="116.13808"/>
			<point x="99.314642" y="55.70703" type="curve"/>
			<point x="62.626725" y="99.04354" type="line"/>
			<point x="84.927305" y="95.88771"/>
			<point x="107.30345" y="93.26591"/>
			<point x="129.72953" y="91.18114" type="curve" smooth="yes"/>
			<point x="200.0653" y="84.6426"/>
			<point x="272.08104" y="83.53528"/>
			<point x="340.16556" y="102.36005" type="curve" smooth="yes"/>
			<point x="376.56886" y="112.42524"/>
			<point x="411.40203" y="128.13801"/>
			<point x="443.06066" y="148.73282" type="curve" smooth="yes"/>
			<point x="450.50456" y="153.57528"/>
			<point x="457.59242" y="150.70389"/>
			<point x="459.13298" y="141.95745" type="curve" smooth="yes"/>
			<point x="476.65256" y="42.49155" type="line" smooth="yes"/>
			<point x="478.19312" y="33.74511"/>
			<point x="472.99581" y="23.42983"/>
			<point x="464.79947" y="20.01391" type="curve" smooth="yes"/>
			<point x="437.79323" y="8.75874"/>
			<point x="408.89386" y="2.04638"/>
			<point x="379.68692" y="0.29581" type="curve" smooth="yes"/>
			<point x="296.8247" y="-4.6707"/>
			<point x="215.07042" y="29.77124"/>
			<point x="132.34582" y="22.88255" type="curve" smooth="yes"/>
			<point x="108.12371" y="20.86551"/>
			<point x="84.204778" y="15.27209"/>
			<point x="61.588719" y="6.36978" type="curve" smooth="yes"/>
			<point x="53.326252" y="3.11745"/>
			<point x="42.169747" y="5.49069"/>
			<point x="36.425301" y="12.2638" type="curve" smooth="yes"/>
			<point x="11.395441" y="41.77577" type="line" smooth="yes"/>
			<point x="5.6509944" y="48.54888"/>
			<point x="4.6545215" y="60.23997"/>
			<point x="9.3168065" y="67.79872" type="curve" smooth="yes"/>
			<point x="56.060915" y="143.58286"/>
			<point x="113.72886" y="212.62168"/>
			<point x="180.00103" y="272.08965" type="curve" smooth="yes"/>
			<point x="216.53532" y="304.87295"/>
			<point x="255.73529" y="334.8381"/>
			<point x="289.438" y="370.52601" type="curve" smooth="yes"/>
			<point x="323.14071" y="406.21392"/>
			<point x="351.60783" y="448.79133"/>
			<point x="360.99909" y="496.97124" type="curve" smooth="yes"/>
			<point x="364.31524" y="513.98405"/>
			<point x="365.1895" y="531.581"/>
			<point x="362.31221" y="548.6735" type="curve" smooth="yes"/>
			<point x="359.43492" y="565.766"/>
			<point x="352.70808" y="582.35119"/>
			<point x="341.86279" y="595.87199" type="curve" smooth="yes"/>
			<point x="329.22781" y="611.62399"/>
			<point x="311.06671" y="622.86671"/>
			<point x="291.31874" y="627.08403" type="curve" smooth="yes"/>
			<point x="269.24183" y="631.79872"/>
			<point x="245.71978" y="627.72968"/>
			<point x="225.58155" y="617.5282" type="curve" smooth="yes"/>
			<point x="205.44333" y="607.32673"/>
			<point x="188.59572" y="591.25171"/>
			<point x="175.80286" y="572.65169" type="curve" smooth="yes"/>
			<point x="155.51957" y="543.16104"/>
			<point x="145.31885" y="506.92617"/>
			<point x="146.89102" y="471.19168" type="curve" smooth="yes"/>
			<point x="147.28121" y="462.32288"/>
			<point x="141.20837" y="454.77654"/>
			<point x="132.34183" y="454.26851" type="curve"/>
		</contour>
	</outline>
</glyph>
<glyph name="six" format="2">
	<unicode hex="0036"/>
	<advance height="1024" width="456"/>
	<outline>
		<contour>
			<point x="321.81167" y="661.88048" type="line"/>
			<point x="209.58098" y="708.593525" type="line" smooth="yes"/>
			<point x="205.06094" y="710.474869"/>
			<point x="198.41537" y="709.379665"/>
			<point x="194.79339" y="706.085588" type="curve" smooth="yes"/>
			<point x="156.70186" y="671.44257"/>
			<point x="123.19962" y="631.75743"/>
			<point x="95.44903" y="588.38634" type="curve" smooth="yes"/>
			<point x="46.014638" y="511.12588"/>
			<point x="15.043369" y="421.8622"/>
			<point x="7.993009" y="330.41151" type="curve" smooth="yes"/>
			<point x="1.4623687" y="245.70213"/>
			<point x="16.720735" y="156.56448"/>
			<point x="66.571818" y="87.76624" type="curve" smooth="yes"/>
			<point x="99.338207" y="42.54616"/>
			<point x="147.65695" y="7.17948"/>
			<point x="202.55408" y="-3.05751" type="curve" smooth="yes"/>
			<point x="262.17511" y="-14.1754"/>
			<point x="325.91069" y="5.81442"/>
			<point x="371.27937" y="46.06313" type="curve" smooth="yes"/>
			<point x="416.64804" y="86.31183"/>
			<point x="443.76638" y="145.36336"/>
			<point x="448.89736" y="205.79471" type="curve" smooth="yes"/>
			<point x="452.68077" y="250.35474"/>
			<point x="444.78184" y="296.33685"/>
			<point x="423.20528" y="335.50779" type="curve" smooth="yes"/>
			<point x="401.62872" y="374.67872"/>
			<point x="365.92126" y="406.54796"/>
			<point x="323.38576" y="420.35527" type="curve" smooth="yes"/>
			<point x="290.27069" y="431.10465"/>
			<point x="253.85796" y="430.72377"/>
			<point x="220.5428" y="420.61151" type="curve" smooth="yes"/>
			<point x="187.22765" y="410.49925"/>
			<point x="157.05098" y="390.85855"/>
			<point x="133.26328" y="365.43607" type="curve" smooth="yes"/>
			<point x="111.26473" y="341.9257"/>
			<point x="94.823046" y="313.89742"/>
			<point x="76.896199" y="287.15229" type="curve" smooth="yes"/>
			<point x="69.629178" y="276.31059"/>
			<point x="62.076753" y="265.62023"/>
			<point x="55.910564" y="254.11675" type="curve" smooth="yes"/>
			<point x="49.744376" y="242.61327"/>
			<point x="44.961543" y="230.17641"/>
			<point x="43.687054" y="217.18689" type="curve" smooth="yes"/>
			<point x="41.896521" y="198.93788"/>
			<point x="47.382408" y="180.07547"/>
			<point x="58.680771" y="165.6332" type="curve" smooth="yes"/>
			<point x="69.979134" y="151.19092"/>
			<point x="86.966682" y="141.32639"/>
			<point x="105.11018" y="138.67202" type="curve"/>
			<point x="104.28606" y="172.78887"/>
			<point x="113.4124" y="207.0876"/>
			<point x="131.08296" y="236.28332" type="curve" smooth="yes"/>
			<point x="146.51226" y="261.77597"/>
			<point x="168.59201" y="283.48496"/>
			<point x="195.2071" y="296.88552" type="curve" smooth="yes"/>
			<point x="221.8222" y="310.28609"/>
			<point x="252.99987" y="315.07459"/>
			<point x="282.07223" y="308.53729" type="curve" smooth="yes"/>
			<point x="304.87243" y="303.41037"/>
			<point x="326.19587" y="291.28408"/>
			<point x="341.5414" y="273.65884" type="curve" smooth="yes"/>
			<point x="356.88693" y="256.0336"/>
			<point x="366.0227" y="232.90364"/>
			<point x="365.91029" y="209.53439" type="curve" smooth="yes"/>
			<point x="365.77103" y="180.58427"/>
			<point x="351.30119" y="152.43644"/>
			<point x="329.05458" y="133.91032" type="curve" smooth="yes"/>
			<point x="306.80798" y="115.38419"/>
			<point x="277.37499" y="106.29569"/>
			<point x="248.43331" y="107.00859" type="curve" smooth="yes"/>
			<point x="224.71672" y="107.59279"/>
			<point x="201.2743" y="114.52222"/>
			<point x="180.67448" y="126.28937" type="curve" smooth="yes"/>
			<point x="160.07467" y="138.05652"/>
			<point x="142.30936" y="154.59231"/>
			<point x="128.48405" y="173.87128" type="curve" smooth="yes"/>
			<point x="100.83342" y="212.42922"/>
			<point x="89.469946" y="261.21493"/>
			<point x="91.51805" y="308.61828" type="curve" smooth="yes"/>
			<point x="93.414091" y="352.50213"/>
			<point x="106.19567" y="395.34586"/>
			<point x="123.65264" y="435.6527" type="curve" smooth="yes"/>
			<point x="152.14133" y="501.43097"/>
			<point x="194.1897" y="562.49769"/>
			<point x="251.4479" y="605.62407" type="curve" smooth="yes"/>
			<point x="273.06378" y="621.90496"/>
			<point x="296.68944" y="635.51206"/>
			<point x="321.60873" y="646.06264" type="curve" smooth="yes"/>
			<point x="332.41579" y="650.63824"/>
			<point x="332.64828" y="657.37002"/>
			<point x="321.81167" y="661.88048" type="curve"/>
		</contour>
	</outline>
</glyph>
<glyph name="at" format="2">
	<unicode hex="0040"/>
	<advance height="1024" width="773"/>
	<outline>
		<contour>
			<point x="402.01142" y="421.70072" type="line"/>
			<point x="427.83373" y="406.05349"/>
			<point x="447.93089" y="380.37856"/>
			<point x="454.56295" y="350.92278" type="curve" smooth="yes"/>
			<point x="457.87898" y="336.19489"/>
			<point x="457.8449" y="320.68579"/>
			<point x="454.14925" y="306.04854" type="curve" smooth="yes"/>
			<point x="450.4536" y="291.4113"/>
			<point x="443.07242" y="277.67921"/>
			<point x="432.66744" y="266.74106" type="curve" smooth="yes"/>
			<point x="422.13772" y="255.67178"/>
			<point x="408.59002" y="247.55249"/>
			<point x="393.94287" y="243.20911" type="curve" smooth="yes"/>
			<point x="379.29573" y="238.86572"/>
			<point x="363.58639" y="238.27868"/>
			<point x="348.59731" y="241.23358" type="curve" smooth="yes"/>
			<point x="318.61915" y="247.14339"/>
			<point x="292.22684" y="267.37999"/>
			<point x="276.83619" y="293.77589" type="curve" smooth="yes"/>
			<point x="265.96135" y="312.4269"/>
			<point x="260.28763" y="334.19545"/>
			<point x="261.44667" y="355.75418" type="curve" smooth="yes"/>
			<point x="262.72468" y="379.5258"/>
			<point x="272.77312" y="403.23534"/>
			<point x="290.88933" y="418.67963" type="curve" smooth="yes"/>
			<point x="305.95506" y="431.52335"/>
			<point x="325.91366" y="438.09269"/>
			<point x="345.711" y="438.14405" type="curve" smooth="yes"/>
			<point x="365.50835" y="438.19545"/>
			<point x="385.07995" y="431.96048"/>
			<point x="402.01142" y="421.70072" type="curve"/>
		</contour>
		<contour>
			<point x="549.05622" y="518.89067" type="line"/>
			<point x="500.35486" y="521.46602" type="line" smooth="yes"/>
			<point x="492.1688353555" y="521.898901552"/>
			<point x="484.2464204458" y="518.5033274613"/>
			<point x="478.9146886802" y="512.2766893397" type="curve" smooth="yes"/>
			<point x="473.5829569146" y="506.050051218"/>
			<point x="471.4473256807" y="497.699382943"/>
			<point x="473.1351" y="489.67755" type="curve" smooth="yes"/>
			<point x="489.07401" y="413.92146" type="line"/>
			<point x="479.80712" y="445.54273"/>
			<point x="459.44684" y="473.79413"/>
			<point x="432.38063" y="492.58774" type="curve" smooth="yes"/>
			<point x="405.31157" y="511.38333"/>
			<point x="371.71272" y="520.58954"/>
			<point x="338.84755" y="518.16287" type="curve" smooth="yes"/>
			<point x="314.49138" y="516.36448"/>
			<point x="290.72151" y="508.3295"/>
			<point x="269.80437" y="495.72274" type="curve" smooth="yes"/>
			<point x="248.87445" y="483.10828"/>
			<point x="230.73624" y="465.92871"/>
			<point x="216.84035" y="445.82672" type="curve" smooth="yes"/>
			<point x="187.841" y="403.87585"/>
			<point x="178.2764" y="350.10331"/>
			<point x="185.92856" y="299.68227" type="curve" smooth="yes"/>
			<point x="190.2036" y="271.51348"/>
			<point x="199.65887" y="244.01608"/>
			<point x="214.69346" y="219.81446" type="curve" smooth="yes"/>
			<point x="229.72806" y="195.61285"/>
			<point x="250.41909" y="174.77702"/>
			<point x="275.15481" y="160.63838" type="curve" smooth="yes"/>
			<point x="306.91313" y="142.4857"/>
			<point x="345.33139" y="135.86193"/>
			<point x="381.09901" y="143.52923" type="curve" smooth="yes"/>
			<point x="420.73279" y="152.02529"/>
			<point x="456.22496" y="178.22145"/>
			<point x="476.02359" y="213.59141" type="curve"/>
			<point x="474.78905" y="194.42022"/>
			<point x="475.27576" y="175.13852"/>
			<point x="477.47594" y="156.05403" type="curve" smooth="yes"/>
			<point x="479.53744" y="138.17247"/>
			<point x="483.11499" y="120.41965"/>
			<point x="488.9884" y="103.40486" type="curve" smooth="yes"/>
			<point x="495.52308" y="84.47443"/>
			<point x="505.0379" y="66.32325"/>
			<point x="518.76274" y="51.73928" type="curve" smooth="yes"/>
			<point x="532.48757" y="37.15531"/>
			<point x="550.6656" y="26.31268"/>
			<point x="570.4884" y="23.46312" type="curve" smooth="yes"/>
			<point x="591.84104" y="20.39364"/>
			<point x="613.69534" y="26.69225"/>
			<point x="632.61438" y="37.05693" type="curve" smooth="yes"/>
			<point x="661.34485" y="52.79674"/>
			<point x="684.37604" y="77.66587"/>
			<point x="701.49657" y="105.59558" type="curve" smooth="yes"/>
			<point x="742.61298" y="172.67114"/>
			<point x="750.20321" y="255.05237"/>
			<point x="746.69624" y="333.64875" type="curve" smooth="yes"/>
			<point x="743.03909" y="415.61067"/>
			<point x="727.60463" y="499.30318"/>
			<point x="684.01981" y="568.81214" type="curve" smooth="yes"/>
			<point x="655.47957" y="614.32805"/>
			<point x="615.23997" y="652.55823"/>
			<point x="567.93612" y="678.02565" type="curve" smooth="yes"/>
			<point x="524.3317" y="701.501378"/>
			<point x="475.47116" y="713.962928"/>
			<point x="426.31824" y="720" type="curve" smooth="yes"/>
			<point x="351.97535" y="729.130961"/>
			<point x="273.74939" y="723.300054"/>
			<point x="207.14385" y="689.03723" type="curve" smooth="yes"/>
			<point x="147.47778" y="658.34417"/>
			<point x="100.35116" y="606.18171"/>
			<point x="69.360983" y="546.66942" type="curve" smooth="yes"/>
			<point x="29.153554" y="469.45668"/>
			<point x="15.109487" y="379.50023"/>
			<point x="26.21822" y="293.15765" type="curve" smooth="yes"/>
			<point x="32.824669" y="241.80906"/>
			<point x="48.23281" y="191.31236"/>
			<point x="74.128887" y="146.4825" type="curve" smooth="yes"/>
			<point x="100.02496" y="101.65264"/>
			<point x="136.62834" y="62.62656"/>
			<point x="181.31421" y="36.48281" type="curve" smooth="yes"/>
			<point x="208.89402" y="20.34707"/>
			<point x="239.39098" y="9.23987"/>
			<point x="270.86317" y="3.73415" type="curve" smooth="yes"/>
			<point x="289.5306" y="0.46849"/>
			<point x="308.06455" y="15.05933"/>
			<point x="311.87809" y="33.63595" type="curve" smooth="yes"/>
			<point x="318.93209" y="67.99767" type="line" smooth="yes"/>
			<point x="322.74563" y="86.57429"/>
			<point x="310.37739" y="102.49163"/>
			<point x="291.91908" y="106.75833" type="curve" smooth="yes"/>
			<point x="265.12606" y="112.95161"/>
			<point x="239.4679" y="124.07902"/>
			<point x="216.71323" y="139.52639" type="curve" smooth="yes"/>
			<point x="177.60622" y="166.07481"/>
			<point x="147.50455" y="205.05573"/>
			<point x="129.37755" y="248.70878" type="curve" smooth="yes"/>
			<point x="111.25055" y="292.36183"/>
			<point x="104.86557" y="340.51317"/>
			<point x="108.46288" y="387.64316" type="curve" smooth="yes"/>
			<point x="111.30826" y="424.9218"/>
			<point x="120.44997" y="462.06672"/>
			<point x="138.42253" y="494.85055" type="curve" smooth="yes"/>
			<point x="167.01159" y="546.99998"/>
			<point x="216.97249" y="585.60954"/>
			<point x="272.45963" y="607.01221" type="curve" smooth="yes"/>
			<point x="334.15223" y="630.80846"/>
			<point x="403.98424" y="634.26314"/>
			<point x="466.89106" y="613.89231" type="curve" smooth="yes"/>
			<point x="524.40643" y="595.26737"/>
			<point x="575.08005" y="557.13889"/>
			<point x="610.6342" y="508.243" type="curve" smooth="yes"/>
			<point x="646.18836" y="459.34712"/>
			<point x="666.73764" y="400.0372"/>
			<point x="671.18568" y="339.74524" type="curve" smooth="yes"/>
			<point x="674.47625" y="295.14247"/>
			<point x="669.13714" y="250.01832"/>
			<point x="656.6011" y="207.08719" type="curve" smooth="yes"/>
			<point x="653.44827" y="196.28995"/>
			<point x="649.8045" y="185.53587"/>
			<point x="644.12064" y="175.82945" type="curve" smooth="yes"/>
			<point x="638.43679" y="166.12303"/>
			<point x="630.5558" y="157.4476"/>
			<point x="620.53348" y="152.34133" type="curve" smooth="yes"/>
			<point x="610.64361" y="147.30254"/>
			<point x="598.85955" y="146.00986"/>
			<point x="588.16937" y="148.99635" type="curve" smooth="yes"/>
			<point x="577.4792" y="151.98284"/>
			<point x="568.01435" y="159.26552"/>
			<point x="562.57643" y="168.94167" type="curve" smooth="yes"/>
			<point x="558.78732" y="175.68397"/>
			<point x="556.9643" y="183.38277"/>
			<point x="556.21385" y="191.08035" type="curve" smooth="yes"/>
			<point x="555.4634" y="198.77793"/>
			<point x="555.74271" y="206.53326"/>
			<point x="555.90986" y="214.26553" type="curve" smooth="yes"/>
			<point x="557.03874" y="266.48543"/>
			<point x="553.01704" y="318.78329"/>
			<point x="556.00406" y="370.92991" type="curve" smooth="yes"/>
			<point x="558.19149" y="409.11747"/>
			<point x="564.15324" y="447.08675"/>
			<point x="573.75356" y="484.11219" type="curve" smooth="yes"/>
			<point x="578.51265" y="502.46651"/>
			<point x="583.34569" y="517.07742"/>
			<point x="583.3457" y="517.07742" type="curve"/>
		</contour>
	</outline>
</glyph>
<glyph name="S" format="2">
	<unicode hex="0053"/>
	<advance height="1024" width="541"/>
	<outline>
		<contour>
			<point x="52.356109" y="378.70431" type="line"/>
			<point x="12.059342" y="478.79539" type="line" smooth="yes"/>
			<point x="7.4783617" y="490.17385"/>
			<point x="8.7805331" y="507.98793"/>
			<point x="15.370922" y="518.33232" type="curve" smooth="yes"/>
			<point x="49.889594" y="572.51344"/>
			<point x="92.551923" y="621.50283"/>
			<point x="141.50878" y="663.10288" type="curve" smooth="yes"/>
			<point x="201.52938" y="714.104106"/>
			<point x="271.2666" y="754.064005"/>
			<point x="346.51703" y="777.322787" type="curve" smooth="yes"/>
			<point x="380.99391" y="787.979075"/>
			<point x="416.55325" y="795.1279481"/>
			<point x="452.46836" y="798.6350242" type="curve" smooth="yes"/>
			<point x="461.66782" y="799.53334196"/>
			<point x="470.51373" y="792.6319282"/>
			<point x="472.1973" y="783.542951" type="curve" smooth="yes"/>
			<point x="496.31883" y="653.3201" type="line" smooth="yes"/>
			<point x="498.0024" y="644.23112"/>
			<point x="492.69556" y="640.29695"/>
			<point x="484.18627" y="643.90304" type="curve" smooth="yes"/>
			<point x="445.53473" y="660.28291"/>
			<point x="402.7981" y="666.99675"/>
			<point x="360.99219" y="663.09375" type="curve" smooth="yes"/>
			<point x="317.57661" y="659.04047"/>
			<point x="275.39681" y="643.65745"/>
			<point x="238.95825" y="619.70806" type="curve" smooth="yes"/>
			<point x="190.10186" y="587.597"/>
			<point x="151.62942" y="539.94476"/>
			<point x="130.53772" y="485.41763" type="curve"/>
			<point x="163.63046" y="497.37972"/>
			<point x="198.20707" y="505.22474"/>
			<point x="233.21814" y="508.74601" type="curve" smooth="yes"/>
			<point x="246.83283" y="510.11532"/>
			<point x="269.0256" y="511.07023"/>
			<point x="282.70516" y="510.76578" type="curve" smooth="yes"/>
			<point x="323.43146" y="509.85936"/>
			<point x="364.20333" y="502.18569"/>
			<point x="400.46542" y="484.42381" type="curve" smooth="yes"/>
			<point x="408.71737" y="480.38184"/>
			<point x="421.57999" y="472.80567"/>
			<point x="429.10318" y="467.53011" type="curve" smooth="yes"/>
			<point x="462.08779" y="444.39997"/>
			<point x="488.45201" y="412.00126"/>
			<point x="505.49405" y="375.43551" type="curve" smooth="yes"/>
			<point x="524.88136" y="333.83768"/>
			<point x="532.38622" y="287.05657"/>
			<point x="529.01745" y="241.2865" type="curve" smooth="yes"/>
			<point x="524.70034" y="182.63171"/>
			<point x="502.192" y="124.95837"/>
			<point x="463.18551" y="80.94116" type="curve" smooth="yes"/>
			<point x="424.17901" y="36.92394"/>
			<point x="368.47774" y="7.31599"/>
			<point x="309.84441" y="2.71654" type="curve" smooth="yes"/>
			<point x="269.16519" y="-0.47451"/>
			<point x="228.14175" y="8.10805"/>
			<point x="190.26773" y="23.2916" type="curve" smooth="yes"/>
			<point x="152.39371" y="38.47516"/>
			<point x="117.42537" y="60.11094"/>
			<point x="84.09392" y="83.64807" type="curve" smooth="yes"/>
			<point x="64.149208" y="97.7321"/>
			<point x="44.712927" y="112.53609"/>
			<point x="25.835191" y="128.021" type="curve" smooth="yes"/>
			<point x="16.35175" y="135.80002"/>
			<point x="12.738533" y="151.43162"/>
			<point x="17.573514" y="162.7045" type="curve" smooth="yes"/>
			<point x="65.408065" y="274.2319" type="line" smooth="yes"/>
			<point x="70.243047" y="285.50478"/>
			<point x="78.454631" y="285.6681"/>
			<point x="84.247191" y="274.857" type="curve" smooth="yes"/>
			<point x="101.24386" y="243.13481"/>
			<point x="121.40015" y="213.10545"/>
			<point x="144.33134" y="185.36805" type="curve" smooth="yes"/>
			<point x="165.77109" y="159.43469"/>
			<point x="189.9093" y="135.28015"/>
			<point x="218.55833" y="117.63261" type="curve" smooth="yes"/>
			<point x="247.20736" y="99.98507"/>
			<point x="280.73878" y="89.11577"/>
			<point x="314.32783" y="91.1103" type="curve" smooth="yes"/>
			<point x="343.09119" y="92.81828"/>
			<point x="371.02946" y="104.23373"/>
			<point x="393.29197" y="122.5225" type="curve" smooth="yes"/>
			<point x="404.20844" y="131.49043"/>
			<point x="419.0552" y="149.27614"/>
			<point x="425.97106" y="161.5961" type="curve" smooth="yes"/>
			<point x="436.52677" y="180.40012"/>
			<point x="442.82895" y="201.60979"/>
			<point x="444.36906" y="223.1493" type="curve" smooth="yes"/>
			<point x="445.22027" y="235.05404"/>
			<point x="443.67636" y="254.48284"/>
			<point x="441.046" y="266.12549" type="curve" smooth="yes"/>
			<point x="436.74651" y="285.15616"/>
			<point x="428.85579" y="303.39258"/>
			<point x="418.18691" y="319.751" type="curve" smooth="yes"/>
			<point x="403.57595" y="342.15377"/>
			<point x="383.84254" y="361.06306"/>
			<point x="361.39491" y="375.60501" type="curve" smooth="yes"/>
			<point x="331.42171" y="395.02214"/>
			<point x="296.69438" y="406.61752"/>
			<point x="261.16981" y="410.62744" type="curve" smooth="yes"/>
			<point x="251.63133" y="411.70412"/>
			<point x="236.05879" y="412.3763"/>
			<point x="226.46199" y="412.16127" type="curve" smooth="yes"/>
			<point x="197.64572" y="411.5156"/>
			<point x="168.96554" y="406.23088"/>
			<point x="141.51245" y="397.25821" type="curve" smooth="yes"/>
			<point x="130.71772" y="393.7301"/>
			<point x="113.5901" y="386.9067"/>
			<point x="103.31327" y="382.07314" type="curve" smooth="yes"/>
			<point x="95.2388" y="378.27543"/>
			<point x="87.314383" y="374.15862"/>
			<point x="79.56474" y="369.73563" type="curve" smooth="yes"/>
			<point x="68.913601" y="363.65666"/>
			<point x="56.937089" y="367.32585"/>
			<point x="52.356109" y="378.70431" type="curve"/>
		</contour>
	</outline>
	<anchor name="top" x="273.95251" y="798.6681671"/>
	<anchor name="bottom" x="402.89581" y="31.9444"/>
</glyph>
<glyph name="T" format="2">
	<unicode hex="0054"/>
	<advance height="1024" width="530"/>
	<outline>
		<contour>
			<point x="187.32644" y="743.531147" type="line"/>
			<point x="205.95629" y="700.974151"/>
			<point x="219.08551" y="656.01286"/>
			<point x="226.28463" y="610.11796" type="curve" smooth="yes"/>
			<point x="250.67362" y="454.63649"/>
			<point x="206.7867" y="297.34727"/>
			<point x="199.21111" y="140.14702" type="curve" smooth="yes"/>
			<point x="197.22838" y="99.00369"/>
			<point x="197.74402" y="57.74017"/>
			<point x="200.75176" y="16.65908" type="curve" smooth="yes"/>
			<point x="201.4258" y="7.45268"/>
			<point x="209.59232" y="0"/>
			<point x="218.82347" y="0" type="curve" smooth="yes"/>
			<point x="331.70087" y="0" type="line" smooth="yes"/>
			<point x="339.94295" y="0"/>
			<point x="344.1774" y="6.2186"/>
			<point x="341.37115" y="13.96802" type="curve" smooth="yes"/>
			<point x="325.06542" y="58.99611"/>
			<point x="314.08623" y="105.95203"/>
			<point x="308.7522" y="153.54399" type="curve" smooth="yes"/>
			<point x="291.21477" y="310.01866"/>
			<point x="334.5776" y="466.2074"/>
			<point x="347.47114" y="623.13299" type="curve" smooth="yes"/>
			<point x="351.12229" y="667.57065"/>
			<point x="352.32663" y="712.209239"/>
			<point x="351.07689" y="756.779124" type="curve"/>
		</contour>
		<contour>
			<point x="528.41377" y="714.107806" type="line"/>
			<point x="517.303" y="788.71095" type="line" smooth="yes"/>
			<point x="516.32298" y="795.291271"/>
			<point x="510.13546" y="800.67137088"/>
			<point x="503.48268" y="800.71052221" type="curve" smooth="yes"/>
			<point x="462.87479" y="800.94949781"/>
			<point x="422.26411" y="800.71263971"/>
			<point x="381.66177" y="800" type="curve" smooth="yes"/>
			<point x="295.96771" y="798.4959242"/>
			<point x="210.31659" y="794.8724783"/>
			<point x="124.7688" y="789.64651" type="curve" smooth="yes"/>
			<point x="89.346835" y="787.482643"/>
			<point x="53.941654" y="785.044027"/>
			<point x="18.557517" y="782.330962" type="curve" smooth="yes"/>
			<point x="8.2290867" y="781.539033"/>
			<point x="1.8881995" y="772.723126"/>
			<point x="4.3923105" y="762.671602" type="curve" smooth="yes"/>
			<point x="32.340893" y="650.48575" type="line" smooth="yes"/>
			<point x="34.488428" y="641.86552"/>
			<point x="42.94795" y="637.47198"/>
			<point x="51.28795" y="640.5319" type="curve" smooth="yes"/>
			<point x="118.3331" y="665.13056"/>
			<point x="187.85237" y="682.98278"/>
			<point x="258.45607" y="693.72058" type="curve" smooth="yes"/>
			<point x="343.67963" y="706.681848"/>
			<point x="430.47645" y="709.259896"/>
			<point x="516.32009" y="701.396411" type="curve" smooth="yes"/>
			<point x="524.16465" y="700.67783"/>
			<point x="529.57418" y="706.31628"/>
			<point x="528.41377" y="714.107806" type="curve"/>
		</contour>
	</outline>
</glyph>
<glyph name="V" format="2">
	<unicode hex="0056"/>
	<advance height="1024" width="508"/>
	<outline>
		<contour>
			<point x="10.789818" y="745.709155" type="curve" smooth="yes"/>
			<point x="112.89922" y="794.4326887" type="line" smooth="yes"/>
			<point x="119.34293" y="797.5074298"/>
			<point x="126.13231" y="794.4277787"/>
			<point x="127.99344" y="787.534943" type="curve" smooth="yes"/>
			<point x="142.963" y="732.094155"/>
			<point x="154.55797" y="675.74231"/>
			<point x="162.6909" y="618.89491" type="curve" smooth="yes"/>
			<point x="174.41119" y="536.97259"/>
			<point x="178.92775" y="454.21879"/>
			<point x="186.01296" y="371.76618" type="curve" smooth="yes"/>
			<point x="191.28018" y="310.47001"/>
			<point x="198.11086" y="248.65882"/>
			<point x="218.36021" y="190.56469" type="curve" smooth="yes"/>
			<point x="230.33761" y="156.20229"/>
			<point x="246.94363" y="123.45655"/>
			<point x="267.58884" y="93.48977" type="curve"/>
			<point x="277.62691" y="139.42812"/>
			<point x="290.10214" y="184.83382"/>
			<point x="304.94453" y="229.45218" type="curve" smooth="yes"/>
			<point x="326.78852" y="295.11833"/>
			<point x="353.78345" y="359.17755"/>
			<point x="370.90257" y="426.2308" type="curve" smooth="yes"/>
			<point x="389.47012" y="498.95732"/>
			<point x="396.14872" y="575.18581"/>
			<point x="385.5174" y="649.48841" type="curve" smooth="yes"/>
			<point x="380.99547" y="681.09231"/>
			<point x="373.36543" y="712.250352"/>
			<point x="362.78061" y="742.370206" type="curve" smooth="yes"/>
			<point x="360.41354" y="749.105881"/>
			<point x="363.79097" y="756.435653"/>
			<point x="370.52322" y="758.813089" type="curve" smooth="yes"/>
			<point x="474.96343" y="795.6952709" type="line" smooth="yes"/>
			<point x="481.69568" y="798.0727072"/>
			<point x="488.68199" y="794.4164894"/>
			<point x="490.37048" y="787.479519" type="curve" smooth="yes"/>
			<point x="502.22507" y="738.776472"/>
			<point x="506.86162" y="688.31968"/>
			<point x="504.05408" y="638.27242" type="curve" smooth="yes"/>
			<point x="497.09556" y="514.22977"/>
			<point x="445.50817" y="397.84235"/>
			<point x="408.26699" y="279.3177" type="curve" smooth="yes"/>
			<point x="379.66481" y="188.28772"/>
			<point x="359.27489" y="94.67914"/>
			<point x="347.42573" y="0" type="curve"/>
			<point x="296.59907" y="-13.24135"/>
			<point x="239.97576" y="-2.03651"/>
			<point x="198.02268" y="29.56446" type="curve" smooth="yes"/>
			<point x="154.91072" y="62.03835"/>
			<point x="128.95242" y="113.0363"/>
			<point x="115.54281" y="165.31801" type="curve" smooth="yes"/>
			<point x="102.1332" y="217.59972"/>
			<point x="99.932419" y="271.98085"/>
			<point x="95.659862" y="325.7855" type="curve" smooth="yes"/>
			<point x="87.580605" y="427.52823"/>
			<point x="71.772543" y="529.02656"/>
			<point x="41.606313" y="626.52967" type="curve" smooth="yes"/>
			<point x="30.923076" y="661.05997"/>
			<point x="18.454872" y="695.03791"/>
			<point x="4.2691901" y="728.28304" type="curve" smooth="yes"/>
			<point x="1.4671295" y="734.849862"/>
			<point x="4.3461146" y="742.634414"/>
		</contour>
	</outline>
	<anchor name="top" x="259.1048" y="794.9140453"/>
</glyph>
<glyph name="a" format="2">
	<unicode hex="0061"/>
	<advance height="1024" width="502"/>
	<outline>
		<contour>
			<point x="412.40039" y="329.03944" type="line"/>
			<point x="401.89816" y="256.26591"/>
			<point x="379.37605" y="185.24118"/>
			<point x="346.02273" y="119.71378" type="curve" smooth="yes"/>
			<point x="334.02793" y="96.14827"/>
			<point x="320.54454" y="73.14946"/>
			<point x="303.31052" y="53.09461" type="curve" smooth="yes"/>
			<point x="286.07651" y="33.03976"/>
			<point x="264.87884" y="15.94543"/>
			<point x="240.31508" y="6.15615" type="curve" smooth="yes"/>
			<point x="210.596" y="-5.68766"/>
			<point x="176.53469" y="-6.18585"/>
			<point x="146.44136" y="4.67192" type="curve" smooth="yes"/>
			<point x="109.30201" y="18.07191"/>
			<point x="79.641938" y="47.69153"/>
			<point x="59.607329" y="81.71366" type="curve" smooth="yes"/>
			<point x="21.805167" y="145.90808"/>
			<point x="15.93024" y="224.65078"/>
			<point x="26.154207" y="298.44372" type="curve" smooth="yes"/>
			<point x="37.134452" y="377.6952"/>
			<point x="66.466998" y="455.73004"/>
			<point x="118.67941" y="516.35369" type="curve" smooth="yes"/>
			<point x="140.40646" y="541.58089"/>
			<point x="166.07558" y="563.70648"/>
			<point x="195.51844" y="579.24981" type="curve" smooth="yes"/>
			<point x="224.96129" y="594.79314"/>
			<point x="258.29916" y="603.57726"/>
			<point x="291.55754" y="602.04199" type="curve" smooth="yes"/>
			<point x="332.20797" y="600.16549"/>
			<point x="371.50741" y="582.75472"/>
			<point x="402.11759" y="555.94063" type="curve" smooth="yes"/>
			<point x="433.70635" y="528.26931"/>
			<point x="456.31761" y="490.54858"/>
			<point x="466.04323" y="449.71179" type="curve" smooth="yes"/>
			<point x="467.528" y="443.4774"/>
			<point x="463.40537" y="436.91807"/>
			<point x="457.24375" y="435.15217" type="curve" smooth="yes"/>
			<point x="363.49455" y="408.28393" type="line" smooth="yes"/>
			<point x="357.33293" y="406.51803"/>
			<point x="352.44085" y="410.32022"/>
			<point x="351.44982" y="416.64604" type="curve" smooth="yes"/>
			<point x="349.43482" y="429.5079"/>
			<point x="344.04965" y="441.84801"/>
			<point x="335.88154" y="451.99255" type="curve" smooth="yes"/>
			<point x="325.4256" y="464.9785"/>
			<point x="310.6202" y="474.22839"/>
			<point x="294.58389" y="478.78888" type="curve" smooth="yes"/>
			<point x="266.22528" y="486.85365"/>
			<point x="235.00721" y="480.20973"/>
			<point x="209.62064" y="465.21728" type="curve" smooth="yes"/>
			<point x="184.23407" y="450.22483"/>
			<point x="164.15403" y="427.53552"/>
			<point x="147.86641" y="402.95982" type="curve" smooth="yes"/>
			<point x="113.24986" y="350.72838"/>
			<point x="94.144134" y="286.31038"/>
			<point x="104.80662" y="224.56299" type="curve" smooth="yes"/>
			<point x="108.63948" y="202.36656"/>
			<point x="116.3567" y="180.57678"/>
			<point x="129.48366" y="162.27227" type="curve" smooth="yes"/>
			<point x="142.61061" y="143.96775"/>
			<point x="161.42429" y="129.32572"/>
			<point x="183.1582" y="123.40883" type="curve" smooth="yes"/>
			<point x="199.00546" y="119.09454"/>
			<point x="215.99603" y="119.50748"/>
			<point x="231.85772" y="123.76847" type="curve" smooth="yes"/>
			<point x="247.7194" y="128.02945"/>
			<point x="262.46174" y="136.05999"/>
			<point x="275.20789" y="146.41783" type="curve" smooth="yes"/>
			<point x="300.70017" y="167.1335"/>
			<point x="317.81573" y="196.55304"/>
			<point x="329.79661" y="227.13824" type="curve" smooth="yes"/>
			<point x="349.45127" y="277.31335"/>
			<point x="356.5242" y="332.3496"/>
			<point x="350.30509" y="385.87039" type="curve" smooth="yes"/>
			<point x="349.5653" y="392.2369"/>
			<point x="353.79513" y="396.08983"/>
			<point x="360.00655" y="394.50796" type="curve" smooth="yes"/>
			<point x="455.20529" y="370.26354" type="line" smooth="yes"/>
			<point x="461.41671" y="368.68167"/>
			<point x="464.76016" y="362.4848"/>
			<point x="462.88506" y="356.35579" type="curve" smooth="yes"/>
			<point x="448.00465" y="307.71725"/>
			<point x="443.03471" y="256.05938"/>
			<point x="448.43126" y="205.47962" type="curve" smooth="yes"/>
			<point x="454.55904" y="148.04633"/>
			<point x="474.08918" y="92.09188"/>
			<point x="504.97172" y="43.28658" type="curve" smooth="yes"/>
			<point x="507.53728" y="39.23211"/>
			<point x="506.10727" y="34.51529"/>
			<point x="501.67247" y="32.6838" type="curve" smooth="yes"/>
			<point x="406.34691" y="-6.6838" type="line" smooth="yes"/>
			<point x="401.91211" y="-8.51529"/>
			<point x="397.42147" y="-6.21478"/>
			<point x="396.35809" y="-1.53601" type="curve" smooth="yes"/>
			<point x="386.85413" y="40.28031"/>
			<point x="379.79763" y="82.65281"/>
			<point x="375.23789" y="125.29246" type="curve" smooth="yes"/>
			<point x="369.05967" y="183.06708"/>
			<point x="367.46894" y="241.33166"/>
			<point x="370.4856" y="299.35732" type="curve"/>
		</contour>
	</outline>
	<anchor name="top" x="229.3768" y="648.63333"/>
</glyph>
<glyph name="m" format="2">
	<unicode hex="006D"/>
	<advance height="1024" width="711"/>
	<outline>
		<contour>
			<point x="695.48908" y="21.0483" type="line"/>
			<point x="575.20463" y="4.50352" type="line" smooth="yes"/>
			<point x="566.43248" y="3.29693"/>
			<point x="559.00624" y="9.49075"/>
			<point x="558.79185" y="18.34279" type="curve" smooth="yes"/>
			<point x="557.45161" y="73.68263"/>
			<point x="561.15962" y="129.1443"/>
			<point x="569.86269" y="183.81211" type="curve" smooth="yes"/>
			<point x="577.73388" y="233.25454"/>
			<point x="589.68788" y="282.13655"/>
			<point x="593.69993" y="332.04059" type="curve" smooth="yes"/>
			<point x="597.01641" y="373.29276"/>
			<point x="594.70036" y="415.69092"/>
			<point x="580.20194" y="454.45349" type="curve" smooth="yes"/>
			<point x="577.43509" y="461.85086"/>
			<point x="574.21293" y="469.12876"/>
			<point x="569.81275" y="475.68733" type="curve" smooth="yes"/>
			<point x="565.41256" y="482.2459"/>
			<point x="559.77632" y="488.08843"/>
			<point x="552.90021" y="491.97374" type="curve" smooth="yes"/>
			<point x="546.91161" y="495.35757"/>
			<point x="540.09331" y="497.18389"/>
			<point x="533.22586" y="497.57342" type="curve" smooth="yes"/>
			<point x="526.35841" y="497.96295"/>
			<point x="519.44355" y="496.93786"/>
			<point x="512.87818" y="494.88615" type="curve" smooth="yes"/>
			<point x="499.74743" y="490.78274"/>
			<point x="488.19299" y="482.69578"/>
			<point x="477.92013" y="473.54575" type="curve" smooth="yes"/>
			<point x="455.10864" y="453.22757"/>
			<point x="437.74951" y="427.34111"/>
			<point x="424.50263" y="399.81453" type="curve" smooth="yes"/>
			<point x="411.25575" y="372.28794"/>
			<point x="401.95538" y="343.04534"/>
			<point x="393.52315" y="313.68397" type="curve" smooth="yes"/>
			<point x="381.52543" y="271.90744"/>
			<point x="371.19265" y="229.65279"/>
			<point x="362.55756" y="187.05398" type="curve"/>
			<point x="347.39038" y="353.10574" type="line"/>
			<point x="358.79652" y="415.08492"/>
			<point x="385.41857" y="474.20679"/>
			<point x="424.26578" y="523.8295" type="curve" smooth="yes"/>
			<point x="441.71752" y="546.12203"/>
			<point x="461.90511" y="566.76259"/>
			<point x="486.36895" y="581.01182" type="curve" smooth="yes"/>
			<point x="510.83279" y="595.26106"/>
			<point x="539.98092" y="602.73074"/>
			<point x="567.85044" y="597.74978" type="curve" smooth="yes"/>
			<point x="590.36868" y="593.72522"/>
			<point x="611.11081" y="581.71573"/>
			<point x="627.11943" y="565.37583" type="curve" smooth="yes"/>
			<point x="643.12805" y="549.03592"/>
			<point x="654.54349" y="528.52262"/>
			<point x="661.73037" y="506.80588" type="curve" smooth="yes"/>
			<point x="676.10413" y="463.37238"/>
			<point x="673.77329" y="416.32281"/>
			<point x="669.12003" y="370.80995" type="curve" smooth="yes"/>
			<point x="663.99983" y="320.73005"/>
			<point x="656.25391" y="270.81765"/>
			<point x="655.16082" y="220.48856" type="curve" smooth="yes"/>
			<point x="654.06773" y="170.15946"/>
			<point x="659.93028" y="118.76519"/>
			<point x="680.82271" y="72.96432" type="curve" smooth="yes"/>
			<point x="686.69927" y="60.08158"/>
			<point x="693.7308" y="47.72637"/>
			<point x="701.79947" y="36.09051" type="curve" smooth="yes"/>
			<point x="706.84424" y="28.81542"/>
			<point x="704.26123" y="22.25489"/>
			<point x="695.48908" y="21.0483" type="curve"/>
		</contour>
		<contour>
			<point x="414.37757" y="25.11037" type="line"/>
			<point x="307.43045" y="3.21564" type="line" smooth="yes"/>
			<point x="298.75563" y="1.43969"/>
			<point x="293.65621" y="6.91363"/>
			<point x="295.88722" y="15.48261" type="curve" smooth="yes"/>
			<point x="307.57688" y="60.38086"/>
			<point x="316.14125" y="106.09271"/>
			<point x="321.49421" y="152.17797" type="curve" smooth="yes"/>
			<point x="328.48682" y="212.37946"/>
			<point x="329.99642" y="273.15369"/>
			<point x="327.56424" y="333.7111" type="curve" smooth="yes"/>
			<point x="326.01611" y="372.25707"/>
			<point x="322.48979" y="412.08898"/>
			<point x="303.93489" y="445.91063" type="curve" smooth="yes"/>
			<point x="300.26736" y="452.59575"/>
			<point x="296.01884" y="459.00625"/>
			<point x="290.79145" y="464.55747" type="curve" smooth="yes"/>
			<point x="285.56407" y="470.1087"/>
			<point x="279.32259" y="474.79215"/>
			<point x="272.26138" y="477.66981" type="curve" smooth="yes"/>
			<point x="265.13741" y="480.57305"/>
			<point x="257.29774" y="481.57868"/>
			<point x="249.63037" y="480.95328" type="curve" smooth="yes"/>
			<point x="241.963" y="480.32787"/>
			<point x="234.46601" y="478.09876"/>
			<point x="227.5242" y="474.7835" type="curve" smooth="yes"/>
			<point x="213.64058" y="468.15297"/>
			<point x="202.15807" y="457.35218"/>
			<point x="192.13465" y="445.67957" type="curve" smooth="yes"/>
			<point x="149.12144" y="395.58927"/>
			<point x="130.38338" y="328.42491"/>
			<point x="126.52531" y="262.51368" type="curve" smooth="yes"/>
			<point x="123.0112" y="202.47874"/>
			<point x="130.78625" y="142.4455"/>
			<point x="136.28074" y="82.55933" type="curve" smooth="yes"/>
			<point x="137.71277" y="66.9512"/>
			<point x="138.99057" y="51.32892"/>
			<point x="140.1139" y="35.69554" type="curve" smooth="yes"/>
			<point x="140.74852" y="26.86358"/>
			<point x="134.1005" y="18.70292"/>
			<point x="125.3316" y="17.47287" type="curve" smooth="yes"/>
			<point x="16.77124" y="2.24461" type="line" smooth="yes"/>
			<point x="8.0023464" y="1.01456"/>
			<point x="3.3505657" y="6.76309"/>
			<point x="6.1843535" y="15.15197" type="curve" smooth="yes"/>
			<point x="11.7645" y="31.6709"/>
			<point x="16.777563" y="48.38141"/>
			<point x="21.211323" y="65.24424" type="curve" smooth="yes"/>
			<point x="38.732606" y="131.8826"/>
			<point x="47.141184" y="200.65957"/>
			<point x="50.687408" y="269.47156" type="curve" smooth="yes"/>
			<point x="54.709005" y="347.50784"/>
			<point x="52.329278" y="427.09357"/>
			<point x="28.670839" y="501.56579" type="curve" smooth="yes"/>
			<point x="22.786901" y="520.0873"/>
			<point x="15.611003" y="538.19811"/>
			<point x="7.2157191" y="555.72479" type="curve" smooth="yes"/>
			<point x="3.3907204" y="563.71017"/>
			<point x="6.9585683" y="571.86622"/>
			<point x="15.524659" y="574.10867" type="curve" smooth="yes"/>
			<point x="102.43612" y="596.86059" type="line" smooth="yes"/>
			<point x="106.1244815462" y="597.8261403274"/>
			<point x="110.0521486664" y="597.0144675023"/>
			<point x="113.0556529233" y="594.6660083246" type="curve" smooth="yes"/>
			<point x="116.0591571802" y="592.3175491469"/>
			<point x="117.794122174" y="588.7015737249"/>
			<point x="117.74661" y="584.88922" type="curve" smooth="yes"/>
			<point x="114.4045" y="316.71367" type="line"/>
			<point x="83.204804" y="318.11015" type="line"/>
			<point x="97.656492" y="376.061"/>
			<point x="118.14584" y="432.50428"/>
			<point x="144.23397" y="486.23101" type="curve" smooth="yes"/>
			<point x="158.23003" y="515.05494"/>
			<point x="174.19339" y="543.57518"/>
			<point x="197.34289" y="565.72938" type="curve" smooth="yes"/>
			<point x="208.91764" y="576.80648"/>
			<point x="222.23718" y="586.17598"/>
			<point x="236.97595" y="592.45656" type="curve" smooth="yes"/>
			<point x="251.71473" y="598.73713"/>
			<point x="267.90343" y="601.86726"/>
			<point x="283.87366" y="600.59096" type="curve" smooth="yes"/>
			<point x="304.50544" y="598.94212"/>
			<point x="324.23113" y="589.92935"/>
			<point x="340.07971" y="576.61727" type="curve" smooth="yes"/>
			<point x="355.92829" y="563.30519"/>
			<point x="368.0163" y="545.84809"/>
			<point x="376.45466" y="526.94881" type="curve" smooth="yes"/>
			<point x="393.33138" y="489.15023"/>
			<point x="395.70079" y="446.65042"/>
			<point x="396.33946" y="405.26023" type="curve" smooth="yes"/>
			<point x="397.05449" y="358.92123"/>
			<point x="395.92256" y="312.5766"/>
			<point x="395.42338" y="266.23477" type="curve" smooth="yes"/>
			<point x="394.99533" y="226.49604"/>
			<point x="395.03962" y="186.63036"/>
			<point x="399.91008" y="147.1889" type="curve" smooth="yes"/>
			<point x="404.2781" y="111.81627"/>
			<point x="412.53407" y="76.92582"/>
			<point x="424.46861" y="43.34237" type="curve" smooth="yes"/>
			<point x="427.43353" y="34.99919"/>
			<point x="423.05239" y="26.88632"/>
			<point x="414.37757" y="25.11037" type="curve"/>
		</contour>
	</outline>
</glyph>
<glyph name="s" format="2">
	<unicode hex="0073"/>
	<advance height="1024" width="423"/>
	<outline>
		<contour>
			<point x="47.582797" y="263.54976" type="line"/>
			<point x="6.1760378" y="370.68308" type="line" smooth="yes"/>
			<point x="4.8443169" y="374.1287"/>
			<point x="5.021482" y="379.6403"/>
			<point x="6.6314334" y="382.96498" type="curve" smooth="yes"/>
			<point x="30.822276" y="432.92103"/>
			<point x="64.972995" y="478.03552"/>
			<point x="106.51056" y="514.85426" type="curve" smooth="yes"/>
			<point x="151.76353" y="554.96632"/>
			<point x="206.44195" y="585.42629"/>
			<point x="265.72479" y="597.35751" type="curve" smooth="yes"/>
			<point x="296.84947" y="603.62164"/>
			<point x="329.00203" y="604.7411"/>
			<point x="360.48874" y="600.67605" type="curve" smooth="yes"/>
			<point x="364.15226" y="600.20308"/>
			<point x="367.51641" y="596.7758"/>
			<point x="368.01556" y="593.11567" type="curve" smooth="yes"/>
			<point x="384.50285" y="472.21688" type="line" smooth="yes"/>
			<point x="385.002" y="468.55675"/>
			<point x="383.12779" y="467.53532"/>
			<point x="380.20018" y="469.78754" type="curve" smooth="yes"/>
			<point x="351.69069" y="491.71999"/>
			<point x="315.21378" y="503.14311"/>
			<point x="279.27985" y="501.20117" type="curve" smooth="yes"/>
			<point x="248.62763" y="499.54466"/>
			<point x="219.09143" y="488.59628"/>
			<point x="192.08564" y="474.00211" type="curve" smooth="yes"/>
			<point x="151.89438" y="452.28239"/>
			<point x="115.69906" y="421.54059"/>
			<point x="92.95995" y="381.91716" type="curve" smooth="yes"/>
			<point x="76.818461" y="353.79023"/>
			<point x="67.798292" y="321.6136"/>
			<point x="66.966811" y="289.19477" type="curve"/>
			<point x="42.368891" y="332.96956" type="line"/>
			<point x="87.187091" y="370.56213"/>
			<point x="143.88984" y="393.76714"/>
			<point x="202.2044" y="398.3806" type="curve" smooth="yes"/>
			<point x="245.5326" y="401.80844"/>
			<point x="290.60784" y="394.73919"/>
			<point x="327.79618" y="372.24228" type="curve" smooth="yes"/>
			<point x="359.22356" y="353.23043"/>
			<point x="383.88093" y="323.7103"/>
			<point x="398.52181" y="290.02388" type="curve" smooth="yes"/>
			<point x="413.16269" y="256.33745"/>
			<point x="417.94712" y="218.66421"/>
			<point x="413.85392" y="182.16248" type="curve" smooth="yes"/>
			<point x="408.88347" y="137.83775"/>
			<point x="390.63799" y="94.78788"/>
			<point x="360.70206" y="61.72389" type="curve" smooth="yes"/>
			<point x="330.76613" y="28.6599"/>
			<point x="289.04549" y="6.02969"/>
			<point x="244.73306" y="0.95073" type="curve" smooth="yes"/>
			<point x="212.65391" y="-2.72609"/>
			<point x="179.96754" y="2.64024"/>
			<point x="149.46933" y="13.24453" type="curve" smooth="yes"/>
			<point x="118.97113" y="23.84881"/>
			<point x="90.489028" y="39.57398"/>
			<point x="63.253512" y="56.91808" type="curve" smooth="yes"/>
			<point x="43.649255" y="69.40245"/>
			<point x="24.603829" y="82.76429"/>
			<point x="6.1931051" y="96.94989" type="curve" smooth="yes"/>
			<point x="3.2669575" y="99.20451"/>
			<point x="2.2002714" y="103.75847"/>
			<point x="3.7889179" y="107.09342" type="curve" smooth="yes"/>
			<point x="55.851099" y="216.38465" type="line" smooth="yes"/>
			<point x="57.439746" y="219.7196"/>
			<point x="59.92405" y="219.67739"/>
			<point x="61.487657" y="216.33075" type="curve" smooth="yes"/>
			<point x="74.581234" y="188.30583"/>
			<point x="92.218116" y="162.40704"/>
			<point x="113.51161" y="139.96894" type="curve" smooth="yes"/>
			<point x="129.93469" y="122.66305"/>
			<point x="148.66655" y="107.31411"/>
			<point x="169.92534" y="96.48475" type="curve" smooth="yes"/>
			<point x="191.18414" y="85.65539"/>
			<point x="215.08166" y="79.47184"/>
			<point x="238.90644" y="80.73325" type="curve" smooth="yes"/>
			<point x="266.14376" y="82.17534"/>
			<point x="292.87323" y="93.67022"/>
			<point x="312.0875" y="113.02902" type="curve" smooth="yes"/>
			<point x="331.30176" y="132.38781"/>
			<point x="342.65133" y="159.53273"/>
			<point x="342.13378" y="186.80328" type="curve" smooth="yes"/>
			<point x="341.76024" y="206.48562"/>
			<point x="335.36851" y="225.87995"/>
			<point x="324.80743" y="242.49312" type="curve" smooth="yes"/>
			<point x="314.24634" y="259.1063"/>
			<point x="299.61137" y="272.97583"/>
			<point x="282.98322" y="283.51332" type="curve" smooth="yes"/>
			<point x="256.14889" y="300.51861"/>
			<point x="224.20158" y="308.84183"/>
			<point x="192.43301" y="308.97784" type="curve" smooth="yes"/>
			<point x="160.66443" y="309.11385"/>
			<point x="129.09934" y="301.25434"/>
			<point x="100.24744" y="287.95665" type="curve" smooth="yes"/>
			<point x="84.413756" y="280.65899"/>
			<point x="69.332897" y="271.72968"/>
			<point x="55.317904" y="261.35964" type="curve" smooth="yes"/>
			<point x="52.34848" y="259.16249"/>
			<point x="48.914518" y="260.10418"/>
			<point x="47.582797" y="263.5498" type="curve"/>
		</contour>
	</outline>
	<anchor name="top" x="227.08183" y="654.87373"/>
	<anchor name="bottom" x="320.10089" y="24.76392"/>
</glyph>
<glyph name="y" format="2">
	<unicode hex="0079"/>
	<advance height="1024" width="473"/>
	<outline>
		<contour>
			<point x="392.13047" y="359.64879" type="line"/>
			<point x="381.70911" y="267.54742"/>
			<point x="352.65855" y="177.59324"/>
			<point x="307.24181" y="96.79357" type="curve" smooth="yes"/>
			<point x="292.27438" y="70.16543"/>
			<point x="275.17354" y="44.09098"/>
			<point x="251.6412" y="24.61509" type="curve" smooth="yes"/>
			<point x="239.87503" y="14.87714"/>
			<point x="226.55995" y="6.89537"/>
			<point x="212.11522" y="1.93349" type="curve" smooth="yes"/>
			<point x="197.6705" y="-3.02839"/>
			<point x="182.07299" y="-4.91217"/>
			<point x="166.96556" y="-2.66805" type="curve" smooth="yes"/>
			<point x="146.31613" y="0.3993"/>
			<point x="127.28786" y="11.07002"/>
			<point x="111.89654" y="25.17373" type="curve" smooth="yes"/>
			<point x="96.505211" y="39.27744"/>
			<point x="84.503841" y="56.70805"/>
			<point x="74.224288" y="74.87776" type="curve" smooth="yes"/>
			<point x="17.401814" y="175.31479"/>
			<point x="12.095367" y="296.44526"/>
			<point x="18.423263" y="411.6683" type="curve" smooth="yes"/>
			<point x="21.527974" y="468.20119"/>
			<point x="27.090099" y="524.59905"/>
			<point x="35.087692" y="580.64943" type="curve" smooth="yes"/>
			<point x="36.500441" y="590.55054"/>
			<point x="45.360684" y="595.82831"/>
			<point x="54.775171" y="592.4525" type="curve" smooth="yes"/>
			<point x="146.51899" y="559.55537" type="line" smooth="yes"/>
			<point x="155.93348" y="556.17956"/>
			<point x="159.18131" y="546.6175"/>
			<point x="154.17957" y="537.95746" type="curve" smooth="yes"/>
			<point x="138.10676" y="510.12887"/>
			<point x="125.16126" y="480.49405"/>
			<point x="115.68205" y="449.78682" type="curve" smooth="yes"/>
			<point x="91.933444" y="372.85486"/>
			<point x="90.378049" y="289.42259"/>
			<point x="109.71167" y="211.2642" type="curve" smooth="yes"/>
			<point x="113.95034" y="194.12888"/>
			<point x="119.26433" y="177.02234"/>
			<point x="128.53149" y="161.99885" type="curve" smooth="yes"/>
			<point x="137.79865" y="146.97535"/>
			<point x="151.42595" y="134.07067"/>
			<point x="168.2034" y="128.58407" type="curve" smooth="yes"/>
			<point x="181.60112" y="124.20271"/>
			<point x="196.38928" y="124.79555"/>
			<point x="209.78392" y="129.1863" type="curve" smooth="yes"/>
			<point x="223.17856" y="133.57706"/>
			<point x="235.21322" y="141.63026"/>
			<point x="245.2229" y="151.55505" type="curve" smooth="yes"/>
			<point x="265.24226" y="171.40463"/>
			<point x="276.94338" y="197.99123"/>
			<point x="287.03893" y="224.31348" type="curve" smooth="yes"/>
			<point x="317.63247" y="304.0804"/>
			<point x="337.76929" y="388.37004"/>
			<point x="340.42012" y="473.76149" type="curve" smooth="yes"/>
			<point x="341.24703" y="500.39874"/>
			<point x="340.37472" y="527.08851"/>
			<point x="337.81329" y="553.61518" type="curve" smooth="yes"/>
			<point x="336.85206" y="563.56996"/>
			<point x="343.7067" y="573.46328"/>
			<point x="353.44419" y="575.74582" type="curve" smooth="yes"/>
			<point x="433.16099" y="594.43204" type="line" smooth="yes"/>
			<point x="442.89848" y="596.71458"/>
			<point x="449.57521" y="590.54838"/>
			<point x="448.25426" y="580.63468" type="curve" smooth="yes"/>
			<point x="441.27699" y="528.27055"/>
			<point x="438.03329" y="475.40906"/>
			<point x="438.56031" y="422.58469" type="curve" smooth="yes"/>
			<point x="440.06821" y="271.4438"/>
			<point x="472.34851" y="121.06024"/>
			<point x="463.16813" y="-29.80911" type="curve" smooth="yes"/>
			<point x="461.74244" y="-53.23869"/>
			<point x="459.29206" y="-76.74336"/>
			<point x="452.97451" y="-99.35014" type="curve" smooth="yes"/>
			<point x="446.65697" y="-121.95692"/>
			<point x="436.30082" y="-143.75029"/>
			<point x="420.52316" y="-161.12968" type="curve" smooth="yes"/>
			<point x="406.57039" y="-176.49892"/>
			<point x="388.71455" y="-188.03325"/>
			<point x="369.58584" y="-196.09462" type="curve" smooth="yes"/>
			<point x="350.45713" y="-204.156"/>
			<point x="330.0453" y="-208.8454"/>
			<point x="309.48979" y="-211.7375" type="curve" smooth="yes"/>
			<point x="243.27018" y="-221.0545"/>
			<point x="174.97734" y="-211.7825"/>
			<point x="112.27731" y="-188.53311" type="curve" smooth="yes"/>
			<point x="87.823453" y="-179.46541"/>
			<point x="64.148113" y="-168.30019"/>
			<point x="41.592296" y="-155.20654" type="curve" smooth="yes"/>
			<point x="32.943188" y="-150.18574"/>
			<point x="27.038024" y="-137.75214"/>
			<point x="28.176835" y="-127.81575" type="curve" smooth="yes"/>
			<point x="40.763821" y="-17.99142" type="line" smooth="yes"/>
			<point x="41.902632" y="-8.05503"/>
			<point x="47.499873" y="-6.63607"/>
			<point x="53.801561" y="-14.40049" type="curve" smooth="yes"/>
			<point x="66.433842" y="-29.96494"/>
			<point x="80.641545" y="-44.25106"/>
			<point x="96.144288" y="-56.9593" type="curve" smooth="yes"/>
			<point x="144.31065" y="-96.44326"/>
			<point x="206.74019" y="-120.4006"/>
			<point x="268.81683" y="-115.35357" type="curve" smooth="yes"/>
			<point x="296.30212" y="-113.11893"/>
			<point x="324.4567" y="-104.64266"/>
			<point x="344.03438" y="-85.22233" type="curve" smooth="yes"/>
			<point x="355.42551" y="-73.92275"/>
			<point x="363.33331" y="-59.47215"/>
			<point x="368.62912" y="-44.32644" type="curve" smooth="yes"/>
			<point x="373.92494" y="-29.18073"/>
			<point x="376.72567" y="-13.28375"/>
			<point x="378.96259" y="2.60444" type="curve" smooth="yes"/>
			<point x="384.95741" y="45.18393"/>
			<point x="387.04904" y="88.26085"/>
			<point x="386.49447" y="131.2567" type="curve" smooth="yes"/>
			<point x="385.49906" y="208.4316"/>
			<point x="375.96935" y="285.49341"/>
			<point x="358.13488" y="360.58594" type="curve"/>
		</contour>
	</outline>
	<anchor name="top" x="233.84598" y="657.25195"/>
</glyph>
<glyph name="oe" format="2">
	<unicode hex="0153"/>
	<advance height="1024" width="840"/>
	<outline>
		<contour>
			<point x="419.30272" y="297.28962" type="line"/>
			<point x="419.0827" y="247.94611"/>
			<point x="403.64387" y="197.93756"/>
			<point x="371.81451" y="160.23183" type="curve" smooth="yes"/>
			<point x="355.89983" y="141.37896"/>
			<point x="336.05289" y="125.76672"/>
			<point x="313.68415" y="115.35772" type="curve" smooth="yes"/>
			<point x="291.31541" y="104.94872"/>
			<point x="266.42759" y="99.80938"/>
			<point x="241.79409" y="101.18725" type="curve" smooth="yes"/>
			<point x="195.70526" y="103.76522"/>
			<point x="152.38937" y="129.54512"/>
			<point x="124.41353" y="166.26268" type="curve" smooth="yes"/>
			<point x="96.437692" y="202.98023"/>
			<point x="83.155867" y="249.70225"/>
			<point x="82.90098" y="295.86242" type="curve" smooth="yes"/>
			<point x="82.635054" y="344.02184"/>
			<point x="96.598566" y="392.96099"/>
			<point x="126.41195" y="430.78376" type="curve" smooth="yes"/>
			<point x="141.31865" y="449.69515"/>
			<point x="160.04407" y="465.66978"/>
			<point x="181.38401" y="476.82581" type="curve" smooth="yes"/>
			<point x="202.72395" y="487.98185"/>
			<point x="226.68046" y="494.25938"/>
			<point x="250.76039" y="494.34232" type="curve" smooth="yes"/>
			<point x="274.79927" y="494.42512"/>
			<point x="298.75928" y="488.33352"/>
			<point x="320.14217" y="477.3496" type="curve" smooth="yes"/>
			<point x="341.52506" y="466.36567"/>
			<point x="360.33165" y="450.54849"/>
			<point x="375.3315" y="431.76342" type="curve" smooth="yes"/>
			<point x="405.33121" y="394.19327"/>
			<point x="419.5171" y="345.36718"/>
			<point x="419.30272" y="297.28962" type="curve"/>
		</contour>
		<contour>
			<point x="250.64237" y="596.37822" type="line"/>
			<point x="215.31166" y="596.23877"/>
			<point x="180.26702" y="585.90024"/>
			<point x="149.7434" y="568.10735" type="curve" smooth="yes"/>
			<point x="119.21977" y="550.31446"/>
			<point x="93.180918" y="525.20714"/>
			<point x="73.035568" y="496.18226" type="curve" smooth="yes"/>
			<point x="32.744868" y="438.13251"/>
			<point x="16.660926" y="365.84075"/>
			<point x="16.89163" y="295.17915" type="curve" smooth="yes"/>
			<point x="17.113695" y="227.16342"/>
			<point x="32.401326" y="157.77053"/>
			<point x="70.304929" y="101.29482" type="curve" smooth="yes"/>
			<point x="89.256731" y="73.05697"/>
			<point x="113.72583" y="48.36675"/>
			<point x="142.5592" y="30.3339" type="curve" smooth="yes"/>
			<point x="171.39257" y="12.30105"/>
			<point x="204.628" y="1.04429"/>
			<point x="238.58736" y="-0.77468" type="curve" smooth="yes"/>
			<point x="274.62632" y="-2.70504"/>
			<point x="310.97441" y="6.04297"/>
			<point x="342.92661" y="22.82362" type="curve" smooth="yes"/>
			<point x="374.8788" y="39.60427"/>
			<point x="402.46372" y="64.26218"/>
			<point x="423.96899" y="93.24592" type="curve" smooth="yes"/>
			<point x="466.97951" y="151.21338"/>
			<point x="484.92601" y="224.96649"/>
			<point x="485.31127" y="297.14671" type="curve" smooth="yes"/>
			<point x="485.68794" y="367.7178"/>
			<point x="469.34249" y="439.93752"/>
			<point x="428.74875" y="497.66591" type="curve" smooth="yes"/>
			<point x="408.45187" y="526.53011"/>
			<point x="382.25767" y="551.41764"/>
			<point x="351.63497" y="568.94921" type="curve" smooth="yes"/>
			<point x="321.01228" y="586.48077"/>
			<point x="285.92814" y="596.51749"/>
			<point x="250.64237" y="596.37822" type="curve"/>
		</contour>
		<contour>
			<point x="637.43395" y="597.18489" type="line"/>
			<point x="592.95012" y="587.37254"/>
			<point x="553.19667" y="561.34928"/>
			<point x="521.31396" y="528.81335" type="curve" smooth="yes"/>
			<point x="468.34174" y="474.75583"/>
			<point x="435.62738" y="402.47337"/>
			<point x="424.08304" y="327.67363" type="curve" smooth="yes"/>
			<point x="414.40334" y="264.95552"/>
			<point x="419.34546" y="199.25407"/>
			<point x="443.91228" y="140.74143" type="curve" smooth="yes"/>
			<point x="456.91997" y="109.76003"/>
			<point x="475.41213" y="80.90907"/>
			<point x="499.3973" y="57.37698" type="curve" smooth="yes"/>
			<point x="523.38246" y="33.84489"/>
			<point x="552.95257" y="15.74354"/>
			<point x="585.32732" y="6.74784" type="curve" smooth="yes"/>
			<point x="641.05593" y="-8.737"/>
			<point x="702.20372" y="3.81257"/>
			<point x="752.29612" y="32.72986" type="curve" smooth="yes"/>
			<point x="772.00512" y="44.10745"/>
			<point x="790.29451" y="57.93797"/>
			<point x="806.62797" y="73.78381" type="curve" smooth="yes"/>
			<point x="814.8137" y="81.72516"/>
			<point x="819.92509" y="97.90354"/>
			<point x="818.72122" y="109.24739" type="curve" smooth="yes"/>
			<point x="810.78307" y="184.0475" type="line" smooth="yes"/>
			<point x="809.14314" y="199.50039"/>
			<point x="800.19597" y="201.96424"/>
			<point x="789.76157" y="190.45436" type="curve" smooth="yes"/>
			<point x="766.43408" y="164.72246"/>
			<point x="739.33976" y="142.40372"/>
			<point x="709.58564" y="124.48474" type="curve" smooth="yes"/>
			<point x="689.45948" y="112.36406"/>
			<point x="667.91629" y="102.16887"/>
			<point x="644.96724" y="97.13753" type="curve" smooth="yes"/>
			<point x="622.01819" y="92.1062"/>
			<point x="597.51298" y="92.46289"/>
			<point x="575.58245" y="100.89054" type="curve" smooth="yes"/>
			<point x="556.76944" y="108.12017"/>
			<point x="540.40975" y="121.08862"/>
			<point x="527.90544" y="136.89492" type="curve" smooth="yes"/>
			<point x="515.40112" y="152.70122"/>
			<point x="506.64737" y="171.27429"/>
			<point x="500.97679" y="190.61444" type="curve" smooth="yes"/>
			<point x="490.18251" y="227.42957"/>
			<point x="490.44076" y="266.77459"/>
			<point x="496.33494" y="304.68407" type="curve" smooth="yes"/>
			<point x="502.45127" y="344.02238"/>
			<point x="514.66525" y="382.67423"/>
			<point x="534.86939" y="416.97737" type="curve" smooth="yes"/>
			<point x="555.07352" y="451.28051"/>
			<point x="583.49164" y="481.12955"/>
			<point x="618.26598" y="500.51144" type="curve" smooth="yes"/>
			<point x="628.36458" y="506.14002"/>
			<point x="639.05361" y="510.90847"/>
			<point x="650.36554" y="513.29653" type="curve" smooth="yes"/>
			<point x="661.67748" y="515.68459"/>
			<point x="673.68295" y="515.59939"/>
			<point x="684.57765" y="511.73051" type="curve" smooth="yes"/>
			<point x="700.61341" y="506.03596"/>
			<point x="713.06299" y="492.45457"/>
			<point x="719.97864" y="476.90635" type="curve" smooth="yes"/>
			<point x="726.62644" y="461.96032"/>
			<point x="728.60364" y="445.17515"/>
			<point x="727.064" y="428.88999" type="curve" smooth="yes"/>
			<point x="725.52435" y="412.60483"/>
			<point x="720.57173" y="396.77659"/>
			<point x="713.89538" y="381.84329" type="curve" smooth="yes"/>
			<point x="691.28747" y="331.27512"/>
			<point x="648.9051" y="290.99326"/>
			<point x="599.90837" y="265.15573" type="curve" smooth="yes"/>
			<point x="558.79443" y="243.47504"/>
			<point x="512.69883" y="231.31146"/>
			<point x="466.24057" y="229.88385" type="curve"/>
			<point x="504.79493" y="129.34662" type="line"/>
			<point x="560.59947" y="155.82229"/>
			<point x="614.37674" y="186.56968"/>
			<point x="665.50106" y="221.23107" type="curve" smooth="yes"/>
			<point x="726.67048" y="262.70286"/>
			<point x="786.26392" y="312.67132"/>
			<point x="814.70773" y="380.88097" type="curve" smooth="yes"/>
			<point x="829.88559" y="417.27822"/>
			<point x="835.258" y="458.72812"/>
			<point x="823.93054" y="496.50134" type="curve" smooth="yes"/>
			<point x="810.74656" y="540.46542"/>
			<point x="774.8925" y="576.44642"/>
			<point x="731.691" y="591.94764" type="curve" smooth="yes"/>
			<point x="701.67939" y="602.71616"/>
			<point x="668.57051" y="604.05307"/>
			<point x="637.43395" y="597.18489" type="curve"/>
		</contour>
	</outline>
</glyph>
<glyph name="ml_combining_anusvara_above" format="2">
	<unicode hex="0D00"/>
	<advance height="1024"/>
	<outline>
		<contour>
			<point x="149.99314" y="810" type="line"/>
			<point x="150.25494" y="797.0857083"/>
			<point x="145.19879" y="784.143167"/>
			<point x="136.25213" y="774.826264" type="curve" smooth="yes"/>
			<point x="127.30547" y="765.50936"/>
			<point x="114.57847" y="759.932838"/>
			<point x="101.66418" y="759.67104" type="curve" smooth="yes"/>
			<point x="88.416602" y="759.402486"/>
			<point x="75.145553" y="764.742617"/>
			<point x="65.776178" y="774.111994" type="curve" smooth="yes"/>
			<point x="56.406803" y="783.481372"/>
			<point x="51.066675" y="796.7524224"/>
			<point x="51.335231" y="810" type="curve" smooth="yes"/>
			<point x="51.59703" y="822.91429"/>
			<point x="57.17355" y="835.641283"/>
			<point x="66.490451" y="844.587946" type="curve" smooth="yes"/>
			<point x="75.807352" y="853.534609"/>
			<point x="88.74989" y="858.590758"/>
			<point x="101.66418" y="858.32896" type="curve" smooth="yes"/>
			<point x="114.24518" y="858.073918"/>
			<point x="126.65425" y="852.785951"/>
			<point x="135.55219" y="843.88801" type="curve" smooth="yes"/>
			<point x="144.45013" y="834.990068"/>
			<point x="149.7381" y="822.581004"/>
			<point x="149.99314" y="810" type="curve"/>
		</contour>
		<contour>
			<point x="101.66385" y="909.75073" type="line"/>
			<point x="75.549396" y="909.75073"/>
			<point x="49.595787" y="899.000262"/>
			<point x="31.130119" y="880.534515" type="curve" smooth="yes"/>
			<point x="12.664452" y="862.068768"/>
			<point x="1.9141067" y="836.115184"/>
			<point x="1.9138514" y="810.00073" type="curve" smooth="yes"/>
			<point x="1.9135961" y="783.885951"/>
			<point x="12.663713" y="757.931841"/>
			<point x="31.12943" y="739.465684" type="curve" smooth="yes"/>
			<point x="49.595147" y="720.999527"/>
			<point x="75.549071" y="710.24878"/>
			<point x="101.66385" y="710.24878" type="curve" smooth="yes"/>
			<point x="127.77863" y="710.24878"/>
			<point x="153.73255" y="720.999526"/>
			<point x="172.19827" y="739.465684" type="curve" smooth="yes"/>
			<point x="190.66399" y="757.931841"/>
			<point x="201.41411" y="783.885951"/>
			<point x="201.41385" y="810.00073" type="curve" smooth="yes"/>
			<point x="201.41359" y="836.115184"/>
			<point x="190.66325" y="862.068769"/>
			<point x="172.19758" y="880.534516" type="curve" smooth="yes"/>
			<point x="153.73191" y="899.000263"/>
			<point x="127.7783" y="909.75073"/>
			<point x="101.66385" y="909.75073" type="curve"/>
		</contour>
	</outline>
	<anchor name="vc" x="103.10441" y="0"/>
</glyph>
<glyph name="ml_visarga" format="2">
	<unicode hex="0D03"/>
	<advance height="1024" width="240"/>
	<outline>
		<contour>
			<point x="220.22465" y="250.82003" type="curve" smooth="yes"/>
			<point x="233.90731" y="221.04156"/>
			<point x="237.24883" y="186.60722"/>
			<point x="229.42443" y="154.78346" type="curve" smooth="yes"/>
			<point x="224.06457" y="132.98358"/>
			<point x="213.47251" y="112.32496"/>
			<point x="197.94283" y="96.1141" type="curve" smooth="yes"/>
			<point x="183.38724" y="80.92005"/>
			<point x="164.55112" y="69.79895"/>
			<point x="144.12112" y="64.76513" type="curve" smooth="yes"/>
			<point x="127.41042" y="60.64773"/>
			<point x="109.69087" y="60.60512"/>
			<point x="93.000742" y="64.80513" type="curve" smooth="yes"/>
			<point x="76.310616" y="69.00519"/>
			<point x="60.687317" y="77.45574"/>
			<point x="48.151643" y="89.248" type="curve" smooth="yes"/>
			<point x="33.40526" y="103.11987"/>
			<point x="23.118967" y="121.39996"/>
			<point x="17.53467" y="140.86018" type="curve" smooth="yes"/>
			<point x="11.950373" y="160.3204"/>
			<point x="10.945679" y="180.93216"/>
			<point x="13.174905" y="201.05466" type="curve" smooth="yes"/>
			<point x="16.459815" y="230.70647"/>
			<point x="27.074688" y="260.05632"/>
			<point x="46.586201" y="282.62447" type="curve" smooth="yes"/>
			<point x="56.341958" y="293.90854"/>
			<point x="68.245223" y="303.39324"/>
			<point x="81.647994" y="309.94082" type="curve" smooth="yes"/>
			<point x="95.050765" y="316.48841"/>
			<point x="109.95894" y="320.05932"/>
			<point x="124.87334" y="319.80279" type="curve" smooth="yes"/>
			<point x="145.559" y="319.447"/>
			<point x="165.83608" y="311.67759"/>
			<point x="182.32346" y="299.18" type="curve" smooth="yes"/>
			<point x="198.81083" y="286.68241"/>
			<point x="211.58676" y="269.61924"/>
		</contour>
		<contour>
			<point x="58.432723" y="195.12549" type="line"/>
			<point x="56.412693" y="187.51143"/>
			<point x="56.388692" y="179.39942"/>
			<point x="58.185721" y="171.72967" type="curve" smooth="yes"/>
			<point x="59.982749" y="164.05992"/>
			<point x="63.582761" y="156.83913"/>
			<point x="68.483384" y="150.67162" type="curve" smooth="yes"/>
			<point x="78.284628" y="138.33658"/>
			<point x="93.158261" y="130.48259"/>
			<point x="108.70844" y="127.95091" type="curve" smooth="yes"/>
			<point x="123.79447" y="125.4948"/>
			<point x="139.8616" y="127.97511"/>
			<point x="152.85749" y="136.02049" type="curve" smooth="yes"/>
			<point x="165.85338" y="144.06585"/>
			<point x="175.44119" y="157.87516"/>
			<point x="177.1828" y="173.06027" type="curve" smooth="yes"/>
			<point x="178.84791" y="187.57842"/>
			<point x="173.27715" y="202.5113"/>
			<point x="163.3791" y="213.26202" type="curve" smooth="yes"/>
			<point x="153.48106" y="224.01273"/>
			<point x="139.56493" y="230.68764"/>
			<point x="125.12765" y="232.94909" type="curve" smooth="yes"/>
			<point x="111.29086" y="235.11648"/>
			<point x="96.674725" y="233.29273"/>
			<point x="84.305408" y="226.72353" type="curve" smooth="yes"/>
			<point x="71.936091" y="220.15434"/>
			<point x="62.024179" y="208.66269"/>
			<point x="58.432723" y="195.12549" type="curve"/>
		</contour>
		<contour>
			<point x="217.68157" y="522.64868" type="line"/>
			<point x="231.36423" y="492.87021"/>
			<point x="234.70575" y="458.43587"/>
			<point x="226.88135" y="426.61211" type="curve" smooth="yes"/>
			<point x="221.52149" y="404.81223"/>
			<point x="210.92943" y="384.15361"/>
			<point x="195.39975" y="367.94275" type="curve" smooth="yes"/>
			<point x="180.84416" y="352.7487"/>
			<point x="162.00804" y="341.6276"/>
			<point x="141.57804" y="336.59378" type="curve" smooth="yes"/>
			<point x="124.86734" y="332.47637"/>
			<point x="107.14779" y="332.43377"/>
			<point x="90.457659" y="336.63378" type="curve" smooth="yes"/>
			<point x="73.767532" y="340.83384"/>
			<point x="58.144232" y="349.28439"/>
			<point x="45.608557" y="361.07665" type="curve" smooth="yes"/>
			<point x="30.862174" y="374.94852"/>
			<point x="20.575881" y="393.22861"/>
			<point x="14.991585" y="412.68883" type="curve" smooth="yes"/>
			<point x="9.407288" y="432.14905"/>
			<point x="8.4025941" y="452.76081"/>
			<point x="10.631821" y="472.88331" type="curve" smooth="yes"/>
			<point x="13.916731" y="502.53512"/>
			<point x="24.531605" y="531.88497"/>
			<point x="44.043119" y="554.45312" type="curve" smooth="yes"/>
			<point x="53.798876" y="565.73719"/>
			<point x="65.702142" y="575.22189"/>
			<point x="79.104913" y="581.76947" type="curve" smooth="yes"/>
			<point x="92.507684" y="588.31706"/>
			<point x="107.41586" y="591.88797"/>
			<point x="122.33026" y="591.63144" type="curve" smooth="yes"/>
			<point x="143.01592" y="591.27565"/>
			<point x="163.293" y="583.50624"/>
			<point x="179.78038" y="571.00865" type="curve" smooth="yes"/>
			<point x="196.26775" y="558.51106"/>
			<point x="209.04368" y="541.44789"/>
			<point x="217.68157" y="522.64868" type="curve"/>
		</contour>
		<contour>
			<point x="55.88964" y="466.95414" type="line"/>
			<point x="53.86961" y="459.34008"/>
			<point x="53.845609" y="451.22806"/>
			<point x="55.642638" y="443.55832" type="curve" smooth="yes"/>
			<point x="57.439667" y="435.88857"/>
			<point x="61.039679" y="428.66778"/>
			<point x="65.940302" y="422.50027" type="curve" smooth="yes"/>
			<point x="75.741547" y="410.16523"/>
			<point x="90.61518" y="402.31124"/>
			<point x="106.16536" y="399.77956" type="curve" smooth="yes"/>
			<point x="121.25139" y="397.32345"/>
			<point x="137.31852" y="399.80376"/>
			<point x="150.31441" y="407.84914" type="curve" smooth="yes"/>
			<point x="163.3103" y="415.89451"/>
			<point x="172.89811" y="429.70381"/>
			<point x="174.63972" y="444.88892" type="curve" smooth="yes"/>
			<point x="176.30483" y="459.40707"/>
			<point x="170.73407" y="474.33995"/>
			<point x="160.83602" y="485.09067" type="curve" smooth="yes"/>
			<point x="150.93798" y="495.84138"/>
			<point x="137.02185" y="502.51629"/>
			<point x="122.58457" y="504.77774" type="curve" smooth="yes"/>
			<point x="108.74778" y="506.94513"/>
			<point x="94.131644" y="505.12138"/>
			<point x="81.762327" y="498.55218" type="curve" smooth="yes"/>
			<point x="69.393009" y="491.98299"/>
			<point x="59.481096" y="480.49134"/>
			<point x="55.88964" y="466.95414" type="curve"/>
		</contour>
	</outline>
</glyph>
<glyph name="ml_o" format="2">
	<unicode hex="0D12"/>
	<advance height="1024" width="642"/>
	<outline>
		<contour>
			<point x="95.090158" y="536.42764" type="line"/>
			<point x="167.40889" y="515.88175"/>
			<point x="232.32359" y="470.1948"/>
			<point x="276.07115" y="409.0533" type="curve" smooth="yes"/>
			<point x="308.70842" y="363.43951"/>
			<point x="329.67589" y="309.28317"/>
			<point x="334.55649" y="253.40841" type="curve" smooth="yes"/>
			<point x="339.43709" y="197.53365"/>
			<point x="327.99593" y="140.09158"/>
			<point x="300.58496" y="91.15849" type="curve" smooth="yes"/>
			<point x="288.25419" y="69.14603"/>
			<point x="272.63767" y="48.74138"/>
			<point x="253.05979" y="32.82588" type="curve" smooth="yes"/>
			<point x="233.48191" y="16.91038"/>
			<point x="209.78344" y="5.62527"/>
			<point x="184.72295" y="2.69813" type="curve" smooth="yes"/>
			<point x="155.23701" y="-0.74592"/>
			<point x="124.94745" y="7.61567"/>
			<point x="99.940962" y="23.61435" type="curve" smooth="yes"/>
			<point x="74.934476" y="39.61302"/>
			<point x="55.048494" y="62.91118"/>
			<point x="40.81686" y="88.96387" type="curve" smooth="yes"/>
			<point x="12.35359" y="141.06924"/>
			<point x="6.4314483" y="202.22871"/>
			<point x="3.586814" y="261.53331" type="curve" smooth="yes"/>
			<point x="-0.64000159" y="349.65347"/>
			<point x="1.3707421" y="441.27283"/>
			<point x="38.968116" y="521.08176" type="curve" smooth="yes"/>
			<point x="74.276266" y="596.03129"/>
			<point x="140.48651" y="655.51445"/>
			<point x="218.23212" y="684.14518" type="curve" smooth="yes"/>
			<point x="260.42424" y="699.68293"/>
			<point x="306.04984" y="706.43595"/>
			<point x="350.77965" y="701.870736" type="curve" smooth="yes"/>
			<point x="395.50945" y="697.30552"/>
			<point x="439.2616" y="681.2375"/>
			<point x="475.20665" y="654.22731" type="curve" smooth="yes"/>
			<point x="507.77714" y="629.75287"/>
			<point x="533.66968" y="596.41635"/>
			<point x="549.04287" y="558.68704" type="curve" smooth="yes"/>
			<point x="564.41606" y="520.95774"/>
			<point x="569.19102" y="478.9323"/>
			<point x="562.37565" y="438.76532" type="curve" smooth="yes"/>
			<point x="551.23182" y="373.08821"/>
			<point x="508.04249" y="313.62385"/>
			<point x="449.03304" y="282.71184" type="curve"/>
			<point x="427.35713" y="337.65859" type="line"/>
			<point x="456.56592" y="344.18179"/>
			<point x="487.43384" y="343.12558"/>
			<point x="516.12843" y="334.62108" type="curve" smooth="yes"/>
			<point x="544.82301" y="326.11659"/>
			<point x="571.28141" y="310.18243"/>
			<point x="592.21863" y="288.79696" type="curve" smooth="yes"/>
			<point x="613.15586" y="267.41149"/>
			<point x="628.52604" y="240.62154"/>
			<point x="636.42088" y="211.75327" type="curve" smooth="yes"/>
			<point x="644.31572" y="182.88499"/>
			<point x="644.71791" y="152.00163"/>
			<point x="637.57753" y="122.93755" type="curve" smooth="yes"/>
			<point x="624.55814" y="69.94368"/>
			<point x="586.1292" y="24.40104"/>
			<point x="537.31891" y="0" type="curve" smooth="yes"/>
			<point x="501.25568" y="-18.02858"/>
			<point x="459.74136" y="-24.96673"/>
			<point x="419.77561" y="-19.64463" type="curve" smooth="yes"/>
			<point x="386.4118" y="-15.20168"/>
			<point x="354.24235" y="-2.2298"/>
			<point x="327.01957" y="17.54845" type="curve" smooth="yes"/>
			<point x="318.09748" y="24.03064"/>
			<point x="314.28843" y="38.56363"/>
			<point x="317.76589" y="49.03412" type="curve" smooth="yes"/>
			<point x="349.60108" y="144.88854" type="line" smooth="yes"/>
			<point x="353.07854" y="155.35903"/>
			<point x="359.79605" y="155.74154"/>
			<point x="366.02659" y="146.64691" type="curve" smooth="yes"/>
			<point x="380.96311" y="124.84431"/>
			<point x="401.76619" y="107.05036"/>
			<point x="425.73584" y="95.89223" type="curve" smooth="yes"/>
			<point x="454.20156" y="82.64113"/>
			<point x="487.76036" y="78.89849"/>
			<point x="517.34592" y="89.41434" type="curve" smooth="yes"/>
			<point x="532.1387" y="94.67226"/>
			<point x="545.74478" y="103.41896"/>
			<point x="556.28381" y="115.05516" type="curve" smooth="yes"/>
			<point x="566.82283" y="126.69136"/>
			<point x="574.22802" y="141.23162"/>
			<point x="576.92767" y="156.6972" type="curve" smooth="yes"/>
			<point x="579.79231" y="173.10797"/>
			<point x="577.29471" y="190.35341"/>
			<point x="570.24591" y="205.44758" type="curve" smooth="yes"/>
			<point x="563.19711" y="220.54175"/>
			<point x="551.6722" y="233.45266"/>
			<point x="537.683" y="242.4982" type="curve" smooth="yes"/>
			<point x="523.69379" y="251.54373"/>
			<point x="507.30015" y="256.73987"/>
			<point x="490.67519" y="257.80298" type="curve" smooth="yes"/>
			<point x="474.05022" y="258.86608"/>
			<point x="457.22331" y="255.83237"/>
			<point x="441.85668" y="249.39916" type="curve" smooth="yes"/>
			<point x="434.70458" y="246.40495"/>
			<point x="427.86072" y="242.67807"/>
			<point x="421.45739" y="238.30613" type="curve" smooth="yes"/>
			<point x="412.35724" y="232.0929"/>
			<point x="403.09325" y="234.12202"/>
			<point x="399.48582" y="244.54845" type="curve" smooth="yes"/>
			<point x="372.77093" y="321.76153" type="line" smooth="yes"/>
			<point x="369.1635" y="332.18796"/>
			<point x="374.91326" y="342.86303"/>
			<point x="385.38255" y="346.33842" type="curve" smooth="yes"/>
			<point x="401.76065" y="351.7753"/>
			<point x="417.69972" y="358.53507"/>
			<point x="432.98975" y="366.53627" type="curve" smooth="yes"/>
			<point x="444.98492" y="372.81329"/>
			<point x="456.64095" y="379.89501"/>
			<point x="466.88587" y="388.74525" type="curve" smooth="yes"/>
			<point x="477.13079" y="397.59549"/>
			<point x="485.95871" y="408.29422"/>
			<point x="491.48953" y="420.65121" type="curve" smooth="yes"/>
			<point x="498.87533" y="437.15262"/>
			<point x="500.0483" y="456.16234"/>
			<point x="495.8275" y="473.74162" type="curve" smooth="yes"/>
			<point x="491.6067" y="491.32091"/>
			<point x="482.15928" y="507.46033"/>
			<point x="469.70181" y="520.56216" type="curve" smooth="yes"/>
			<point x="444.78688" y="546.76582"/>
			<point x="409.01059" y="560.24198"/>
			<point x="373.29918" y="565.90599" type="curve" smooth="yes"/>
			<point x="324.94887" y="573.57459"/>
			<point x="274.44457" y="568.15781"/>
			<point x="229.22403" y="549.40515" type="curve" smooth="yes"/>
			<point x="184.00348" y="530.6525"/>
			<point x="144.27467" y="498.49509"/>
			<point x="117.40424" y="457.57395" type="curve" smooth="yes"/>
			<point x="92.269268" y="419.29575"/>
			<point x="78.61875" y="373.91046"/>
			<point x="76.26834" y="328.17795" type="curve" smooth="yes"/>
			<point x="73.91793" y="282.44543"/>
			<point x="82.6638" y="236.41757"/>
			<point x="99.57153" y="193.86036" type="curve" smooth="yes"/>
			<point x="108.18015" y="172.19225"/>
			<point x="119.15592" y="150.9855"/>
			<point x="135.67401" y="134.53047" type="curve" smooth="yes"/>
			<point x="143.93306" y="126.30296"/>
			<point x="153.53557" y="119.35036"/>
			<point x="164.19458" y="114.6292" type="curve" smooth="yes"/>
			<point x="174.85358" y="109.90803"/>
			<point x="186.58673" y="107.45849"/>
			<point x="198.22522" y="108.12896" type="curve" smooth="yes"/>
			<point x="217.15464" y="109.21945"/>
			<point x="235.11764" y="118.64009"/>
			<point x="248.2394" y="132.327" type="curve" smooth="yes"/>
			<point x="261.36115" y="146.01391"/>
			<point x="269.85433" y="163.7131"/>
			<point x="274.29949" y="182.14548" type="curve" smooth="yes"/>
			<point x="280.62504" y="208.3751"/>
			<point x="278.98638" y="236.2412"/>
			<point x="271.29952" y="262.10465" type="curve" smooth="yes"/>
			<point x="263.61265" y="287.96809"/>
			<point x="250.0215" y="311.87523"/>
			<point x="233.08583" y="332.87972" type="curve" smooth="yes"/>
			<point x="191.1154" y="384.93363"/>
			<point x="127.63636" y="419.08411"/>
			<point x="61.07077" y="425.42044" type="curve"/>
		</contour>
	</outline>
</glyph>
<glyph name="ml_ja" format="2">
	<unicode hex="0D1C"/>
	<advance height="1024" width="691"/>
	<outline>
		<contour>
			<point x="103.80917" y="415.48379" type="line"/>
			<point x="111.19019" y="432.73519"/>
			<point x="124.01483" y="447.60991"/>
			<point x="139.99165" y="457.45022" type="curve" smooth="yes"/>
			<point x="155.96847" y="467.29052"/>
			<point x="175.02289" y="472.05049"/>
			<point x="193.7504" y="470.87963" type="curve" smooth="yes"/>
			<point x="206.8382" y="470.06137"/>
			<point x="219.89901" y="466.31519"/>
			<point x="230.74584" y="458.9459" type="curve" smooth="yes"/>
			<point x="241.59267" y="451.57661"/>
			<point x="250.07907" y="440.42224"/>
			<point x="253.0676" y="427.65397" type="curve" smooth="yes"/>
			<point x="255.12238" y="418.87508"/>
			<point x="254.52948" y="409.45282"/>
			<point x="251.12738" y="401.10316" type="curve" smooth="yes"/>
			<point x="247.72528" y="392.7535"/>
			<point x="241.48834" y="385.54062"/>
			<point x="233.5796" y="381.2113" type="curve" smooth="yes"/>
			<point x="224.15673" y="376.05313"/>
			<point x="212.73135" y="375.15128"/>
			<point x="202.27488" y="377.6129" type="curve" smooth="yes"/>
			<point x="191.81841" y="380.07451"/>
			<point x="182.28979" y="385.71544"/>
			<point x="174.2202" y="392.8062" type="curve" smooth="yes"/>
			<point x="162.06553" y="403.48653"/>
			<point x="153.04643" y="417.44057"/>
			<point x="146.88698" y="432.40275" type="curve" smooth="yes"/>
			<point x="140.72754" y="447.36493"/>
			<point x="137.33396" y="463.34463"/>
			<point x="135.3535" y="479.40338" type="curve" smooth="yes"/>
			<point x="133.04505" y="498.12161"/>
			<point x="132.63954" y="517.2792"/>
			<point x="136.73923" y="535.68826" type="curve" smooth="yes"/>
			<point x="140.83893" y="554.09732"/>
			<point x="149.7085" y="571.79299"/>
			<point x="163.7968" y="584.33176" type="curve" smooth="yes"/>
			<point x="179.58125" y="598.38013"/>
			<point x="201.53388" y="605.14732"/>
			<point x="222.5217" y="602.69434" type="curve" smooth="yes"/>
			<point x="244.3008" y="600.14887"/>
			<point x="264.25412" y="588.16004"/>
			<point x="279.32239" y="572.23032" type="curve" smooth="yes"/>
			<point x="294.39067" y="556.3006"/>
			<point x="304.96097" y="536.6173"/>
			<point x="313.26472" y="516.32305" type="curve" smooth="yes"/>
			<point x="328.15155" y="479.93983"/>
			<point x="336.23281" y="441.01829"/>
			<point x="339.9205" y="401.88062" type="curve" smooth="yes"/>
			<point x="340.87807" y="391.71786"/>
			<point x="341.54444" y="381.52766"/>
			<point x="341.91869" y="371.32674" type="curve" smooth="yes"/>
			<point x="342.15659" y="364.84229"/>
			<point x="347.33375" y="360.81639"/>
			<point x="353.64138" y="362.33963" type="curve" smooth="yes"/>
			<point x="430.6956" y="380.94746" type="line" smooth="yes"/>
			<point x="436.228" y="382.28348"/>
			<point x="438.37315" y="387.35498"/>
			<point x="435.97643" y="392.51523" type="curve" smooth="yes"/>
			<point x="427.55551" y="410.64578"/>
			<point x="423.63547" y="430.86529"/>
			<point x="424.7705" y="450.82862" type="curve" smooth="yes"/>
			<point x="426.2495" y="476.84183"/>
			<point x="436.10048" y="501.84678"/>
			<point x="449.6591" y="524.09623" type="curve" smooth="yes"/>
			<point x="462.27185" y="544.79352"/>
			<point x="478.85464" y="564.01826"/>
			<point x="500.8093" y="574.28724" type="curve" smooth="yes"/>
			<point x="511.78663" y="579.42173"/>
			<point x="523.973" y="582.17295"/>
			<point x="536.07087" y="581.46131" type="curve" smooth="yes"/>
			<point x="548.16874" y="580.74967"/>
			<point x="560.14928" y="576.47554"/>
			<point x="569.49179" y="568.75658" type="curve" smooth="yes"/>
			<point x="580.67261" y="559.51878"/>
			<point x="587.59818" y="545.76121"/>
			<point x="590.16298" y="531.48643" type="curve" smooth="yes"/>
			<point x="592.72779" y="517.21165"/>
			<point x="591.18144" y="502.43197"/>
			<point x="587.51779" y="488.39896" type="curve" smooth="yes"/>
			<point x="578.27305" y="452.98851"/>
			<point x="555.76495" y="421.99114"/>
			<point x="528.02627" y="398.11792" type="curve" smooth="yes"/>
			<point x="500.28758" y="374.2447"/>
			<point x="467.45095" y="357.00106"/>
			<point x="433.7804" y="342.66024" type="curve" smooth="yes"/>
			<point x="396.40489" y="326.74141"/>
			<point x="357.592" y="314.13602"/>
			<point x="317.8803" y="305.5734" type="curve" smooth="yes"/>
			<point x="248.50527" y="290.61479"/>
			<point x="175.46316" y="287.66414"/>
			<point x="110.9894" y="258.00292" type="curve" smooth="yes"/>
			<point x="75.317221" y="241.5919"/>
			<point x="42.685536" y="216.51851"/>
			<point x="22.856571" y="182.62694" type="curve" smooth="yes"/>
			<point x="12.942088" y="165.68116"/>
			<point x="6.3670977" y="146.69242"/>
			<point x="4.4930057" y="127.14903" type="curve" smooth="yes"/>
			<point x="2.6189137" y="107.60563"/>
			<point x="5.5221251" y="87.52162"/>
			<point x="13.598101" y="69.62651" type="curve" smooth="yes"/>
			<point x="26.315471" y="41.44678"/>
			<point x="51.598619" y="19.79273"/>
			<point x="80.539878" y="8.91928" type="curve" smooth="yes"/>
			<point x="109.48114" y="-1.95417"/>
			<point x="141.74985" y="-2.50912"/>
			<point x="171.8398" y="4.59183" type="curve" smooth="yes"/>
			<point x="210.60972" y="13.74118"/>
			<point x="245.64673" y="35.06042"/>
			<point x="276.00553" y="60.85112" type="curve" smooth="yes"/>
			<point x="306.36434" y="86.64182"/>
			<point x="332.5134" y="116.93881"/>
			<point x="358.7658" y="146.89927" type="curve" smooth="yes"/>
			<point x="378.33033" y="169.22722"/>
			<point x="398.16134" y="191.57091"/>
			<point x="421.45575" y="209.97414" type="curve" smooth="yes"/>
			<point x="444.75016" y="228.37738"/>
			<point x="471.91441" y="242.80923"/>
			<point x="501.29369" y="247.07146" type="curve" smooth="yes"/>
			<point x="528.33671" y="250.99475"/>
			<point x="557.00334" y="245.79657"/>
			<point x="579.76662" y="230.6787" type="curve" smooth="yes"/>
			<point x="591.14826" y="223.11977"/>
			<point x="600.97266" y="213.17155"/>
			<point x="608.13526" y="201.53641" type="curve" smooth="yes"/>
			<point x="615.29787" y="189.90128"/>
			<point x="619.76854" y="176.58065"/>
			<point x="620.77899" y="162.955" type="curve" smooth="yes"/>
			<point x="622.07875" y="145.42812"/>
			<point x="617.52435" y="127.46836"/>
			<point x="607.76408" y="112.85269" type="curve" smooth="yes"/>
			<point x="598.0038" y="98.23701"/>
			<point x="583.05603" y="87.10012"/>
			<point x="566.16899" y="82.23096" type="curve" smooth="yes"/>
			<point x="545.90972" y="76.38947"/>
			<point x="523.56485" y="79.70379"/>
			<point x="504.83752" y="89.39132" type="curve" smooth="yes"/>
			<point x="486.11019" y="99.07885"/>
			<point x="470.88291" y="114.7887"/>
			<point x="459.89969" y="132.78675" type="curve" smooth="yes"/>
			<point x="437.6349" y="169.27174"/>
			<point x="432.82546" y="215.90395"/>
			<point x="447.175" y="256.16517" type="curve"/>
			<point x="343.2984" y="173.19884" type="line"/>
			<point x="349.16175" y="147.95319"/>
			<point x="358.65873" y="123.5544"/>
			<point x="371.4057" y="100.98813" type="curve" smooth="yes"/>
			<point x="387.26831" y="72.90616"/>
			<point x="408.36897" y="47.50631"/>
			<point x="434.56665" y="28.69406" type="curve" smooth="yes"/>
			<point x="460.76434" y="9.8818"/>
			<point x="492.2023" y="-2.12829"/>
			<point x="524.43719" y="-3.19187" type="curve" smooth="yes"/>
			<point x="566.62126" y="-4.58372"/>
			<point x="608.70173" y="13.28693"/>
			<point x="638.40572" y="43.27203" type="curve" smooth="yes"/>
			<point x="668.10971" y="73.25713"/>
			<point x="685.45153" y="114.69423"/>
			<point x="687.94479" y="156.82755" type="curve" smooth="yes"/>
			<point x="690.2128" y="195.15441"/>
			<point x="680.33024" y="234.32152"/>
			<point x="658.97179" y="266.2262" type="curve" smooth="yes"/>
			<point x="644.62117" y="287.66277"/>
			<point x="625.17329" y="305.75617"/>
			<point x="602.43743" y="317.94418" type="curve" smooth="yes"/>
			<point x="579.70157" y="330.1322"/>
			<point x="553.69184" y="336.32694"/>
			<point x="527.92739" y="335.03855" type="curve" smooth="yes"/>
			<point x="490.59537" y="333.17171"/>
			<point x="455.47423" y="315.94868"/>
			<point x="425.43385" y="293.70594" type="curve" smooth="yes"/>
			<point x="395.39346" y="271.46319"/>
			<point x="369.5322" y="244.17547"/>
			<point x="342.2204" y="218.65626" type="curve" smooth="yes"/>
			<point x="308.57796" y="187.22191"/>
			<point x="272.42068" y="158.23482"/>
			<point x="232.6901" y="134.96654" type="curve" smooth="yes"/>
			<point x="216.48666" y="125.47697"/>
			<point x="198.97605" y="116.75501"/>
			<point x="180.20459" y="116.26998" type="curve" smooth="yes"/>
			<point x="170.81885" y="116.02747"/>
			<point x="161.27494" y="117.94588"/>
			<point x="153.10235" y="122.56752" type="curve" smooth="yes"/>
			<point x="144.92975" y="127.18916"/>
			<point x="138.21985" y="134.62397"/>
			<point x="135.2372" y="143.52648" type="curve" smooth="yes"/>
			<point x="133.23669" y="149.49754"/>
			<point x="132.9362" y="155.98381"/>
			<point x="134.03664" y="162.18418" type="curve" smooth="yes"/>
			<point x="135.13707" y="168.38456"/>
			<point x="137.61107" y="174.30303"/>
			<point x="140.95806" y="179.63719" type="curve" smooth="yes"/>
			<point x="147.65203" y="190.3055"/>
			<point x="157.65384" y="198.49447"/>
			<point x="168.1636" y="205.43473" type="curve" smooth="yes"/>
			<point x="184.3145" y="216.1002"/>
			<point x="202.06595" y="224.27051"/>
			<point x="220.5199" y="230.1062" type="curve" smooth="yes"/>
			<point x="283.46618" y="250.0117"/>
			<point x="352.13299" y="242.4235"/>
			<point x="416.1342" y="258.61941" type="curve" smooth="yes"/>
			<point x="492.02383" y="277.82376"/>
			<point x="556.14752" y="329.31832"/>
			<point x="607.38299" y="388.50421" type="curve" smooth="yes"/>
			<point x="642.39041" y="428.94388"/>
			<point x="673.30378" y="475.25595"/>
			<point x="682.98189" y="527.86033" type="curve" smooth="yes"/>
			<point x="689.98209" y="565.90919"/>
			<point x="685.02846" y="606.72709"/>
			<point x="665.55448" y="640.15586" type="curve" smooth="yes"/>
			<point x="655.8175" y="656.87025"/>
			<point x="642.56109" y="671.58766"/>
			<point x="626.6471" y="682.58423" type="curve" smooth="yes"/>
			<point x="610.73312" y="693.58081"/>
			<point x="592.15607" y="700.804428"/>
			<point x="572.92939" y="702.929172" type="curve" smooth="yes"/>
			<point x="545.86028" y="705.920586"/>
			<point x="518.25028" y="698.7379"/>
			<point x="494.39651" y="685.59702" type="curve" smooth="yes"/>
			<point x="470.54274" y="672.45613"/>
			<point x="450.21838" y="653.59783"/>
			<point x="432.7167" y="632.73215" type="curve" smooth="yes"/>
			<point x="387.06582" y="578.30672"/>
			<point x="359.6725" y="508.82906"/>
			<point x="355.8966" y="437.89337" type="curve"/>
			<point x="410.3172" y="441.11788" type="line"/>
			<point x="396.80239" y="516.45231"/>
			<point x="362.09" y="587.86718"/>
			<point x="311.2" y="645.03478" type="curve" smooth="yes"/>
			<point x="290.42394" y="668.3737"/>
			<point x="266.63734" y="689.62891"/>
			<point x="238.54775" y="703.315589" type="curve" smooth="yes"/>
			<point x="210.45816" y="717.002265"/>
			<point x="177.63308" y="722.621744"/>
			<point x="147.4997" y="714.355582" type="curve" smooth="yes"/>
			<point x="128.24451" y="709.073516"/>
			<point x="110.6632" y="698.2941"/>
			<point x="96.481597" y="684.23905" type="curve" smooth="yes"/>
			<point x="82.29999" y="670.18399"/>
			<point x="71.462978" y="652.92317"/>
			<point x="63.992077" y="634.40701" type="curve" smooth="yes"/>
			<point x="49.050274" y="597.37469"/>
			<point x="47.629248" y="556.13718"/>
			<point x="51.966701" y="516.44037" type="curve" smooth="yes"/>
			<point x="58.203254" y="459.3628"/>
			<point x="76.756827" y="402.25035"/>
			<point x="113.7866" y="358.36938" type="curve" smooth="yes"/>
			<point x="130.58033" y="338.46849"/>
			<point x="151.27423" y="321.38997"/>
			<point x="175.40964" y="311.61466" type="curve" smooth="yes"/>
			<point x="199.54505" y="301.83935"/>
			<point x="227.31549" y="299.82475"/>
			<point x="251.6887" y="308.99106" type="curve" smooth="yes"/>
			<point x="268.00528" y="315.12742"/>
			<point x="282.38581" y="326.09563"/>
			<point x="293.09617" y="339.84968" type="curve" smooth="yes"/>
			<point x="303.80654" y="353.60372"/>
			<point x="310.87719" y="370.07853"/>
			<point x="314.0639" y="387.2171" type="curve" smooth="yes"/>
			<point x="320.12026" y="419.78911"/>
			<point x="312.03814" y="454.07203"/>
			<point x="295.4056" y="482.72467" type="curve" smooth="yes"/>
			<point x="285.57243" y="499.66413"/>
			<point x="272.7411" y="514.96384"/>
			<point x="257.16206" y="526.83523" type="curve" smooth="yes"/>
			<point x="241.58302" y="538.70661"/>
			<point x="223.21537" y="547.08323"/>
			<point x="203.8648" y="550.11503" type="curve" smooth="yes"/>
			<point x="183.59915" y="553.2902"/>
			<point x="162.43616" y="550.50435"/>
			<point x="143.6826" y="542.19278" type="curve" smooth="yes"/>
			<point x="124.92904" y="533.88122"/>
			<point x="108.65105" y="520.07325"/>
			<point x="97.3921" y="502.9264" type="curve"/>
		</contour>
	</outline>
	<anchor name="vc" x="378.13247" y="0"/>
</glyph>
<glyph name="ml_tta" format="2">
	<unicode hex="0D1F"/>
	<advance height="1024" width="533"/>
	<outline>
		<contour>
			<point x="57.133064" y="358.74443" type="line"/>
			<point x="15.016475" y="489.98457" type="line" smooth="yes"/>
			<point x="13.575681" y="494.47425"/>
			<point x="14.445168" y="501.34853"/>
			<point x="17.046236" y="505.28132" type="curve" smooth="yes"/>
			<point x="58.362666" y="567.75133"/>
			<point x="115.9807" y="619.36139"/>
			<point x="182.6532" y="653.49701" type="curve" smooth="yes"/>
			<point x="262.26522" y="694.25753"/>
			<point x="354.57608" y="709.716197"/>
			<point x="443.13356" y="697.27274" type="curve" smooth="yes"/>
			<point x="447.80281" y="696.61665"/>
			<point x="452.08662" y="692.21188"/>
			<point x="452.71695" y="687.539" type="curve" smooth="yes"/>
			<point x="473.67292" y="532.18364" type="line" smooth="yes"/>
			<point x="474.30325" y="527.51076"/>
			<point x="471.42866" y="525.49787"/>
			<point x="467.21182" y="527.60756" type="curve" smooth="yes"/>
			<point x="445.15672" y="538.64176"/>
			<point x="422.28647" y="548.04648"/>
			<point x="398.84851" y="555.71752" type="curve" smooth="yes"/>
			<point x="351.80799" y="571.11347"/>
			<point x="300.88918" y="579.44837"/>
			<point x="252.77496" y="567.83513" type="curve" smooth="yes"/>
			<point x="202.37998" y="555.67139"/>
			<point x="157.85315" y="521.03919"/>
			<point x="133.65904" y="475.18883" type="curve"/>
			<point x="188.16772" y="487.2465"/>
			<point x="245.45438" y="486.41953"/>
			<point x="299.64368" y="473.04605" type="curve" smooth="yes"/>
			<point x="317.06535" y="468.74652"/>
			<point x="344.6483" y="459.23423"/>
			<point x="360.98274" y="451.80659" type="curve" smooth="yes"/>
			<point x="394.2208" y="436.6925"/>
			<point x="425.05794" y="416.21506"/>
			<point x="450.94488" y="390.71051" type="curve" smooth="yes"/>
			<point x="464.96597" y="376.89654"/>
			<point x="484.71672" y="351.58162"/>
			<point x="494.50382" y="334.50684" type="curve" smooth="yes"/>
			<point x="518.0797" y="293.37586"/>
			<point x="530.14031" y="245.58521"/>
			<point x="525.79278" y="198.48933" type="curve" smooth="yes"/>
			<point x="520.8319" y="144.74917"/>
			<point x="494.37644" y="93.37642"/>
			<point x="453.81417" y="57.77702" type="curve" smooth="yes"/>
			<point x="413.24771" y="22.17395"/>
			<point x="359.41725" y="2.68291"/>
			<point x="305.45311" y="1.63978" type="curve" smooth="yes"/>
			<point x="263.8407" y="0.83541"/>
			<point x="222.3979" y="10.59761"/>
			<point x="184.17202" y="27.06033" type="curve" smooth="yes"/>
			<point x="145.94613" y="43.52306"/>
			<point x="110.80976" y="66.5694"/>
			<point x="78.390174" y="92.6694" type="curve" smooth="yes"/>
			<point x="53.77959" y="112.48261"/>
			<point x="30.630005" y="134.10993"/>
			<point x="9.1878596" y="157.31498" type="curve" smooth="yes"/>
			<point x="2.8214944" y="164.20477"/>
			<point x="2.1592927" y="176.19068"/>
			<point x="7.5045223" y="183.89999" type="curve" smooth="yes"/>
			<point x="79.486417" y="287.71791" type="line" smooth="yes"/>
			<point x="82.17308" y="291.59282"/>
			<point x="85.594165" y="291.11857"/>
			<point x="87.25777" y="286.70674" type="curve" smooth="yes"/>
			<point x="102.40317" y="246.5416"/>
			<point x="125.51413" y="209.39091"/>
			<point x="154.88194" y="178.08077" type="curve" smooth="yes"/>
			<point x="196.53689" y="133.67084"/>
			<point x="252.37671" y="100.73559"/>
			<point x="312.95105" y="94.56101" type="curve" smooth="yes"/>
			<point x="340.83838" y="91.71835"/>
			<point x="369.69653" y="94.67226"/>
			<point x="395.28161" y="106.12598" type="curve" smooth="yes"/>
			<point x="411.82818" y="113.53341"/>
			<point x="426.89863" y="124.69374"/>
			<point x="438.34445" y="138.67588" type="curve" smooth="yes"/>
			<point x="448.65915" y="151.27624"/>
			<point x="458.91966" y="176.41374"/>
			<point x="460.41036" y="192.63065" type="curve" smooth="yes"/>
			<point x="460.48866" y="193.48224"/>
			<point x="460.55664" y="194.33485"/>
			<point x="460.61443" y="195.18822" type="curve" smooth="yes"/>
			<point x="461.22899" y="204.26431"/>
			<point x="459.96027" y="219.06587"/>
			<point x="457.92762" y="227.9338" type="curve" smooth="yes"/>
			<point x="455.53444" y="238.3746"/>
			<point x="451.75189" y="248.50748"/>
			<point x="446.85713" y="258.04229" type="curve" smooth="yes"/>
			<point x="434.73864" y="281.64867"/>
			<point x="416.0334" y="301.29111"/>
			<point x="394.53625" y="317.0156" type="curve" smooth="yes"/>
			<point x="386.63172" y="322.79752"/>
			<point x="373.10178" y="331.16313"/>
			<point x="364.44373" y="335.74125" type="curve" smooth="yes"/>
			<point x="308.86596" y="365.12912"/>
			<point x="243.85951" y="374.00826"/>
			<point x="180.45928" y="370.68376" type="curve" smooth="yes"/>
			<point x="169.2669" y="370.09686"/>
			<point x="151.16488" y="368.41003"/>
			<point x="140.04928" y="366.97452" type="curve" smooth="yes"/>
			<point x="115.75404" y="363.83696"/>
			<point x="91.662825" y="359.11932"/>
			<point x="67.97918" y="352.85926" type="curve" smooth="yes"/>
			<point x="63.420579" y="351.65434"/>
			<point x="58.573858" y="354.25475"/>
			<point x="57.133064" y="358.74443" type="curve"/>
		</contour>
	</outline>
	<anchor name="bottom" x="397.05951" y="18.1814"/>
</glyph>
<glyph name="ml_rra" format="2">
	<unicode hex="0D31"/>
	<advance height="1024" width="448"/>
	<outline>
		<contour>
			<point x="39.82476" y="-93.27365" type="line"/>
			<point x="48.588291" y="-62.62951"/>
			<point x="53.406395" y="-30.85758"/>
			<point x="54.103406" y="1.0079" type="curve" smooth="yes"/>
			<point x="55.138152" y="48.31377"/>
			<point x="47.163897" y="95.29614"/>
			<point x="39.49977" y="141.98851" type="curve" smooth="yes"/>
			<point x="29.63531" y="202.08603"/>
			<point x="20.238647" y="262.28315"/>
			<point x="13.389117" y="322.79847" type="curve" smooth="yes"/>
			<point x="4.8851038" y="397.93108"/>
			<point x="0.55972052" y="475.66444"/>
			<point x="23.73922" y="547.63623" type="curve" smooth="yes"/>
			<point x="43.352767" y="608.53582"/>
			<point x="84.158125" y="664.1336"/>
			<point x="141.18047" y="693.14918" type="curve" smooth="yes"/>
			<point x="177.56265" y="711.662097"/>
			<point x="219.6619" y="718.812853"/>
			<point x="260.08559" y="713.128113" type="curve" smooth="yes"/>
			<point x="300.50928" y="707.443372"/>
			<point x="339.06219" y="688.91577"/>
			<point x="368.60141" y="660.74086" type="curve" smooth="yes"/>
			<point x="406.26145" y="624.8202"/>
			<point x="428.29986" y="574.55656"/>
			<point x="436.2185" y="523.11856" type="curve" smooth="yes"/>
			<point x="446.13532" y="458.70073"/>
			<point x="435.20861" y="393.00468"/>
			<point x="421.83701" y="329.2144" type="curve" smooth="yes"/>
			<point x="410.34837" y="274.40694"/>
			<point x="396.97722" y="219.5203"/>
			<point x="395.6622" y="163.53712" type="curve" smooth="yes"/>
			<point x="394.66974" y="121.28589"/>
			<point x="400.66357" y="78.88391"/>
			<point x="413.2624" y="38.54482" type="curve" smooth="yes"/>
			<point x="417.19098" y="25.96623"/>
			<point x="410.60278" y="18.11272"/>
			<point x="397.68311" y="20.71888" type="curve" smooth="yes"/>
			<point x="268.26266" y="46.82569" type="line" smooth="yes"/>
			<point x="255.34299" y="49.43185"/>
			<point x="250.95116" y="60.33378"/>
			<point x="258.03437" y="71.44781" type="curve" smooth="yes"/>
			<point x="270.01542" y="90.24687"/>
			<point x="281.10305" y="109.61536"/>
			<point x="291.24574" y="129.46672" type="curve" smooth="yes"/>
			<point x="320.69026" y="187.09579"/>
			<point x="342.17556" y="249.00093"/>
			<point x="352.26285" y="312.92539" type="curve" smooth="yes"/>
			<point x="358.11674" y="350.02227"/>
			<point x="360.10412" y="388.11388"/>
			<point x="353.27032" y="425.0428" type="curve" smooth="yes"/>
			<point x="346.43653" y="461.97173"/>
			<point x="330.31019" y="497.81565"/>
			<point x="303.66855" y="524.28581" type="curve" smooth="yes"/>
			<point x="288.68585" y="539.17208"/>
			<point x="270.44622" y="550.95341"/>
			<point x="250.32385" y="557.37001" type="curve" smooth="yes"/>
			<point x="230.20148" y="563.7866"/>
			<point x="208.18653" y="564.70032"/>
			<point x="187.89358" y="558.84555" type="curve" smooth="yes"/>
			<point x="158.8937" y="550.47872"/>
			<point x="134.94885" y="528.75882"/>
			<point x="119.42371" y="502.8751" type="curve" smooth="yes"/>
			<point x="103.89856" y="476.99138"/>
			<point x="96.102735" y="447.14848"/>
			<point x="91.821432" y="417.27094" type="curve" smooth="yes"/>
			<point x="82.73612" y="353.8681"/>
			<point x="88.749842" y="288.92369"/>
			<point x="103.6126" y="226.62151" type="curve" smooth="yes"/>
			<point x="117.17596" y="169.7662"/>
			<point x="137.97291" y="114.93244"/>
			<point x="158.83355" y="60.33093" type="curve" smooth="yes"/>
			<point x="173.17565" y="22.79132"/>
			<point x="187.57519" y="-14.72633"/>
			<point x="202.03213" y="-52.22187" type="curve" smooth="yes"/>
			<point x="206.7736" y="-64.51937"/>
			<point x="200.10996" y="-76.38603"/>
			<point x="187.14016" y="-78.73" type="curve" smooth="yes"/>
			<point x="49.074913" y="-103.68191" type="line" smooth="yes"/>
			<point x="41.808293" y="-104.99517"/>
			<point x="37.79451" y="-100.37299"/>
			<point x="39.82476" y="-93.27365" type="curve"/>
		</contour>
	</outline>
	<anchor name="bottom" x="370.81696" y="24.6922"/>
</glyph>
<glyph name="ml_llla" format="2">
	<unicode hex="0D34"/>
	<advance height="1024" width="552"/>
	<outline>
		<contour>
			<point x="137.754" y="660.24592" type="line"/>
			<point x="123.09034" y="635.21574"/>
			<point x="110.95397" y="608.70536"/>
			<point x="101.59503" y="581.2472" type="curve" smooth="yes"/>
			<point x="82.706881" y="525.83133"/>
			<point x="75.44409" y="464.44762"/>
			<point x="93.84804" y="408.86907" type="curve" smooth="yes"/>
			<point x="105.61971" y="373.31951"/>
			<point x="127.86138" y="341.15973"/>
			<point x="157.5848" y="318.3812" type="curve" smooth="yes"/>
			<point x="187.30822" y="295.60267"/>
			<point x="224.46679" y="282.43809"/>
			<point x="261.91465" y="282.40837" type="curve" smooth="yes"/>
			<point x="290.19809" y="282.38597"/>
			<point x="318.28727" y="289.72482"/>
			<point x="343.64393" y="302.25452" type="curve" smooth="yes"/>
			<point x="369.00059" y="314.78422"/>
			<point x="391.67335" y="332.41689"/>
			<point x="411.18721" y="352.89035" type="curve" smooth="yes"/>
			<point x="431.87516" y="374.59564"/>
			<point x="449.24545" y="399.79325"/>
			<point x="459.79301" y="427.86209" type="curve" smooth="yes"/>
			<point x="470.34057" y="455.93093"/>
			<point x="473.83777" y="486.97868"/>
			<point x="467.31662" y="516.24616" type="curve" smooth="yes"/>
			<point x="462.72734" y="536.84325"/>
			<point x="453.15553" y="556.42001"/>
			<point x="439.0612" y="572.12515" type="curve" smooth="yes"/>
			<point x="424.96687" y="587.83028"/>
			<point x="406.30597" y="599.55225"/>
			<point x="385.81757" y="604.60467" type="curve" smooth="yes"/>
			<point x="361.13514" y="610.69134"/>
			<point x="334.2436" y="606.81907"/>
			<point x="312.00215" y="594.50695" type="curve" smooth="yes"/>
			<point x="289.76071" y="582.19484"/>
			<point x="272.30562" y="561.65587"/>
			<point x="263.20666" y="537.91816" type="curve" smooth="yes"/>
			<point x="254.72963" y="515.80296"/>
			<point x="253.42722" y="491.17993"/>
			<point x="258.33377" y="468.00951" type="curve" smooth="yes"/>
			<point x="263.24032" y="444.8391"/>
			<point x="274.21625" y="423.12709"/>
			<point x="289.01493" y="404.63544" type="curve" smooth="yes"/>
			<point x="319.69455" y="366.29981"/>
			<point x="364.81952" y="343.04987"/>
			<point x="407.33269" y="318.48382" type="curve" smooth="yes"/>
			<point x="428.58927" y="306.20079"/>
			<point x="449.5982" y="293.26617"/>
			<point x="468.38018" y="277.45629" type="curve" smooth="yes"/>
			<point x="487.16217" y="261.64641"/>
			<point x="503.74335" y="242.79468"/>
			<point x="514.51621" y="220.7343" type="curve" smooth="yes"/>
			<point x="532.79811" y="183.2971"/>
			<point x="532.84619" y="137.89168"/>
			<point x="516.55624" y="99.54576" type="curve" smooth="yes"/>
			<point x="497.60374" y="54.93228"/>
			<point x="458.00516" y="20.90396"/>
			<point x="413.0501" y="2.77658" type="curve" smooth="yes"/>
			<point x="368.09504" y="-15.35081"/>
			<point x="318.17971" y="-18.62546"/>
			<point x="270.01422" y="-13.18076" type="curve" smooth="yes"/>
			<point x="209.8368" y="-6.37821"/>
			<point x="151.21876" y="13.83838"/>
			<point x="99.612045" y="45.52327" type="curve" smooth="yes"/>
			<point x="95.305927" y="48.16709"/>
			<point x="94.346215" y="53.65988"/>
			<point x="97.401757" y="57.68445" type="curve" smooth="yes"/>
			<point x="166.74315" y="149.01656" type="line" smooth="yes"/>
			<point x="169.79869" y="153.04113"/>
			<point x="175.42667" y="153.68608"/>
			<point x="179.34278" y="150.49274" type="curve" smooth="yes"/>
			<point x="189.50565" y="142.20557"/>
			<point x="199.814" y="134.09681"/>
			<point x="210.26147" y="126.17145" type="curve" smooth="yes"/>
			<point x="214.04307" y="123.30276"/>
			<point x="220.20771" y="118.69574"/>
			<point x="224.04026" y="115.89549" type="curve" smooth="yes"/>
			<point x="248.27096" y="98.19135"/>
			<point x="273.9349" y="81.79019"/>
			<point x="302.41898" y="73.07665" type="curve" smooth="yes"/>
			<point x="306.95731" y="71.68833"/>
			<point x="314.43369" y="69.83346"/>
			<point x="319.10012" y="68.96867" type="curve" smooth="yes"/>
			<point x="333.82921" y="66.23904"/>
			<point x="349.01" y="65.83675"/>
			<point x="363.71484" y="68.58496" type="curve" smooth="yes"/>
			<point x="381.2334" y="71.85903"/>
			<point x="398.04809" y="79.7357"/>
			<point x="410.92126" y="92.06051" type="curve" smooth="yes"/>
			<point x="423.51377" y="104.11662"/>
			<point x="432.05417" y="120.21028"/>
			<point x="435.58611" y="137.28208" type="curve" smooth="yes"/>
			<point x="439.11805" y="154.35388"/>
			<point x="437.70986" y="172.33751"/>
			<point x="432.15212" y="188.8612" type="curve" smooth="yes"/>
			<point x="424.31506" y="212.16152"/>
			<point x="408.56775" y="232.1507"/>
			<point x="390.26267" y="248.55948" type="curve" smooth="yes"/>
			<point x="371.95758" y="264.96826"/>
			<point x="351.04015" y="278.14228"/>
			<point x="330.33594" y="291.39595" type="curve" smooth="yes"/>
			<point x="295.26041" y="313.84933"/>
			<point x="260.24703" y="336.95387"/>
			<point x="230.3489" y="365.94609" type="curve" smooth="yes"/>
			<point x="200.45077" y="394.93831"/>
			<point x="175.66766" y="430.42976"/>
			<point x="165.28499" y="470.76148" type="curve" smooth="yes"/>
			<point x="153.92583" y="514.88636"/>
			<point x="160.81954" y="563.12535"/>
			<point x="182.63147" y="603.12879" type="curve" smooth="yes"/>
			<point x="204.44341" y="643.13223"/>
			<point x="240.69752" y="674.74875"/>
			<point x="282.66452" y="692.49154" type="curve" smooth="yes"/>
			<point x="319.10129" y="707.896259"/>
			<point x="360.07484" y="713.025814"/>
			<point x="398.88994" y="705.388293" type="curve" smooth="yes"/>
			<point x="437.70503" y="697.75077"/>
			<point x="474.11761" y="677.10637"/>
			<point x="499.3251" y="646.61825" type="curve" smooth="yes"/>
			<point x="526.71387" y="613.4919"/>
			<point x="540.01882" y="570.12172"/>
			<point x="541.20536" y="527.15554" type="curve" smooth="yes"/>
			<point x="542.3919" y="484.18936"/>
			<point x="532.09644" y="441.52015"/>
			<point x="516.4353" y="401.4923" type="curve" smooth="yes"/>
			<point x="500.39153" y="360.48651"/>
			<point x="478.50912" y="321.50045"/>
			<point x="449.49116" y="288.38193" type="curve" smooth="yes"/>
			<point x="420.47321" y="255.26342"/>
			<point x="384.13587" y="228.12935"/>
			<point x="342.97549" y="212.48643" type="curve" smooth="yes"/>
			<point x="294.26776" y="193.97516"/>
			<point x="239.02167" y="192.25517"/>
			<point x="189.87083" y="209.5556" type="curve" smooth="yes"/>
			<point x="147.73904" y="224.38542"/>
			<point x="110.93705" y="252.63239"/>
			<point x="82.959881" y="287.45033" type="curve" smooth="yes"/>
			<point x="54.982715" y="322.26828"/>
			<point x="35.567141" y="363.47448"/>
			<point x="23.120499" y="406.37078" type="curve" smooth="yes"/>
			<point x="10.792702" y="448.85749"/>
			<point x="5.1313443" y="493.15833"/>
			<point x="4.812991" y="537.39625" type="curve" smooth="yes"/>
			<point x="4.4079441" y="593.68099"/>
			<point x="12.647847" y="650.01861"/>
			<point x="29.136104" y="703.834865" type="curve" smooth="yes"/>
			<point x="30.526553" y="708.373172"/>
			<point x="35.287848" y="710.596747"/>
			<point x="39.691728" y="708.825908" type="curve" smooth="yes"/>
			<point x="134.19811" y="670.82408" type="line" smooth="yes"/>
			<point x="138.60199" y="669.05324"/>
			<point x="140.15327" y="664.34138"/>
			<point x="137.754" y="660.24592" type="curve"/>
		</contour>
	</outline>
	<anchor name="bottom" x="432.11401" y="8.50214"/>
</glyph>
<glyph name="ml_avagraha" format="2">
	<unicode hex="0D3D"/>
	<advance height="1024" width="711"/>
	<outline>
		<contour>
			<point x="614.93538" y="662.33979" type="line"/>
			<point x="694.55882" y="758.319945" type="line" smooth="yes"/>
			<point x="701.99881" y="767.288304"/>
			<point x="698.94495" y="777.145807"/>
			<point x="687.74309" y="780.355653" type="curve" smooth="yes"/>
			<point x="663.34843" y="787.345836"/>
			<point x="638.97228" y="794.4006022"/>
			<point x="614.61498" y="801.5198527" type="curve" smooth="yes"/>
			<point x="574.7007" y="813.186161"/>
			<point x="533.91027" y="825.144502"/>
			<point x="492.37405" y="823.145733" type="curve" smooth="yes"/>
			<point x="440.89788" y="820.668643"/>
			<point x="390.84764" y="795.5047536"/>
			<point x="358.4554" y="755.421408" type="curve" smooth="yes"/>
			<point x="331.96265" y="722.638303"/>
			<point x="317.60796" y="681.41301"/>
			<point x="310.89501" y="639.8013" type="curve" smooth="yes"/>
			<point x="304.18207" y="598.18959"/>
			<point x="304.65574" y="555.79868"/>
			<point x="304.93829" y="513.64992" type="curve" smooth="yes"/>
			<point x="305.42421" y="441.16346"/>
			<point x="305.29361" y="368.67446"/>
			<point x="305.17364" y="296.18647" type="curve" smooth="yes"/>
			<point x="305.00233" y="192.68234"/>
			<point x="304.83049" y="88.8288"/>
			<point x="291.25159" y="-13.78088" type="curve" smooth="yes"/>
			<point x="288.00325" y="-38.32716"/>
			<point x="283.86618" y="-63.17897"/>
			<point x="273.07707" y="-85.46499" type="curve" smooth="yes"/>
			<point x="267.68251" y="-96.608"/>
			<point x="260.62832" y="-107.01847"/>
			<point x="251.71906" y="-115.61457" type="curve" smooth="yes"/>
			<point x="242.8098" y="-124.21068"/>
			<point x="232.00347" y="-130.95696"/>
			<point x="220.12821" y="-134.45639" type="curve" smooth="yes"/>
			<point x="199.05514" y="-140.66625"/>
			<point x="175.0594" y="-135.87284"/>
			<point x="157.98939" y="-122.04347" type="curve" smooth="yes"/>
			<point x="146.60962" y="-112.82409"/>
			<point x="138.51969" y="-99.76055"/>
			<point x="134.89516" y="-85.58628" type="curve" smooth="yes"/>
			<point x="131.90685" y="-73.90007"/>
			<point x="125.13237" y="-69.77271"/>
			<point x="115.48334" y="-77.10087" type="curve" smooth="yes"/>
			<point x="22.62459" y="-147.62433" type="line" smooth="yes"/>
			<point x="11.691328" y="-155.92781"/>
			<point x="9.1968587" y="-171.85471"/>
			<point x="18.547093" y="-181.89424" type="curve" smooth="yes"/>
			<point x="35.841266" y="-200.4633"/>
			<point x="56.7935" y="-215.6319"/>
			<point x="79.889107" y="-226.152" type="curve" smooth="yes"/>
			<point x="110.52641" y="-240.1074"/>
			<point x="144.85973" y="-245.8482"/>
			<point x="178.37045" y="-242.619" type="curve" smooth="yes"/>
			<point x="227.91843" y="-237.8444"/>
			<point x="274.59144" y="-213.5504"/>
			<point x="310.24425" y="-178.81314" type="curve" smooth="yes"/>
			<point x="345.89705" y="-144.07589"/>
			<point x="370.94457" y="-99.37459"/>
			<point x="386.48266" y="-52.08435" type="curve" smooth="yes"/>
			<point x="423.75493" y="61.354"/>
			<point x="407.22694" y="184.25648"/>
			<point x="401.11818" y="303.50481" type="curve" smooth="yes"/>
			<point x="397.02765" y="383.35564"/>
			<point x="397.80662" y="463.41349"/>
			<point x="392.88083" y="543.21715" type="curve" smooth="yes"/>
			<point x="391.02846" y="573.22778"/>
			<point x="388.39049" y="603.61135"/>
			<point x="393.94587" y="633.16143" type="curve" smooth="yes"/>
			<point x="396.72355" y="647.93646"/>
			<point x="401.58" y="662.41251"/>
			<point x="409.25087" y="675.34213" type="curve" smooth="yes"/>
			<point x="416.92174" y="688.27175"/>
			<point x="427.4837" y="699.62521"/>
			<point x="440.41607" y="707.291437" type="curve" smooth="yes"/>
			<point x="452.11227" y="714.22487"/>
			<point x="465.56124" y="718.028506"/>
			<point x="479.13171" y="718.874794" type="curve" smooth="yes"/>
			<point x="492.70217" y="719.721083"/>
			<point x="506.38738" y="717.655823"/>
			<point x="519.31455" y="713.441321" type="curve" smooth="yes"/>
			<point x="545.02483" y="705.05928"/>
			<point x="567.62877" y="687.79575"/>
			<point x="582.99408" y="665.57822" type="curve" smooth="yes"/>
			<point x="592.05125" y="652.48198"/>
			<point x="604.74461" y="650.05557"/>
			<point x="614.93538" y="662.33979" type="curve"/>
		</contour>
	</outline>
</glyph>
<glyph name="ml_digit_eight" format="2">
	<unicode hex="0D6E"/>
	<advance height="1024" width="636"/>
	<outline>
		<contour>
			<point x="313.77071" y="-201.1988" type="line"/>
			<point x="353.67489" y="-205.5566"/>
			<point x="394.19206" y="-204.2817"/>
			<point x="433.7408" y="-197.40584" type="curve" smooth="yes"/>
			<point x="461.53086" y="-192.57431"/>
			<point x="489.00554" y="-184.92704"/>
			<point x="514.26046" y="-172.36439" type="curve" smooth="yes"/>
			<point x="539.51537" y="-159.80173"/>
			<point x="562.54164" y="-142.15814"/>
			<point x="579.29188" y="-119.46319" type="curve" smooth="yes"/>
			<point x="603.22917" y="-87.03048"/>
			<point x="613.07329" y="-46.4428"/>
			<point x="619.35828" y="-6.62605" type="curve" smooth="yes"/>
			<point x="628.69663" y="52.5344"/>
			<point x="631.38487" y="112.85476"/>
			<point x="625.54086" y="172.4619" type="curve" smooth="yes"/>
			<point x="617.27055" y="256.81663"/>
			<point x="592.11262" y="338.64679"/>
			<point x="580.49697" y="422.60627" type="curve" smooth="yes"/>
			<point x="573.88646" y="470.38794"/>
			<point x="571.70736" y="519.13855"/>
			<point x="579.22739" y="566.78554" type="curve" smooth="yes"/>
			<point x="583.709" y="595.18108"/>
			<point x="591.6295" y="623.03134"/>
			<point x="602.74634" y="649.54144" type="curve" smooth="yes"/>
			<point x="605.69405" y="656.57078"/>
			<point x="602.35579" y="663.74881"/>
			<point x="594.988" y="665.70417" type="curve" smooth="yes"/>
			<point x="477.22296" y="696.9582" type="line" smooth="yes"/>
			<point x="470.89294" y="698.63814"/>
			<point x="464.43812" y="694.85487"/>
			<point x="463.13731" y="688.43681" type="curve" smooth="yes"/>
			<point x="458.98057" y="667.92797"/>
			<point x="457.33723" y="646.90971"/>
			<point x="458.2703" y="626.00434" type="curve" smooth="yes"/>
			<point x="460.86125" y="567.95414"/>
			<point x="482.92488" y="512.86008"/>
			<point x="499.29602" y="457.10594" type="curve" smooth="yes"/>
			<point x="519.6703" y="387.71857"/>
			<point x="531.45723" y="315.9117"/>
			<point x="535.99439" y="243.73738" type="curve" smooth="yes"/>
			<point x="539.45851" y="188.63227"/>
			<point x="538.71437" y="133.26311"/>
			<point x="533.77059" y="78.271" type="curve"/>
			<point x="590.07024" y="124.67603" type="line"/>
			<point x="549.88787" y="118.96528"/>
			<point x="509.64074" y="113.71011"/>
			<point x="469.33922" y="108.91186" type="curve" smooth="yes"/>
			<point x="438.39359" y="105.22751"/>
			<point x="407.40486" y="101.81157"/>
			<point x="376.31367" y="99.67981" type="curve" smooth="yes"/>
			<point x="331.92611" y="96.63639"/>
			<point x="287.35887" y="96.21561"/>
			<point x="242.92176" y="98.4204" type="curve"/>
			<point x="258.30379" y="49.46775" type="line"/>
			<point x="299.36803" y="89.10649"/>
			<point x="334.80894" y="134.56219"/>
			<point x="363.2372" y="184.05295" type="curve" smooth="yes"/>
			<point x="402.33155" y="252.1123"/>
			<point x="428.2575" y="328.9524"/>
			<point x="429.20379" y="407.43519" type="curve" smooth="yes"/>
			<point x="429.77726" y="454.99738"/>
			<point x="420.93912" y="503.23564"/>
			<point x="398.93387" y="545.40506" type="curve" smooth="yes"/>
			<point x="376.92863" y="587.57448"/>
			<point x="341.11388" y="623.3024"/>
			<point x="296.87103" y="640.76839" type="curve" smooth="yes"/>
			<point x="260.45029" y="655.1464"/>
			<point x="219.43326" y="656.71569"/>
			<point x="181.47333" y="647.11145" type="curve" smooth="yes"/>
			<point x="143.5134" y="637.5072"/>
			<point x="108.64022" y="617.01341"/>
			<point x="80.31686" y="589.97667" type="curve" smooth="yes"/>
			<point x="49.309015" y="560.3774"/>
			<point x="25.899055" y="522.76462"/>
			<point x="13.67704" y="481.67659" type="curve" smooth="yes"/>
			<point x="-0.99139972" y="432.36416"/>
			<point x="0.55584763" y="379.63804"/>
			<point x="7.12904" y="328.61185" type="curve" smooth="yes"/>
			<point x="19.715107" y="230.90909"/>
			<point x="50.243438" y="134.62387"/>
			<point x="45.62549" y="36.22208" type="curve" smooth="yes"/>
			<point x="44.926923" y="21.33663"/>
			<point x="43.419979" y="6.48923"/>
			<point x="41.115714" y="-8.23336" type="curve" smooth="yes"/>
			<point x="39.307264" y="-19.78805"/>
			<point x="46.524557" y="-26.84768"/>
			<point x="57.897186" y="-24.11368" type="curve" smooth="yes"/>
			<point x="164.53319" y="1.52179" type="line" smooth="yes"/>
			<point x="169.64192" y="2.74994"/>
			<point x="172.96134" y="7.92513"/>
			<point x="171.87314" y="13.06545" type="curve" smooth="yes"/>
			<point x="166.1853" y="39.93311"/>
			<point x="158.9955" y="66.48279"/>
			<point x="150.34746" y="92.54876" type="curve" smooth="yes"/>
			<point x="125.86739" y="166.33394"/>
			<point x="89.462027" y="237.32866"/>
			<point x="81.20835" y="314.62939" type="curve" smooth="yes"/>
			<point x="77.272365" y="351.4923"/>
			<point x="80.141364" y="389.82494"/>
			<point x="95.366705" y="423.62664" type="curve" smooth="yes"/>
			<point x="102.97937" y="440.5275"/>
			<point x="113.64767" y="456.12877"/>
			<point x="127.18772" y="468.7881" type="curve" smooth="yes"/>
			<point x="140.72776" y="481.44744"/>
			<point x="157.17371" y="491.11275"/>
			<point x="175.04492" y="496.03326" type="curve" smooth="yes"/>
			<point x="208.89496" y="505.35324"/>
			<point x="246.50216" y="496.75501"/>
			<point x="274.91331" y="476.12751" type="curve" smooth="yes"/>
			<point x="303.32445" y="455.5"/>
			<point x="322.73016" y="423.73951"/>
			<point x="331.3623" y="389.70756" type="curve" smooth="yes"/>
			<point x="341.52058" y="349.65883"/>
			<point x="337.28911" y="306.68216"/>
			<point x="323.05484" y="267.89457" type="curve" smooth="yes"/>
			<point x="308.82057" y="229.10698"/>
			<point x="284.94626" y="194.32824"/>
			<point x="256.60835" y="164.26074" type="curve" smooth="yes"/>
			<point x="245.17854" y="152.13332"/>
			<point x="232.99844" y="140.71329"/>
			<point x="220.16282" y="130.08498" type="curve" smooth="yes"/>
			<point x="211.1548" y="122.62604"/>
			<point x="205.9848" y="107.85854"/>
			<point x="209.04404" y="96.56906" type="curve" smooth="yes"/>
			<point x="229.67326" y="20.44142" type="line" smooth="yes"/>
			<point x="232.7325" y="9.15194"/>
			<point x="244.46206" y="2.0942"/>
			<point x="255.93494" y="4.36971" type="curve" smooth="yes"/>
			<point x="289.4531" y="11.01764"/>
			<point x="323.35813" y="15.71512"/>
			<point x="357.4214" y="18.42768" type="curve" smooth="yes"/>
			<point x="431.63191" y="24.33728"/>
			<point x="506.59032" y="20.79067"/>
			<point x="579.91134" y="7.90072" type="curve"/>
			<point x="547.66471" y="31.87254" type="line"/>
			<point x="549.48968" y="16.93725"/>
			<point x="547.80855" y="1.58488"/>
			<point x="542.79468" y="-12.60154" type="curve" smooth="yes"/>
			<point x="534.84146" y="-35.10465"/>
			<point x="518.67581" y="-54.1993"/>
			<point x="499.1389" y="-67.90889" type="curve" smooth="yes"/>
			<point x="479.60198" y="-81.61847"/>
			<point x="456.81182" y="-90.19371"/>
			<point x="433.50866" y="-95.35186" type="curve" smooth="yes"/>
			<point x="387.73548" y="-105.48374"/>
			<point x="339.17722" y="-102.52855"/>
			<point x="294.89154" y="-87.19619" type="curve" smooth="yes"/>
			<point x="283.84191" y="-83.37065"/>
			<point x="277.38945" y="-88.65301"/>
			<point x="280.09552" y="-100.03232" type="curve" smooth="yes"/>
			<point x="301.56073" y="-190.29582" type="line" smooth="yes"/>
			<point x="302.83524" y="-195.65529"/>
			<point x="308.29446" y="-200.6008"/>
			<point x="313.77071" y="-201.1988" type="curve"/>
		</contour>
	</outline>
</glyph>
<glyph name="ml_digit_nine" format="2">
	<unicode hex="0D6F"/>
	<advance height="1024" width="811"/>
	<outline>
		<contour>
			<point x="210.19529" y="-37.0414" type="line"/>
			<point x="204.28367" y="-13.90654"/>
			<point x="196.90169" y="8.85261"/>
			<point x="188.10634" y="31.05199" type="curve" smooth="yes"/>
			<point x="155.96555" y="112.17504"/>
			<point x="105.55704" y="184.57768"/>
			<point x="65.274313" y="261.98105" type="curve" smooth="yes"/>
			<point x="34.219932" y="321.65213"/>
			<point x="8.7620035" y="386.26075"/>
			<point x="7.9951924" y="453.52458" type="curve" smooth="yes"/>
			<point x="7.6117868" y="487.1565"/>
			<point x="13.567979" y="521.07632"/>
			<point x="27.416138" y="551.72728" type="curve" smooth="yes"/>
			<point x="41.264298" y="582.37824"/>
			<point x="63.19944" y="609.64932"/>
			<point x="91.400289" y="627.97867" type="curve" smooth="yes"/>
			<point x="127.83549" y="651.66"/>
			<point x="173.85988" y="659.40176"/>
			<point x="216.45588" y="650.80467" type="curve" smooth="yes"/>
			<point x="259.05188" y="642.20757"/>
			<point x="297.93826" y="617.75057"/>
			<point x="325.6609" y="584.28739" type="curve" smooth="yes"/>
			<point x="353.75696" y="550.37346"/>
			<point x="370.32084" y="508.23598"/>
			<point x="380.70009" y="465.43627" type="curve" smooth="yes"/>
			<point x="391.07934" y="422.63657"/>
			<point x="395.68564" y="378.68649"/>
			<point x="402.57203" y="335.18797" type="curve" smooth="yes"/>
			<point x="404.3847" y="323.73809"/>
			<point x="406.35652" y="312.3134"/>
			<point x="408.48675" y="300.91833" type="curve"/>
			<point x="370.75867" y="295.55258" type="line"/>
			<point x="373.35429" y="309.08532"/>
			<point x="375.80583" y="322.64571"/>
			<point x="378.11272" y="336.23065" type="curve" smooth="yes"/>
			<point x="390.08968" y="406.76121"/>
			<point x="398.65048" y="479.51962"/>
			<point x="431.21389" y="543.21917" type="curve" smooth="yes"/>
			<point x="451.61913" y="583.13527"/>
			<point x="481.64999" y="618.7634"/>
			<point x="520.10389" y="641.80611" type="curve" smooth="yes"/>
			<point x="558.55778" y="664.84882"/>
			<point x="605.73313" y="674.52915"/>
			<point x="649.34254" y="664.14225" type="curve" smooth="yes"/>
			<point x="692.64164" y="653.82926"/>
			<point x="730.07691" y="624.38792"/>
			<point x="754.76904" y="587.35457" type="curve" smooth="yes"/>
			<point x="779.46117" y="550.32123"/>
			<point x="792.10642" y="506.17432"/>
			<point x="796.1711" y="461.84997" type="curve" smooth="yes"/>
			<point x="800.78348" y="411.55316"/>
			<point x="794.76914" y="360.78175"/>
			<point x="784.34088" y="311.36218" type="curve" smooth="yes"/>
			<point x="766.80158" y="228.24336"/>
			<point x="736.47381" y="147.34637"/>
			<point x="690.33019" y="76.02224" type="curve" smooth="yes"/>
			<point x="675.50324" y="53.10425"/>
			<point x="658.6556" y="30.80023"/>
			<point x="636.16054" y="15.33915" type="curve" smooth="yes"/>
			<point x="624.91301" y="7.60861"/>
			<point x="612.32301" y="1.69715"/>
			<point x="598.98448" y="-1.19279" type="curve" smooth="yes"/>
			<point x="585.64595" y="-4.08274"/>
			<point x="571.54386" y="-3.88248"/>
			<point x="558.51823" y="0.19196" type="curve" smooth="yes"/>
			<point x="544.30765" y="4.63706"/>
			<point x="531.70164" y="13.59951"/>
			<point x="521.98617" y="24.88264" type="curve" smooth="yes"/>
			<point x="512.2707" y="36.16577"/>
			<point x="505.36553" y="49.70451"/>
			<point x="500.86608" y="63.89797" type="curve" smooth="yes"/>
			<point x="491.86718" y="92.2849"/>
			<point x="492.39049" y="122.71287"/>
			<point x="493.6473" y="152.46549" type="curve" smooth="yes"/>
			<point x="498.22239" y="260.7723"/>
			<point x="511.3563" y="368.50605"/>
			<point x="521.69426" y="476.41538" type="curve" smooth="yes"/>
			<point x="528.48227" y="547.26975"/>
			<point x="534.06792" y="618.24314"/>
			<point x="538.05073" y="689.3104" type="curve" smooth="yes"/>
			<point x="541.17354" y="745.032285"/>
			<point x="543.3108" y="800.80940217"/>
			<point x="544.46121" y="856.606866" type="curve" smooth="yes"/>
			<point x="544.5717" y="861.965989"/>
			<point x="548.85616" y="865.214533"/>
			<point x="554.04309" y="863.862444" type="curve" smooth="yes"/>
			<point x="683.48102" y="830.121595" type="line" smooth="yes"/>
			<point x="689.72563" y="828.493799"/>
			<point x="693.67531" y="822.062461"/>
			<point x="692.29169" y="815.75925" type="curve" smooth="yes"/>
			<point x="679.53922" y="757.664343"/>
			<point x="666.08191" y="699.72416"/>
			<point x="651.9237" y="641.95575" type="curve" smooth="yes"/>
			<point x="629.01899" y="548.49983"/>
			<point x="604.27265" y="455.46153"/>
			<point x="584.49073" y="361.29513" type="curve" smooth="yes"/>
			<point x="572.15989" y="302.59755"/>
			<point x="561.74013" y="242.11418"/>
			<point x="571.28098" y="182.89908" type="curve" smooth="yes"/>
			<point x="573.46369" y="169.35213"/>
			<point x="576.79394" y="155.6998"/>
			<point x="584.06583" y="144.06349" type="curve" smooth="yes"/>
			<point x="587.70177" y="138.24533"/>
			<point x="592.3122" y="132.99327"/>
			<point x="597.86279" y="128.96065" type="curve" smooth="yes"/>
			<point x="603.41337" y="124.92803"/>
			<point x="609.9235" y="122.14153"/>
			<point x="616.73389" y="121.31111" type="curve" smooth="yes"/>
			<point x="623.37194" y="120.50171"/>
			<point x="630.1785" y="121.56247"/>
			<point x="636.41552" y="123.97461" type="curve" smooth="yes"/>
			<point x="642.65255" y="126.38674"/>
			<point x="648.33311" y="130.12243"/>
			<point x="653.30771" y="134.59147" type="curve" smooth="yes"/>
			<point x="663.2569" y="143.52955"/>
			<point x="670.29288" y="155.20751"/>
			<point x="676.65236" y="166.97325" type="curve" smooth="yes"/>
			<point x="708.52587" y="225.94271"/>
			<point x="727.12134" y="292.16768"/>
			<point x="729.58417" y="359.15464" type="curve" smooth="yes"/>
			<point x="730.76594" y="391.29785"/>
			<point x="728.16477" y="424.06964"/>
			<point x="716.72703" y="454.13225" type="curve" smooth="yes"/>
			<point x="705.28929" y="484.19486"/>
			<point x="684.27143" y="511.4594"/>
			<point x="655.47399" y="525.78734" type="curve" smooth="yes"/>
			<point x="625.5414" y="540.68006"/>
			<point x="589.24413" y="540.32655"/>
			<point x="558.07837" y="528.22496" type="curve" smooth="yes"/>
			<point x="526.91261" y="516.12338"/>
			<point x="500.72954" y="493.05693"/>
			<point x="481.49408" y="465.71191" type="curve" smooth="yes"/>
			<point x="457.90415" y="432.1766"/>
			<point x="444.26946" y="392.30989"/>
			<point x="438.21498" y="351.75813" type="curve" smooth="yes"/>
			<point x="432.16049" y="311.20637"/>
			<point x="433.43911" y="269.86181"/>
			<point x="437.75993" y="229.08887" type="curve" smooth="yes"/>
			<point x="440.36017" y="204.55201"/>
			<point x="444.05613" y="180.13132"/>
			<point x="448.83226" y="155.92374" type="curve" smooth="yes"/>
			<point x="450.39659" y="147.995"/>
			<point x="445.24719" y="141.90449"/>
			<point x="437.17463" y="142.2887" type="curve" smooth="yes"/>
			<point x="312.21953" y="148.23588" type="line" smooth="yes"/>
			<point x="303.86136" y="148.63369"/>
			<point x="299.779" y="155.18331"/>
			<point x="302.88276" y="162.95377" type="curve" smooth="yes"/>
			<point x="307.8244" y="175.32547"/>
			<point x="312.35414" y="187.86169"/>
			<point x="316.46158" y="200.5348" type="curve" smooth="yes"/>
			<point x="338.94128" y="269.89372"/>
			<point x="348.43006" y="345.95879"/>
			<point x="326.6363" y="415.53629" type="curve" smooth="yes"/>
			<point x="321.48762" y="431.97366"/>
			<point x="314.59688" y="447.9678"/>
			<point x="304.95466" y="462.24097" type="curve" smooth="yes"/>
			<point x="295.31243" y="476.51413"/>
			<point x="282.83086" y="489.04752"/>
			<point x="267.84656" y="497.54262" type="curve" smooth="yes"/>
			<point x="250.30094" y="507.48982"/>
			<point x="229.58015" y="511.61611"/>
			<point x="209.52023" y="509.51962" type="curve" smooth="yes"/>
			<point x="189.46031" y="507.42313"/>
			<point x="170.13867" y="499.1667"/>
			<point x="154.51823" y="486.40748" type="curve" smooth="yes"/>
			<point x="137.21501" y="472.27372"/>
			<point x="124.56698" y="452.82024"/>
			<point x="117.32579" y="431.68425" type="curve" smooth="yes"/>
			<point x="110.0846" y="410.54826"/>
			<point x="108.12263" y="387.78421"/>
			<point x="110.21907" y="365.54078" type="curve" smooth="yes"/>
			<point x="114.41195" y="321.05394"/>
			<point x="134.34997" y="279.55351"/>
			<point x="157.58128" y="241.38329" type="curve" smooth="yes"/>
			<point x="182.04295" y="201.19153"/>
			<point x="210.67631" y="163.27426"/>
			<point x="245.13241" y="131.23478" type="curve" smooth="yes"/>
			<point x="273.84632" y="104.53476"/>
			<point x="306.49219" y="82.07327"/>
			<point x="341.67677" y="64.77154" type="curve" smooth="yes"/>
			<point x="349.14547" y="61.09887"/>
			<point x="349.99719" y="54.23419"/>
			<point x="343.4277" y="49.12343" type="curve" smooth="yes"/>
			<point x="225.69966" y="-42.4637" type="line" smooth="yes"/>
			<point x="219.0983" y="-47.59926"/>
			<point x="212.26587" y="-45.14451"/>
			<point x="210.19529" y="-37.0414" type="curve"/>
		</contour>
	</outline>
</glyph>
<glyph name="ml_chillu_ll" format="2">
	<unicode hex="0D7E"/>
	<advance height="1024" width="734"/>
	<outline>
		<contour>
			<point x="208.65908" y="677.42865" type="line"/>
			<point x="100.99792" y="706.465925" type="line" smooth="yes"/>
			<point x="93.761194" y="708.417741"/>
			<point x="85.623629" y="704.36388"/>
			<point x="82.924197" y="697.3716" type="curve" smooth="yes"/>
			<point x="63.049788" y="645.89134"/>
			<point x="47.282242" y="592.82591"/>
			<point x="35.825243" y="538.84484" type="curve" smooth="yes"/>
			<point x="22.594883" y="476.50836"/>
			<point x="15.111418" y="412.883"/>
			<point x="14.893355" y="349.15835" type="curve" smooth="yes"/>
			<point x="14.645662" y="276.77502"/>
			<point x="23.998824" y="203.59224"/>
			<point x="50.751554" y="136.33379" type="curve" smooth="yes"/>
			<point x="64.916342" y="100.72241"/>
			<point x="84.300288" y="66.47743"/>
			<point x="112.39843" y="40.41393" type="curve" smooth="yes"/>
			<point x="140.49657" y="14.35043"/>
			<point x="178.12817" y="-2.88847"/>
			<point x="216.40567" y="-0.97944" type="curve" smooth="yes"/>
			<point x="236.36543" y="0.01602"/>
			<point x="255.96411" y="6.14867"/>
			<point x="273.30481" y="16.08259" type="curve" smooth="yes"/>
			<point x="290.64552" y="26.01651"/>
			<point x="305.74422" y="39.69709"/>
			<point x="317.92603" y="55.53964" type="curve" smooth="yes"/>
			<point x="342.28965" y="87.22474"/>
			<point x="354.64898" y="126.95317"/>
			<point x="358.2971" y="166.75547" type="curve" smooth="yes"/>
			<point x="363.87732" y="227.63769"/>
			<point x="350.16565" y="288.41004"/>
			<point x="344.43631" y="349.27841" type="curve" smooth="yes"/>
			<point x="341.41503" y="381.37636"/>
			<point x="340.6309" y="413.93134"/>
			<point x="346.16842" y="445.69205" type="curve" smooth="yes"/>
			<point x="351.70594" y="477.45276"/>
			<point x="363.85425" y="508.53406"/>
			<point x="384.52024" y="533.27923" type="curve" smooth="yes"/>
			<point x="401.64555" y="553.78483"/>
			<point x="424.51938" y="569.57835"/>
			<point x="450.01079" y="577.57485" type="curve" smooth="yes"/>
			<point x="475.5022" y="585.57134"/>
			<point x="503.54338" y="585.62856"/>
			<point x="528.82486" y="576.99128" type="curve" smooth="yes"/>
			<point x="549.43576" y="569.94968"/>
			<point x="567.91306" y="557.34263"/>
			<point x="583.21997" y="541.84774" type="curve" smooth="yes"/>
			<point x="598.52689" y="526.35285"/>
			<point x="610.75915" y="508.01756"/>
			<point x="620.73049" y="488.65353" type="curve" smooth="yes"/>
			<point x="660.97653" y="410.49699"/>
			<point x="663.78195" y="317.47001"/>
			<point x="647.04473" y="231.16791" type="curve" smooth="yes"/>
			<point x="641.85575" y="204.412"/>
			<point x="634.55089" y="177.27021"/>
			<point x="618.37907" y="155.33219" type="curve" smooth="yes"/>
			<point x="610.29317" y="144.36318"/>
			<point x="600.02081" y="134.87521"/>
			<point x="587.93668" y="128.57641" type="curve" smooth="yes"/>
			<point x="575.85255" y="122.27761"/>
			<point x="561.91103" y="119.27647"/>
			<point x="548.39889" y="121.0437" type="curve" smooth="yes"/>
			<point x="531.11914" y="123.30369"/>
			<point x="515.42859" y="133.23577"/>
			<point x="503.93589" y="146.33596" type="curve" smooth="yes"/>
			<point x="492.44318" y="159.43615"/>
			<point x="484.83272" y="175.53613"/>
			<point x="479.37249" y="192.08555" type="curve" smooth="yes"/>
			<point x="464.51954" y="237.10342"/>
			<point x="464.88192" y="286.09741"/>
			<point x="473.7888" y="332.65797" type="curve" smooth="yes"/>
			<point x="482.69569" y="379.21853"/>
			<point x="499.83523" y="423.77405"/>
			<point x="518.13669" y="467.50362" type="curve" smooth="yes"/>
			<point x="536.43814" y="511.23319"/>
			<point x="556.029" y="554.54448"/>
			<point x="570.19042" y="599.78465" type="curve" smooth="yes"/>
			<point x="584.35184" y="645.02482"/>
			<point x="593.01645" y="692.6371"/>
			<point x="588.75652" y="739.850141" type="curve" smooth="yes"/>
			<point x="583.65262" y="796.4168869"/>
			<point x="558.7282" y="852.127484"/>
			<point x="515.53244" y="889.005294" type="curve" smooth="yes"/>
			<point x="479.06971" y="920.13487"/>
			<point x="431.68796" y="936.481"/>
			<point x="384.04934" y="941.87944" type="curve" smooth="yes"/>
			<point x="336.41072" y="947.27789"/>
			<point x="288.19595" y="942.37213"/>
			<point x="240.82047" y="935.01376" type="curve" smooth="yes"/>
			<point x="201.4402" y="928.89721"/>
			<point x="162.32325" y="921.08566"/>
			<point x="123.61403" y="911.60868" type="curve" smooth="yes"/>
			<point x="116.33376" y="909.82628"/>
			<point x="112.65942" y="902.65764"/>
			<point x="115.38752" y="895.676434" type="curve" smooth="yes"/>
			<point x="158.29349" y="785.880363" type="line" smooth="yes"/>
			<point x="162.46167" y="775.214015"/>
			<point x="173.28455" y="772.123236"/>
			<point x="182.77931" y="778.524333" type="curve" smooth="yes"/>
			<point x="201.49849" y="791.1442778"/>
			<point x="221.10315" y="802.4509128"/>
			<point x="241.40324" y="812.32915" type="curve" smooth="yes"/>
			<point x="283.04821" y="832.59403"/>
			<point x="328.77253" y="846.97574"/>
			<point x="375.023" y="844.554426" type="curve" smooth="yes"/>
			<point x="398.14824" y="843.343768"/>
			<point x="421.16471" y="837.867055"/>
			<point x="441.83327" y="827.424227" type="curve" smooth="yes"/>
			<point x="462.50184" y="816.981399"/>
			<point x="480.76083" y="801.4817275"/>
			<point x="493.42794" y="782.096514" type="curve" smooth="yes"/>
			<point x="509.52879" y="757.456456"/>
			<point x="516.08062" y="727.432832"/>
			<point x="515.86424" y="697.99947" type="curve" smooth="yes"/>
			<point x="515.64786" y="668.56611"/>
			<point x="509.00617" y="639.52981"/>
			<point x="500.44295" y="611.36883" type="curve" smooth="yes"/>
			<point x="475.07032" y="527.92841"/>
			<point x="432.71246" y="450.17292"/>
			<point x="410.64231" y="365.79886" type="curve" smooth="yes"/>
			<point x="388.77267" y="282.19132"/>
			<point x="387.89719" y="191.61634"/>
			<point x="418.38212" y="110.7512" type="curve" smooth="yes"/>
			<point x="427.51359" y="86.52882"/>
			<point x="439.52501" y="63.10014"/>
			<point x="456.53007" y="43.58258" type="curve" smooth="yes"/>
			<point x="473.53514" y="24.06501"/>
			<point x="495.84788" y="8.59676"/>
			<point x="521.03314" y="2.61261" type="curve" smooth="yes"/>
			<point x="540.9267" y="-2.11421"/>
			<point x="562.07506" y="-0.78008"/>
			<point x="581.56879" y="5.39172" type="curve" smooth="yes"/>
			<point x="601.06253" y="11.56352"/>
			<point x="618.91698" y="22.46944"/>
			<point x="634.06381" y="36.20517" type="curve" smooth="yes"/>
			<point x="664.35746" y="63.67663"/>
			<point x="683.35231" y="101.64696"/>
			<point x="695.59797" y="140.6653" type="curve" smooth="yes"/>
			<point x="714.73824" y="201.65194"/>
			<point x="718.81884" y="266.32759"/>
			<point x="718.91814" y="330.24715" type="curve" smooth="yes"/>
			<point x="719.00634" y="387.02971"/>
			<point x="715.98108" y="444.33485"/>
			<point x="701.18931" y="499.15702" type="curve" smooth="yes"/>
			<point x="686.39754" y="553.97919"/>
			<point x="659.07964" y="606.56448"/>
			<point x="616.59902" y="644.24291" type="curve" smooth="yes"/>
			<point x="590.50771" y="667.38475"/>
			<point x="558.99515" y="684.51492"/>
			<point x="525.1803" y="693.05058" type="curve" smooth="yes"/>
			<point x="491.36545" y="701.586244"/>
			<point x="455.29289" y="701.432298"/>
			<point x="421.76256" y="691.83966" type="curve" smooth="yes"/>
			<point x="389.80222" y="682.69618"/>
			<point x="360.39845" y="665.06096"/>
			<point x="336.80215" y="641.64557" type="curve" smooth="yes"/>
			<point x="313.20585" y="618.23017"/>
			<point x="295.41085" y="589.11765"/>
			<point x="284.68717" y="557.65229" type="curve" smooth="yes"/>
			<point x="262.62408" y="492.9149"/>
			<point x="270.8173" y="422.34486"/>
			<point x="277.46389" y="354.27481" type="curve" smooth="yes"/>
			<point x="280.58689" y="322.29109"/>
			<point x="283.31303" y="290.11525"/>
			<point x="281.15398" y="258.05204" type="curve" smooth="yes"/>
			<point x="278.99493" y="225.98882"/>
			<point x="271.75601" y="193.82644"/>
			<point x="256.0385" y="165.79661" type="curve" smooth="yes"/>
			<point x="250.362" y="155.67342"/>
			<point x="243.52825" y="146.05468"/>
			<point x="234.72667" y="138.48939" type="curve" smooth="yes"/>
			<point x="225.92508" y="130.9241"/>
			<point x="215.01466" y="125.49541"/>
			<point x="203.44777" y="124.54225" type="curve" smooth="yes"/>
			<point x="195.87701" y="123.91839"/>
			<point x="188.19902" y="125.22009"/>
			<point x="181.1055" y="127.93811" type="curve" smooth="yes"/>
			<point x="174.01198" y="130.65613"/>
			<point x="167.49233" y="134.76762"/>
			<point x="161.71432" y="139.69917" type="curve" smooth="yes"/>
			<point x="150.1583" y="149.56228"/>
			<point x="141.67571" y="162.51958"/>
			<point x="134.31715" y="175.81146" type="curve" smooth="yes"/>
			<point x="105.67274" y="227.55227"/>
			<point x="91.936138" y="286.98516"/>
			<point x="91.690556" y="346.12528" type="curve" smooth="yes"/>
			<point x="91.444975" y="405.26539"/>
			<point x="104.42639" y="464.10341"/>
			<point x="126.48009" y="518.97825" type="curve" smooth="yes"/>
			<point x="147.50843" y="571.30175"/>
			<point x="176.80955" y="620.28824"/>
			<point x="212.93657" y="663.5853" type="curve" smooth="yes"/>
			<point x="217.73845" y="669.34019"/>
			<point x="215.89581" y="675.47683"/>
			<point x="208.65908" y="677.42865" type="curve"/>
		</contour>
	</outline>
</glyph>
<glyph name="uni20A9" format="2">
	<unicode hex="20A9"/>
	<advance height="1024" width="876"/>
	<outline>
		<contour>
			<point x="275.94833" y="769.417283" type="line"/>
			<point x="141.28451" y="797.9652864" type="line" smooth="yes"/>
			<point x="135.98371" y="799.08902767"/>
			<point x="131.04989" y="795.6537319"/>
			<point x="130.27522" y="790.2907875" type="curve" smooth="yes"/>
			<point x="119.63632" y="716.638707"/>
			<point x="110.49508" y="642.77029"/>
			<point x="102.85911" y="568.7466" type="curve" smooth="yes"/>
			<point x="90.713662" y="451.00765"/>
			<point x="82.451754" y="331.30039"/>
			<point x="103.98534" y="214.91192" type="curve" smooth="yes"/>
			<point x="117.31006" y="142.89216"/>
			<point x="142.02497" y="72.99338"/>
			<point x="176.90942" y="8.59364" type="curve" smooth="yes"/>
			<point x="179.49026" y="3.82918"/>
			<point x="185.96973" y="0.75916"/>
			<point x="191.3068" y="1.69562" type="curve" smooth="yes"/>
			<point x="285.67396" y="18.25372" type="line" smooth="yes"/>
			<point x="291.01103" y="19.19018"/>
			<point x="296.7383" y="24.11267"/>
			<point x="298.46781" y="29.24786" type="curve" smooth="yes"/>
			<point x="325.18174" y="108.5656"/>
			<point x="352.18596" y="187.78557"/>
			<point x="379.47973" y="266.90566" type="curve" smooth="yes"/>
			<point x="404.86283" y="340.48703"/>
			<point x="430.49637" y="413.982"/>
			<point x="456.37975" y="487.38888" type="curve"/>
			<point x="382.02949" y="453.39313" type="line"/>
			<point x="399.47037" y="385.77424"/>
			<point x="419.0214" y="318.69964"/>
			<point x="440.64455" y="252.29981" type="curve" smooth="yes"/>
			<point x="467.41119" y="170.10549"/>
			<point x="497.35362" y="88.94543"/>
			<point x="530.38227" y="9.06135" type="curve" smooth="yes"/>
			<point x="532.45265" y="4.05387"/>
			<point x="538.46285" y="0.80324"/>
			<point x="543.7901" y="1.79408" type="curve" smooth="yes"/>
			<point x="660.29516" y="23.46355" type="line" smooth="yes"/>
			<point x="665.62241" y="24.45439"/>
			<point x="672.54549" y="28.79555"/>
			<point x="675.65677" y="33.23179" type="curve" smooth="yes"/>
			<point x="705.54835" y="75.85281"/>
			<point x="728.46699" y="123.35696"/>
			<point x="743.19753" y="173.28874" type="curve" smooth="yes"/>
			<point x="768.56263" y="259.26827"/>
			<point x="769.40228" y="350.57191"/>
			<point x="763.53293" y="440.02256" type="curve" smooth="yes"/>
			<point x="755.77043" y="558.3254"/>
			<point x="736.6032" y="675.87699"/>
			<point x="706.38893" y="790.5193997" type="curve" smooth="yes"/>
			<point x="705.008" y="795.7590803"/>
			<point x="699.92662" y="798.0512169"/>
			<point x="695.07046" y="795.6472712" type="curve" smooth="yes"/>
			<point x="585.19787" y="741.25708" type="line" smooth="yes"/>
			<point x="580.34171" y="738.853134"/>
			<point x="578.65302" y="733.130161"/>
			<point x="581.34639" y="728.428407" type="curve" smooth="yes"/>
			<point x="631.74114" y="640.45538"/>
			<point x="661.38609" y="540.6671"/>
			<point x="667.11705" y="439.43965" type="curve" smooth="yes"/>
			<point x="672.28624" y="348.13485"/>
			<point x="658.07818" y="255.78601"/>
			<point x="625.76362" y="170.23453" type="curve" smooth="yes"/>
			<point x="608.13184" y="123.5551"/>
			<point x="585.1679" y="78.89211"/>
			<point x="557.46157" y="37.39261" type="curve"/>
			<point x="640.18245" y="62.64448" type="line"/>
			<point x="627.93817" y="80.95467"/>
			<point x="616.45743" y="99.77543"/>
			<point x="605.78006" y="119.04144" type="curve" smooth="yes"/>
			<point x="571.70006" y="180.53465"/>
			<point x="545.94704" y="246.29308"/>
			<point x="523.21072" y="312.82068" type="curve" smooth="yes"/>
			<point x="498.0527" y="386.43429"/>
			<point x="476.46015" y="461.2663"/>
			<point x="458.53336" y="536.96648" type="curve" smooth="yes"/>
			<point x="457.2847" y="542.23925"/>
			<point x="452.16781" y="545.0059"/>
			<point x="447.08049" y="543.1403" type="curve" smooth="yes"/>
			<point x="372.83316" y="515.91273" type="line" smooth="yes"/>
			<point x="367.23811" y="513.86094"/>
			<point x="361.57883" y="507.49905"/>
			<point x="360.16842" y="501.70896" type="curve" smooth="yes"/>
			<point x="349.33046" y="457.21639"/>
			<point x="337.42488" y="412.98387"/>
			<point x="324.46528" y="369.06235" type="curve" smooth="yes"/>
			<point x="292.56079" y="260.93447"/>
			<point x="254.26239" y="154.69357"/>
			<point x="209.83675" y="51.07939" type="curve"/>
			<point x="272.00586" y="74.56175" type="line"/>
			<point x="255.55947" y="103.61588"/>
			<point x="241.40868" y="133.96906"/>
			<point x="229.72875" y="165.24534" type="curve" smooth="yes"/>
			<point x="189.88405" y="271.94071"/>
			<point x="179.42872" y="388.86813"/>
			<point x="195.24869" y="501.65656" type="curve" smooth="yes"/>
			<point x="207.86576" y="591.60994"/>
			<point x="237.01159" y="679.21554"/>
			<point x="280.76371" y="758.815984" type="curve" smooth="yes"/>
			<point x="283.37373" y="763.564527"/>
			<point x="281.24913" y="768.293541"/>
			<point x="275.94833" y="769.417283" type="curve"/>
		</contour>
		<contour>
			<point x="8.9497682" y="386.48875" type="line"/>
			<point x="854.39195" y="378.88443" type="line" smooth="yes"/>
			<point x="860.8059690204" y="378.8267380053"/>
			<point x="866.1166882366" y="383.852806397"/>
			<point x="866.41207" y="390.26028" type="curve" smooth="yes"/>
			<point x="868.9912" y="446.20823" type="line" smooth="yes"/>
			<point x="869.1294276474" y="449.2067819805"/>
			<point x="868.0373682417" y="452.1317720728"/>
			<point x="865.9678400649" y="454.3060475816" type="curve" smooth="yes"/>
			<point x="863.8983118882" y="456.4803230904"/>
			<point x="861.0307600694" y="457.7153564307"/>
			<point x="858.02904" y="457.72523" type="curve" smooth="yes"/>
			<point x="10.223797" y="460.51354" type="line" smooth="yes"/>
			<point x="3.851573267" y="460.534497349"/>
			<point x="-1.3556889906" y="455.4329435732"/>
			<point x="-1.4654062" y="449.06163" type="curve" smooth="yes"/>
			<point x="-2.3433118" y="398.08181" type="line" smooth="yes"/>
			<point x="-2.395638397" y="395.0432691346"/>
			<point x="-1.2322919025" y="392.109663125"/>
			<point x="0.8882507763" y="389.9327921112" type="curve" smooth="yes"/>
			<point x="3.0087934552" y="387.7559210975"/>
			<point x="5.9108997315" y="386.5160830246"/>
			<point x="8.9497682" y="386.48875" type="curve" smooth="yes"/>
		</contour>
		<contour>
			<point x="11.56216" y="258.99503" type="line"/>
			<point x="857.00434" y="251.39071" type="line" smooth="yes"/>
			<point x="863.4183590204" y="251.3330180053"/>
			<point x="868.7290782366" y="256.359086397"/>
			<point x="869.02446" y="262.76656" type="curve" smooth="yes"/>
			<point x="871.60359" y="318.71451" type="line" smooth="yes"/>
			<point x="871.7418176474" y="321.7130619805"/>
			<point x="870.6497582417" y="324.6380520728"/>
			<point x="868.5802300649" y="326.8123275816" type="curve" smooth="yes"/>
			<point x="866.5107018882" y="328.9866030904"/>
			<point x="863.6431500694" y="330.2216364307"/>
			<point x="860.64143" y="330.23151" type="curve" smooth="yes"/>
			<point x="12.836183" y="333.01982" type="line" smooth="yes"/>
			<point x="6.4639594365" y="333.0407773409"/>
			<point x="1.256697469" y="327.939223413"/>
			<point x="1.1469808" y="321.56791" type="curve" smooth="yes"/>
			<point x="0.26907922" y="270.58809" type="line" smooth="yes"/>
			<point x="0.2167528928" y="267.5495490789"/>
			<point x="1.3800995823" y="264.6159431067"/>
			<point x="3.5006423719" y="262.4390721295" type="curve" smooth="yes"/>
			<point x="5.6211851615" y="260.2622011524"/>
			<point x="8.5232914809" y="259.022363086"/>
			<point x="11.56216" y="258.99503" type="curve" smooth="yes"/>
		</contour>
	</outline>
</glyph>
<glyph name="ml_ba_sign_vocalic_r" format="2">
	<advance height="1024" width="1025"/>
	<outline>
		<contour>
			<point x="447.88217" y="12.57585" type="line"/>
			<point x="424.7785" y="94.86467" type="line" smooth="yes"/>
			<point x="422.82847" y="101.81012"/>
			<point x="427.06981" y="108.0127"/>
			<point x="434.21653" y="108.99307" type="curve" smooth="yes"/>
			<point x="483.2727" y="115.72251"/>
			<point x="531.00802" y="132.01615"/>
			<point x="573.91228" y="156.74044" type="curve" smooth="yes"/>
			<point x="611.89783" y="178.63025"/>
			<point x="646.39318" y="207.41713"/>
			<point x="671.41667" y="243.41562" type="curve" smooth="yes"/>
			<point x="696.44015" y="279.4141"/>
			<point x="711.59818" y="322.91384"/>
			<point x="710.31556" y="366.73644" type="curve" smooth="yes"/>
			<point x="709.61003" y="390.84181"/>
			<point x="703.85736" y="415.06111"/>
			<point x="691.59458" y="435.82624" type="curve" smooth="yes"/>
			<point x="679.3318" y="456.59137"/>
			<point x="660.28243" y="473.70052"/>
			<point x="637.49289" y="481.58742" type="curve" smooth="yes"/>
			<point x="613.13815" y="490.016"/>
			<point x="585.49342" y="487.41932"/>
			<point x="562.39449" y="475.9898" type="curve" smooth="yes"/>
			<point x="539.29557" y="464.56028"/>
			<point x="520.7731" y="444.69396"/>
			<point x="509.51298" y="421.51199" type="curve" smooth="yes"/>
			<point x="492.52203" y="386.53157"/>
			<point x="491.97827" y="345.90674"/>
			<point x="495.37998" y="307.16722" type="curve" smooth="yes"/>
			<point x="497.83833" y="279.1709"/>
			<point x="502.17809" y="251.34003"/>
			<point x="508.35775" y="223.92384" type="curve" smooth="yes"/>
			<point x="509.94398" y="216.88652"/>
			<point x="505.52085" y="211.4922"/>
			<point x="498.31512" y="211.83758" type="curve" smooth="yes"/>
			<point x="377.93318" y="217.6077" type="line" smooth="yes"/>
			<point x="370.72745" y="217.95308"/>
			<point x="366.68359" y="223.80057"/>
			<point x="368.61717" y="230.75019" type="curve" smooth="yes"/>
			<point x="373.12707" y="246.95952"/>
			<point x="376.48967" y="263.48808"/>
			<point x="378.66838" y="280.17148" type="curve" smooth="yes"/>
			<point x="385.55091" y="332.87415"/>
			<point x="380.21563" y="387.94957"/>
			<point x="357.6281" y="436.06136" type="curve" smooth="yes"/>
			<point x="342.75543" y="467.74038"/>
			<point x="320.53237" y="495.99654"/>
			<point x="292.9725" y="517.56528" type="curve" smooth="yes"/>
			<point x="274.82662" y="531.7665"/>
			<point x="254.19039" y="543.15573"/>
			<point x="231.8204" y="548.68124" type="curve" smooth="yes"/>
			<point x="209.45041" y="554.20675"/>
			<point x="185.2602" y="553.61713"/>
			<point x="163.94895" y="544.85481" type="curve" smooth="yes"/>
			<point x="142.16617" y="535.89861"/>
			<point x="124.33775" y="518.84739"/>
			<point x="111.62151" y="499.02316" type="curve" smooth="yes"/>
			<point x="98.905272" y="479.19893"/>
			<point x="90.981521" y="456.65624"/>
			<point x="85.229358" y="433.81734" type="curve" smooth="yes"/>
			<point x="67.944515" y="365.18804"/>
			<point x="69.751528" y="291.6538"/>
			<point x="91.78716" y="224.39923" type="curve" smooth="yes"/>
			<point x="103.42608" y="188.87628"/>
			<point x="121.69864" y="153.85649"/>
			<point x="152.11613" y="132.12814" type="curve" smooth="yes"/>
			<point x="164.79454" y="123.07147"/>
			<point x="179.3947" y="116.55813"/>
			<point x="194.76606" y="114.01124" type="curve" smooth="yes"/>
			<point x="210.13742" y="111.46435"/>
			<point x="226.2758" y="112.9759"/>
			<point x="240.59734" y="119.11258" type="curve" smooth="yes"/>
			<point x="249.91184" y="123.10378"/>
			<point x="258.44779" y="129.05885"/>
			<point x="264.98493" y="136.80194" type="curve" smooth="yes"/>
			<point x="271.52206" y="144.54502"/>
			<point x="276.00365" y="154.10585"/>
			<point x="277.21984" y="164.16619" type="curve" smooth="yes"/>
			<point x="278.64662" y="175.96859"/>
			<point x="275.53248" y="188.09108"/>
			<point x="269.52705" y="198.35106" type="curve" smooth="yes"/>
			<point x="263.52161" y="208.61104"/>
			<point x="254.74514" y="217.08055"/>
			<point x="244.87062" y="223.70069" type="curve" smooth="yes"/>
			<point x="220.69795" y="239.90667"/>
			<point x="189.22837" y="244.97609"/>
			<point x="161.36056" y="236.58937" type="curve" smooth="yes"/>
			<point x="141.65791" y="230.65992"/>
			<point x="123.97221" y="218.22534"/>
			<point x="111.72537" y="201.6915" type="curve" smooth="yes"/>
			<point x="99.47853" y="185.15766"/>
			<point x="92.738096" y="164.61577"/>
			<point x="92.80823" y="144.04035" type="curve"/>
			<point x="28" y="276.85971" type="line"/>
			<point x="64.165532" y="308.28272"/>
			<point x="110.46064" y="327.85844"/>
			<point x="158.19853" y="331.9137" type="curve" smooth="yes"/>
			<point x="196.19655" y="335.14157"/>
			<point x="235.70114" y="328.35725"/>
			<point x="268.1973" y="308.40058" type="curve" smooth="yes"/>
			<point x="290.61701" y="294.6321"/>
			<point x="309.16221" y="274.95284"/>
			<point x="322.89894" y="252.51366" type="curve" smooth="yes"/>
			<point x="336.63567" y="230.07447"/>
			<point x="345.65801" y="204.92312"/>
			<point x="350.84025" y="179.12856" type="curve" smooth="yes"/>
			<point x="356.49713" y="150.97151"/>
			<point x="357.60231" y="121.54826"/>
			<point x="350.70552" y="93.66898" type="curve" smooth="yes"/>
			<point x="343.80873" y="65.7897"/>
			<point x="328.47323" y="39.52141"/>
			<point x="305.46729" y="22.32994" type="curve" smooth="yes"/>
			<point x="277.84725" y="1.69054"/>
			<point x="240.87684" y="-4.36594"/>
			<point x="207.03827" y="2.2524" type="curve" smooth="yes"/>
			<point x="173.1997" y="8.87075"/>
			<point x="142.41685" y="27.28252"/>
			<point x="117.2901" y="50.89392" type="curve" smooth="yes"/>
			<point x="84.258326" y="81.93361"/>
			<point x="60.421823" y="121.75665"/>
			<point x="43.22892" y="163.69666" type="curve" smooth="yes"/>
			<point x="-3.2524153" y="277.08227"/>
			<point x="-2.2296396" y="406.22011"/>
			<point x="29.491432" y="524.58642" type="curve" smooth="yes"/>
			<point x="39.799505" y="563.05071"/>
			<point x="53.509003" y="601.22258"/>
			<point x="76.581614" y="633.6789" type="curve" smooth="yes"/>
			<point x="99.654224" y="666.13522"/>
			<point x="133.06694" y="692.61286"/>
			<point x="172.0268" y="700.852239" type="curve" smooth="yes"/>
			<point x="209.53169" y="708.78391"/>
			<point x="249.33572" y="699.17315"/>
			<point x="282.49237" y="679.93348" type="curve" smooth="yes"/>
			<point x="315.64902" y="660.69382"/>
			<point x="342.75686" y="632.43316"/>
			<point x="365.93652" y="601.9007" type="curve" smooth="yes"/>
			<point x="423.257" y="526.39763"/>
			<point x="458.81488" y="434.5648"/>
			<point x="467.28781" y="340.14785" type="curve"/>
			<point x="411.64151" y="343.61665" type="line"/>
			<point x="420.09217" y="392.38971"/>
			<point x="435.53445" y="439.94589"/>
			<point x="457.34948" y="484.37932" type="curve" smooth="yes"/>
			<point x="478.6804" y="527.8267"/>
			<point x="506.91042" y="569.12406"/>
			<point x="546.29023" y="597.26502" type="curve" smooth="yes"/>
			<point x="565.98013" y="611.33551"/>
			<point x="588.30897" y="621.91448"/>
			<point x="611.96828" y="627.00447" type="curve" smooth="yes"/>
			<point x="635.62758" y="632.09446"/>
			<point x="660.62798" y="631.58595"/>
			<point x="683.71628" y="624.3333" type="curve" smooth="yes"/>
			<point x="705.11259" y="617.61215"/>
			<point x="724.56997" y="605.20186"/>
			<point x="740.40774" y="589.32292" type="curve" smooth="yes"/>
			<point x="756.24551" y="573.44397"/>
			<point x="768.51099" y="554.15824"/>
			<point x="777.11654" y="533.44784" type="curve" smooth="yes"/>
			<point x="794.32763" y="492.02705"/>
			<point x="796.78617" y="445.71577"/>
			<point x="791.83379" y="401.13576" type="curve" smooth="yes"/>
			<point x="782.61045" y="318.1097"/>
			<point x="748.18453" y="238.48191"/>
			<point x="696.49593" y="172.85658" type="curve" smooth="yes"/>
			<point x="646.02583" y="108.77828"/>
			<point x="579.12116" y="57.75487"/>
			<point x="503.9743" y="26.03408" type="curve"/>
			<point x="479.73135" y="83.28427" type="line"/>
			<point x="561.92822" y="67.0578"/>
			<point x="646.67936" y="63.83994"/>
			<point x="729.86999" y="73.78692" type="curve" smooth="yes"/>
			<point x="752.05729" y="76.43982"/>
			<point x="774.26338" y="80.05389"/>
			<point x="795.39423" y="87.32037" type="curve" smooth="yes"/>
			<point x="816.52508" y="94.58684"/>
			<point x="836.65356" y="105.67871"/>
			<point x="852.21533" y="121.71447" type="curve" smooth="yes"/>
			<point x="868.2218" y="138.20847"/>
			<point x="878.85954" y="159.40538"/>
			<point x="885.01336" y="181.55012" type="curve" smooth="yes"/>
			<point x="891.16718" y="203.69486"/>
			<point x="893.01596" y="226.83424"/>
			<point x="893.07381" y="249.81805" type="curve" smooth="yes"/>
			<point x="893.33712" y="354.43821"/>
			<point x="857.32667" y="455.87383"/>
			<point x="849.20109" y="560.1783" type="curve" smooth="yes"/>
			<point x="845.38124" y="609.21207"/>
			<point x="847.78371" y="658.72629"/>
			<point x="856.31562" y="707.162422" type="curve" smooth="yes"/>
			<point x="857.56706" y="714.266899"/>
			<point x="864.38097" y="718.510852"/>
			<point x="871.35718" y="716.673894" type="curve" smooth="yes"/>
			<point x="1003.359" y="681.91551" type="line" smooth="yes"/>
			<point x="1010.3352" y="680.07855"/>
			<point x="1013.3335" y="673.37855"/>
			<point x="1010.2344" y="666.86433" type="curve" smooth="yes"/>
			<point x="981.65301" y="606.78636"/>
			<point x="964.36105" y="541.35173"/>
			<point x="959.58587" y="474.99072" type="curve" smooth="yes"/>
			<point x="952.09824" y="370.93461"/>
			<point x="975.02756" y="267.33757"/>
			<point x="982.08245" y="163.25123" type="curve" smooth="yes"/>
			<point x="983.60736" y="140.75306"/>
			<point x="984.3754" y="117.9815"/>
			<point x="980.25764" y="95.81087" type="curve" smooth="yes"/>
			<point x="976.13988" y="73.64024"/>
			<point x="966.76211" y="51.89582"/>
			<point x="950.4964" y="36.27789" type="curve" smooth="yes"/>
			<point x="936.9021" y="23.22498"/>
			<point x="919.17783" y="15.07993"/>
			<point x="900.90278" y="10.47495" type="curve" smooth="yes"/>
			<point x="882.62773" y="5.86997"/>
			<point x="863.69035" y="4.60708"/>
			<point x="844.86051" y="3.81946" type="curve" smooth="yes"/>
			<point x="764.2033" y="0.44572"/>
			<point x="683.44805" y="5.44488"/>
			<point x="602.72038" y="5.54821" type="curve" smooth="yes"/>
			<point x="556.59266" y="5.60721"/>
			<point x="510.46292" y="4.06672"/>
			<point x="464.4419" y="0.93068" type="curve" smooth="yes"/>
			<point x="457.2446" y="0.44023"/>
			<point x="449.8322" y="5.6304"/>
			<point x="447.88217" y="12.57585" type="curve"/>
		</contour>
		<contour>
			<point x="983.1795" y="144.83751" type="line"/>
			<point x="986.57112" y="116.61529"/>
			<point x="988.08007" y="88.16697"/>
			<point x="987.693" y="59.74432" type="curve" smooth="yes"/>
			<point x="987.02326" y="10.56515"/>
			<point x="980.2066" y="-39.94721"/>
			<point x="955.9783" y="-82.74942" type="curve" smooth="yes"/>
			<point x="931.48722" y="-126.01587"/>
			<point x="890.2868" y="-158.5777"/>
			<point x="844.21397" y="-177.26174" type="curve" smooth="yes"/>
			<point x="798.14114" y="-195.94578"/>
			<point x="747.42253" y="-201.3869"/>
			<point x="697.8086" y="-198.1843" type="curve" smooth="yes"/>
			<point x="666.9621" y="-196.19314"/>
			<point x="635.37967" y="-190.58194"/>
			<point x="609.35428" y="-173.90411" type="curve" smooth="yes"/>
			<point x="596.34158" y="-165.56519"/>
			<point x="584.94471" y="-154.49017"/>
			<point x="577.16698" y="-141.13446" type="curve" smooth="yes"/>
			<point x="569.38925" y="-127.77876"/>
			<point x="565.35467" y="-112.09216"/>
			<point x="566.7966" y="-96.70422" type="curve" smooth="yes"/>
			<point x="567.98819" y="-83.98789"/>
			<point x="572.87296" y="-71.73016"/>
			<point x="580.17254" y="-61.24965" type="curve" smooth="yes"/>
			<point x="587.47212" y="-50.76915"/>
			<point x="597.13429" y="-42.03326"/>
			<point x="607.91947" y="-35.19186" type="curve" smooth="yes"/>
			<point x="629.48984" y="-21.50905"/>
			<point x="655.05648" y="-15.50652"/>
			<point x="680.4033" y="-12.33817" type="curve" smooth="yes"/>
			<point x="763.65263" y="-1.932"/>
			<point x="850.25732" y="-20.65152"/>
			<point x="921.7772" y="-64.51091" type="curve"/>
			<point x="839.4595" y="-133.2408" type="line"/>
			<point x="829.77096" y="-126.8753"/>
			<point x="820.07268" y="-120.52463"/>
			<point x="810.3647" y="-114.18882" type="curve" smooth="yes"/>
			<point x="791.78473" y="-102.06281"/>
			<point x="773.0423" y="-89.92348"/>
			<point x="752.57115" y="-81.36851" type="curve" smooth="yes"/>
			<point x="732.1" y="-72.81355"/>
			<point x="709.59553" y="-67.95432"/>
			<point x="687.6245" y="-71.04127" type="curve" smooth="yes"/>
			<point x="680.18785" y="-72.08613"/>
			<point x="672.70052" y="-74.11307"/>
			<point x="666.59526" y="-78.48587" type="curve" smooth="yes"/>
			<point x="663.54264" y="-80.67226"/>
			<point x="660.87651" y="-83.43425"/>
			<point x="658.98625" y="-86.6786" type="curve" smooth="yes"/>
			<point x="657.09599" y="-89.92294"/>
			<point x="656.00043" y="-93.65818"/>
			<point x="656.0554" y="-97.41262" type="curve" smooth="yes"/>
			<point x="656.1193" y="-101.77365"/>
			<point x="657.73804" y="-106.04515"/>
			<point x="660.30863" y="-109.56861" type="curve" smooth="yes"/>
			<point x="662.87921" y="-113.09208"/>
			<point x="666.36795" y="-115.89014"/>
			<point x="670.2099" y="-117.95464" type="curve" smooth="yes"/>
			<point x="677.89378" y="-122.08365"/>
			<point x="686.77208" y="-123.28267"/>
			<point x="695.4489" y="-124.1791" type="curve" smooth="yes"/>
			<point x="732.95834" y="-128.05434"/>
			<point x="771.56863" y="-127.45506"/>
			<point x="807.4375" y="-115.81889" type="curve" smooth="yes"/>
			<point x="843.30636" y="-104.18272"/>
			<point x="876.33692" y="-80.48987"/>
			<point x="893.4555" y="-46.89031" type="curve" smooth="yes"/>
			<point x="907.97205" y="-18.3979"/>
			<point x="910.16268" y="14.67133"/>
			<point x="910.0868" y="46.64854" type="curve" smooth="yes"/>
			<point x="909.96771" y="96.83192"/>
			<point x="904.94366" y="147.00246"/>
			<point x="895.1095" y="196.21298" type="curve"/>
		</contour>
	</outline>
	<anchor name="bottom" x="898.52863" y="6.60742"/>
	<anchor name="right" x="999.57214" y="-3.71216"/>
</glyph>
<glyph name="ml_bha_sign_u" format="2">
	<advance height="1024" width="568"/>
	<outline>
		<contour>
			<point x="136.82969" y="72.44082" type="line"/>
			<point x="16.921436" y="59.91129" type="line" smooth="yes"/>
			<point x="8.6805543" y="59.05018"/>
			<point x="3.7712223" y="64.83216"/>
			<point x="5.7749587" y="72.87183" type="curve" smooth="yes"/>
			<point x="23.641255" y="144.5575"/>
			<point x="30.81766" y="218.90165"/>
			<point x="26.960785" y="292.68059" type="curve" smooth="yes"/>
			<point x="24.938917" y="331.35731"/>
			<point x="19.912153" y="369.8436"/>
			<point x="18.409801" y="408.54398" type="curve" smooth="yes"/>
			<point x="16.90745" y="447.24436"/>
			<point x="19.034281" y="486.59166"/>
			<point x="30.940259" y="523.44575" type="curve" smooth="yes"/>
			<point x="48.907608" y="579.06237"/>
			<point x="89.017222" y="626.45817"/>
			<point x="138.87168" y="656.96338" type="curve" smooth="yes"/>
			<point x="188.72613" y="687.46859"/>
			<point x="247.79035" y="701.554706"/>
			<point x="306.23511" y="701.060643" type="curve" smooth="yes"/>
			<point x="346.91813" y="700.716729"/>
			<point x="388.20122" y="693.25525"/>
			<point x="423.97988" y="673.88739" type="curve" smooth="yes"/>
			<point x="459.75854" y="654.51954"/>
			<point x="489.60405" y="622.35373"/>
			<point x="500.93353" y="583.27856" type="curve" smooth="yes"/>
			<point x="510.55896" y="550.08064"/>
			<point x="506.37188" y="513.80436"/>
			<point x="493.31747" y="481.79916" type="curve" smooth="yes"/>
			<point x="483.93526" y="458.79701"/>
			<point x="469.92079" y="437.46573"/>
			<point x="451.20545" y="421.12986" type="curve" smooth="yes"/>
			<point x="432.49011" y="404.79398"/>
			<point x="408.93751" y="393.6429"/>
			<point x="384.19781" y="391.39085" type="curve" smooth="yes"/>
			<point x="372.25653" y="390.30384"/>
			<point x="360.01862" y="391.2361"/>
			<point x="348.45274" y="388.07285" type="curve" smooth="yes"/>
			<point x="342.66981" y="386.49122"/>
			<point x="337.09314" y="383.84822"/>
			<point x="332.67898" y="379.79124" type="curve" smooth="yes"/>
			<point x="328.26482" y="375.73426"/>
			<point x="325.08563" y="370.17928"/>
			<point x="324.53213" y="364.20956" type="curve" smooth="yes"/>
			<point x="324.19506" y="360.57409"/>
			<point x="324.83153" y="356.86886"/>
			<point x="326.23933" y="353.50013" type="curve" smooth="yes"/>
			<point x="327.64713" y="350.1314"/>
			<point x="329.81486" y="347.09778"/>
			<point x="332.4538" y="344.57463" type="curve" smooth="yes"/>
			<point x="337.73166" y="339.52832"/>
			<point x="344.78303" y="336.60456"/>
			<point x="351.98238" y="335.38376" type="curve" smooth="yes"/>
			<point x="366.38109" y="332.94216"/>
			<point x="380.98098" y="336.93132"/>
			<point x="395.50295" y="338.47942" type="curve" smooth="yes"/>
			<point x="426.91377" y="341.82795"/>
			<point x="459.24969" y="333.35652"/>
			<point x="485.66934" y="316.04022" type="curve" smooth="yes"/>
			<point x="512.089" y="298.72392"/>
			<point x="532.56873" y="272.82503"/>
			<point x="544.47885" y="243.56752" type="curve" smooth="yes"/>
			<point x="560.80459" y="203.46293"/>
			<point x="560.89881" y="157.24295"/>
			<point x="545.91123" y="116.6193" type="curve" smooth="yes"/>
			<point x="530.92365" y="75.99566"/>
			<point x="501.21514" y="41.20182"/>
			<point x="464.08138" y="18.93094" type="curve" smooth="yes"/>
			<point x="428.42761" y="-2.45232"/>
			<point x="387.03893" y="-12.27642"/>
			<point x="345.8883" y="-18.19761" type="curve" smooth="yes"/>
			<point x="304.73766" y="-24.1188"/>
			<point x="263.0622" y="-26.44701"/>
			<point x="222.24208" y="-34.33074" type="curve" smooth="yes"/>
			<point x="199.16367" y="-38.78795"/>
			<point x="176.42692" y="-45.0131"/>
			<point x="154.29674" y="-52.93366" type="curve"/>
			<point x="134.49256" y="0" type="line"/>
			<point x="205.22239" y="-35.27517"/>
			<point x="285.15785" y="-51.88648"/>
			<point x="364.08577" y="-47.71154" type="curve" smooth="yes"/>
			<point x="430.59408" y="-44.19354"/>
			<point x="496.27623" y="-25.97683"/>
			<point x="555.13787" y="5.17368" type="curve" smooth="yes"/>
			<point x="562.46098" y="9.04918"/>
			<point x="568.27978" y="5.69209"/>
			<point x="568.27978" y="-2.59366" type="curve" smooth="yes"/>
			<point x="568.27978" y="-107.42412" type="line" smooth="yes"/>
			<point x="568.27978" y="-115.70987"/>
			<point x="561.83725" y="-124.33998"/>
			<point x="553.792" y="-126.31918" type="curve" smooth="yes"/>
			<point x="522.71588" y="-133.96414"/>
			<point x="490.6023" y="-137.39025"/>
			<point x="458.61281" y="-136.44897" type="curve" smooth="yes"/>
			<point x="403.98176" y="-134.84147"/>
			<point x="350.62186" y="-120.67222"/>
			<point x="297.45578" y="-108.00321" type="curve" smooth="yes"/>
			<point x="244.2897" y="-95.33421"/>
			<point x="189.87239" y="-84.02051"/>
			<point x="135.38235" y="-88.25973" type="curve" smooth="yes"/>
			<point x="102.681" y="-90.80383"/>
			<point x="70.431344" y="-99.0076"/>
			<point x="40.470872" y="-112.35333" type="curve" smooth="yes"/>
			<point x="32.902942" y="-115.72442"/>
			<point x="25.527346" y="-112.24635"/>
			<point x="23.793679" y="-104.144" type="curve" smooth="yes"/>
			<point x="3.3104247" y="-8.41483" type="line" smooth="yes"/>
			<point x="1.5767583" y="-0.31248"/>
			<point x="6.1421565" y="9.3387"/>
			<point x="13.65579" y="12.83026" type="curve" smooth="yes"/>
			<point x="50.063845" y="29.74896"/>
			<point x="88.997832" y="41.22841"/>
			<point x="128.76637" y="46.73618" type="curve" smooth="yes"/>
			<point x="194.69083" y="55.86644"/>
			<point x="261.84202" y="48.6352"/>
			<point x="328.15295" y="54.31465" type="curve" smooth="yes"/>
			<point x="359.797" y="57.02492"/>
			<point x="391.68249" y="62.84108"/>
			<point x="420.08405" y="77.05527" type="curve" smooth="yes"/>
			<point x="448.4856" y="91.26947"/>
			<point x="473.26891" y="114.71496"/>
			<point x="483.92915" y="144.63236" type="curve" smooth="yes"/>
			<point x="490.4265" y="162.86682"/>
			<point x="491.43043" y="183.12159"/>
			<point x="486.11929" y="201.73618" type="curve" smooth="yes"/>
			<point x="480.80815" y="220.35077"/>
			<point x="469.10016" y="237.18707"/>
			<point x="453.11551" y="248.10504" type="curve" smooth="yes"/>
			<point x="433.0327" y="261.82217"/>
			<point x="407.83041" y="265.612"/>
			<point x="383.52537" y="266.4745" type="curve" smooth="yes"/>
			<point x="359.22033" y="267.337"/>
			<point x="334.66845" y="265.66223"/>
			<point x="310.73773" y="269.99809" type="curve" smooth="yes"/>
			<point x="285.29815" y="274.60733"/>
			<point x="260.765" y="286.37218"/>
			<point x="243.21987" y="305.36128" type="curve" smooth="yes"/>
			<point x="225.67474" y="324.35038"/>
			<point x="215.73633" y="350.86615"/>
			<point x="219.17174" y="376.49066" type="curve" smooth="yes"/>
			<point x="222.06955" y="398.10518"/>
			<point x="234.29126" y="418.03055"/>
			<point x="251.31847" y="431.65623" type="curve" smooth="yes"/>
			<point x="268.34567" y="445.28191"/>
			<point x="289.8956" y="452.76729"/>
			<point x="311.65445" y="454.22932" type="curve" smooth="yes"/>
			<point x="326.42762" y="455.22197"/>
			<point x="341.26605" y="453.55038"/>
			<point x="356.05889" y="454.18602" type="curve" smooth="yes"/>
			<point x="370.85172" y="454.82162"/>
			<point x="386.1938" y="458.0816"/>
			<point x="397.60697" y="467.51408" type="curve" smooth="yes"/>
			<point x="408.1318" y="476.21239"/>
			<point x="414.2918" y="489.5981"/>
			<point x="415.38937" y="503.20795" type="curve" smooth="yes"/>
			<point x="416.48693" y="516.8178"/>
			<point x="412.78419" y="530.57069"/>
			<point x="406.18654" y="542.52492" type="curve" smooth="yes"/>
			<point x="398.21001" y="556.97754"/>
			<point x="386.06506" y="568.96895"/>
			<point x="371.95154" y="577.53117" type="curve" smooth="yes"/>
			<point x="357.83801" y="586.09338"/>
			<point x="341.80341" y="591.28926"/>
			<point x="325.44808" y="593.52678" type="curve" smooth="yes"/>
			<point x="292.73743" y="598.0018"/>
			<point x="259.42314" y="590.77965"/>
			<point x="228.37809" y="579.54498" type="curve" smooth="yes"/>
			<point x="203.13174" y="570.40876"/>
			<point x="178.71891" y="558.51649"/>
			<point x="157.2301" y="542.42053" type="curve" smooth="yes"/>
			<point x="135.74129" y="526.32457"/>
			<point x="117.21528" y="505.88903"/>
			<point x="105.22384" y="481.86708" type="curve" smooth="yes"/>
			<point x="88.171242" y="447.70633"/>
			<point x="85.094024" y="407.99956"/>
			<point x="89.104633" y="370.03032" type="curve" smooth="yes"/>
			<point x="93.115242" y="332.06108"/>
			<point x="103.81072" y="295.17487"/>
			<point x="113.1451" y="258.15302" type="curve" smooth="yes"/>
			<point x="122.49796" y="221.05788"/>
			<point x="130.5193" y="183.6387"/>
			<point x="138.01349" y="146.12387" type="curve" smooth="yes"/>
			<point x="141.82815" y="127.02823"/>
			<point x="145.50679" y="107.90541"/>
			<point x="149.04904" y="88.75737" type="curve" smooth="yes"/>
			<point x="150.55627" y="80.60986"/>
			<point x="145.07058" y="73.30197"/>
			<point x="136.82969" y="72.44086" type="curve"/>
		</contour>
	</outline>
</glyph>
<glyph name="ml_bha_virama_ra" format="2">
	<advance height="1024" width="736"/>
	<outline>
		<contour>
			<point x="327.9759" y="3.33078" type="line"/>
			<point x="214.96649" y="33.39878" type="line" smooth="yes"/>
			<point x="208.05265" y="35.23832"/>
			<point x="203.69332" y="42.3951"/>
			<point x="205.03792" y="49.42181" type="curve" smooth="yes"/>
			<point x="213.94654" y="95.97719"/>
			<point x="216.61019" y="143.7257"/>
			<point x="212.91452" y="190.98211" type="curve" smooth="yes"/>
			<point x="208.54624" y="246.83922"/>
			<point x="195.39815" y="301.61565"/>
			<point x="187.90775" y="357.14034" type="curve" smooth="yes"/>
			<point x="180.41735" y="412.66504"/>
			<point x="178.80939" y="470.43283"/>
			<point x="196.94026" y="523.44575" type="curve" smooth="yes"/>
			<point x="215.81495" y="578.63352"/>
			<point x="255.78363" y="625.70579"/>
			<point x="305.4277" y="656.32295" type="curve" smooth="yes"/>
			<point x="355.07177" y="686.94011"/>
			<point x="413.91033" y="701.465755"/>
			<point x="472.23511" y="701.060643" type="curve" smooth="yes"/>
			<point x="512.89022" y="700.778261"/>
			<point x="554.1312" y="693.18462"/>
			<point x="589.84713" y="673.76066" type="curve" smooth="yes"/>
			<point x="625.56306" y="654.3367"/>
			<point x="655.33269" y="622.24442"/>
			<point x="666.93353" y="583.27856" type="curve" smooth="yes"/>
			<point x="676.81157" y="550.09937"/>
			<point x="673.03319" y="513.58458"/>
			<point x="659.31747" y="481.79916" type="curve" smooth="yes"/>
			<point x="639.31938" y="435.45468"/>
			<point x="597.54129" y="398.6502"/>
			<point x="548.56773" y="386.43033" type="curve" smooth="yes"/>
			<point x="535.62587" y="383.20108"/>
			<point x="522.14063" y="381.56911"/>
			<point x="510.00894" y="376.02455" type="curve" smooth="yes"/>
			<point x="503.9431" y="373.25227"/>
			<point x="498.25815" y="369.48182"/>
			<point x="493.85221" y="364.47506" type="curve" smooth="yes"/>
			<point x="489.44627" y="359.4683"/>
			<point x="486.37437" y="353.16563"/>
			<point x="485.82624" y="346.51886" type="curve" smooth="yes"/>
			<point x="485.37559" y="341.05414"/>
			<point x="486.6396" y="335.50784"/>
			<point x="489.09816" y="330.60664" type="curve" smooth="yes"/>
			<point x="491.55672" y="325.70543"/>
			<point x="495.17925" y="321.43497"/>
			<point x="499.38894" y="317.92146" type="curve" smooth="yes"/>
			<point x="507.80833" y="310.89443"/>
			<point x="518.35202" y="306.9579"/>
			<point x="528.8749" y="303.87015" type="curve" smooth="yes"/>
			<point x="553.06549" y="296.77185"/>
			<point x="578.18943" y="293.51046"/>
			<point x="602.85065" y="288.27648" type="curve" smooth="yes"/>
			<point x="627.51188" y="283.04251"/>
			<point x="652.22412" y="275.59965"/>
			<point x="672.93007" y="261.21793" type="curve" smooth="yes"/>
			<point x="692.85786" y="247.3767"/>
			<point x="708.26608" y="227.50959"/>
			<point x="718.2908" y="205.41431" type="curve" smooth="yes"/>
			<point x="728.31552" y="183.31903"/>
			<point x="733.09745" y="159.0516"/>
			<point x="733.9446" y="134.80333" type="curve" smooth="yes"/>
			<point x="736.10747" y="72.89431"/>
			<point x="712.37458" y="11.26006"/>
			<point x="672.65476" y="-36.27667" type="curve" smooth="yes"/>
			<point x="640.97185" y="-74.19482"/>
			<point x="599.50919" y="-103.53592"/>
			<point x="554.026" y="-122.84584" type="curve" smooth="yes"/>
			<point x="508.54281" y="-142.15576"/>
			<point x="459.11937" y="-151.57789"/>
			<point x="409.7171" y="-152.58264" type="curve" smooth="yes"/>
			<point x="344.45662" y="-153.90992"/>
			<point x="278.6515" y="-140.45606"/>
			<point x="220.2199" y="-111.36242" type="curve" smooth="yes"/>
			<point x="161.78829" y="-82.26878"/>
			<point x="110.96505" y="-37.34674"/>
			<point x="77.000698" y="18.39477" type="curve" smooth="yes"/>
			<point x="26.054394" y="102.00667"/>
			<point x="15.353802" y="203.82981"/>
			<point x="15.28928" y="301.74034" type="curve" smooth="yes"/>
			<point x="15.225544" y="398.45923"/>
			<point x="24.349924" y="495.30615"/>
			<point x="44.81916" y="589.83423" type="curve" smooth="yes"/>
			<point x="53.116278" y="628.15079"/>
			<point x="63.269568" y="666.06532"/>
			<point x="75.230593" y="703.400743" type="curve" smooth="yes"/>
			<point x="77.41333" y="710.213987"/>
			<point x="84.508613" y="713.272834"/>
			<point x="90.997253" y="710.259091" type="curve" smooth="yes"/>
			<point x="210.37989" y="654.81009" type="line" smooth="yes"/>
			<point x="216.86853" y="651.79635"/>
			<point x="218.58198" y="644.76326"/>
			<point x="214.3425" y="639.00044" type="curve" smooth="yes"/>
			<point x="171.58828" y="580.88365"/>
			<point x="139.09268" y="515.23412"/>
			<point x="118.85088" y="445.98071" type="curve" smooth="yes"/>
			<point x="92.68689" y="356.46566"/>
			<point x="87.171794" y="260.57518"/>
			<point x="106.21421" y="169.27958" type="curve" smooth="yes"/>
			<point x="117.43313" y="115.4924"/>
			<point x="137.95504" y="62.04255"/>
			<point x="175.77967" y="22.19004" type="curve" smooth="yes"/>
			<point x="205.6869" y="-9.3206"/>
			<point x="245.16795" y="-30.8224"/>
			<point x="286.82784" y="-43.14379" type="curve" smooth="yes"/>
			<point x="328.48773" y="-55.46518"/>
			<point x="372.35625" y="-58.95262"/>
			<point x="415.78692" y="-57.88513" type="curve" smooth="yes"/>
			<point x="450.30304" y="-57.03675"/>
			<point x="484.99833" y="-53.3023"/>
			<point x="517.94469" y="-42.97665" type="curve" smooth="yes"/>
			<point x="550.89106" y="-32.65099"/>
			<point x="582.14229" y="-15.45307"/>
			<point x="605.86535" y="9.63276" type="curve" smooth="yes"/>
			<point x="633.93407" y="39.31388"/>
			<point x="650.45003" y="79.84801"/>
			<point x="650.25413" y="120.69876" type="curve" smooth="yes"/>
			<point x="650.16963" y="138.3077"/>
			<point x="647.03097" y="156.04267"/>
			<point x="639.72037" y="172.06257" type="curve" smooth="yes"/>
			<point x="632.40977" y="188.08246"/>
			<point x="620.78842" y="202.32706"/>
			<point x="605.77347" y="211.52669" type="curve" smooth="yes"/>
			<point x="587.02596" y="223.01325"/>
			<point x="564.36831" y="226.0568"/>
			<point x="542.40324" y="227.02936" type="curve" smooth="yes"/>
			<point x="520.43816" y="228.00192"/>
			<point x="498.19211" y="227.1898"/>
			<point x="476.73773" y="231.99809" type="curve" smooth="yes"/>
			<point x="445.66693" y="238.96159"/>
			<point x="417.3613" y="258.16306"/>
			<point x="400.0888" y="284.91274" type="curve" smooth="yes"/>
			<point x="382.81629" y="311.66243"/>
			<point x="376.98893" y="345.71848"/>
			<point x="385.17174" y="376.49066" type="curve" smooth="yes"/>
			<point x="390.7022" y="397.28843"/>
			<point x="402.49022" y="416.44711"/>
			<point x="418.86492" y="430.41144" type="curve" smooth="yes"/>
			<point x="435.23962" y="444.37577"/>
			<point x="456.16784" y="453.02148"/>
			<point x="477.65445" y="454.22932" type="curve" smooth="yes"/>
			<point x="493.30074" y="455.10885"/>
			<point x="508.9197" y="452.1536"/>
			<point x="524.59069" y="452.151" type="curve" smooth="yes"/>
			<point x="532.42619" y="452.15"/>
			<point x="540.3189" y="452.90052"/>
			<point x="547.81194" y="455.19168" type="curve" smooth="yes"/>
			<point x="555.30497" y="457.48284"/>
			<point x="562.40622" y="461.37575"/>
			<point x="567.8067" y="467.05288" type="curve" smooth="yes"/>
			<point x="572.67506" y="472.17063"/>
			<point x="576.05022" y="478.63808"/>
			<point x="577.77989" y="485.48648" type="curve" smooth="yes"/>
			<point x="579.50957" y="492.33487"/>
			<point x="579.62008" y="499.5519"/>
			<point x="578.42277" y="506.51313" type="curve" smooth="yes"/>
			<point x="576.02813" y="520.4356"/>
			<point x="568.52363" y="533.06498"/>
			<point x="559.21032" y="543.68719" type="curve" smooth="yes"/>
			<point x="539.60515" y="566.04768"/>
			<point x="511.71523" y="580.42757"/>
			<point x="482.48762" y="585.91403" type="curve" smooth="yes"/>
			<point x="453.26001" y="591.40049"/>
			<point x="422.79027" y="588.32575"/>
			<point x="394.37809" y="579.54494" type="curve" smooth="yes"/>
			<point x="338.41103" y="562.24826"/>
			<point x="289.1836" y="521.31616"/>
			<point x="266.28212" y="467.39947" type="curve" smooth="yes"/>
			<point x="250.90829" y="431.20504"/>
			<point x="247.58151" y="390.74739"/>
			<point x="251.37018" y="351.60614" type="curve" smooth="yes"/>
			<point x="255.15886" y="312.46489"/>
			<point x="265.78946" y="274.32521"/>
			<point x="277.47669" y="236.77791" type="curve" smooth="yes"/>
			<point x="293.25984" y="186.07173"/>
			<point x="311.07145" y="135.9416"/>
			<point x="323.96722" y="84.42535" type="curve" smooth="yes"/>
			<point x="329.88523" y="60.78399"/>
			<point x="334.75864" y="36.88119"/>
			<point x="338.56923" y="12.81014" type="curve" smooth="yes"/>
			<point x="339.68786" y="5.74383"/>
			<point x="334.88974" y="1.49124"/>
			<point x="327.9759" y="3.33078" type="curve"/>
		</contour>
	</outline>
	<anchor name="bottom" x="605.74023" y="-91.42078"/>
</glyph>
<glyph name="ml_cha_sign_uu" format="2">
	<advance height="1024" width="1380"/>
	<outline>
		<contour>
			<point x="156.71033" y="511.58142" type="line"/>
			<point x="174.34498" y="551.66067"/>
			<point x="207.47213" y="584.43466"/>
			<point x="247.19308" y="602.86218" type="curve" smooth="yes"/>
			<point x="286.91403" y="621.2897"/>
			<point x="332.83978" y="625.476"/>
			<point x="375.55646" y="615.85247" type="curve" smooth="yes"/>
			<point x="413.53762" y="607.2958"/>
			<point x="448.89613" y="588.07588"/>
			<point x="477.58978" y="561.76124" type="curve" smooth="yes"/>
			<point x="506.28343" y="535.44661"/>
			<point x="528.35067" y="502.16485"/>
			<point x="542.5995" y="465.93287" type="curve" smooth="yes"/>
			<point x="573.40318" y="387.60515"/>
			<point x="566.45296" y="296.57794"/>
			<point x="529.49267" y="220.96025" type="curve" smooth="yes"/>
			<point x="483.41959" y="126.69854"/>
			<point x="390.95219" y="56.53484"/>
			<point x="287.7669" y="37.54022" type="curve"/>
			<point x="294.83677" y="98.51602" type="line"/>
			<point x="383.09782" y="82.97621"/>
			<point x="473.04794" y="77.04889"/>
			<point x="562.58496" y="80.87258" type="curve" smooth="yes"/>
			<point x="573.2672" y="81.32877"/>
			<point x="584.04292" y="81.93885"/>
			<point x="594.34745" y="84.79103" type="curve" smooth="yes"/>
			<point x="604.65198" y="87.64322"/>
			<point x="614.57337" y="92.93811"/>
			<point x="621.21702" y="101.31547" type="curve" smooth="yes"/>
			<point x="627.45539" y="109.1818"/>
			<point x="630.40976" y="119.28225"/>
			<point x="630.99949" y="129.30466" type="curve" smooth="yes"/>
			<point x="631.58923" y="139.32707"/>
			<point x="629.95738" y="149.34935"/>
			<point x="627.82179" y="159.15933" type="curve" smooth="yes"/>
			<point x="618.75483" y="200.80897"/>
			<point x="600.61822" y="240.02171"/>
			<point x="590.96414" y="281.53919" type="curve" smooth="yes"/>
			<point x="576.16366" y="345.18883"/>
			<point x="581.83623" y="411.87765"/>
			<point x="593.40788" y="476.19271" type="curve" smooth="yes"/>
			<point x="602.04238" y="524.18311"/>
			<point x="614.45704" y="572.82705"/>
			<point x="642.41875" y="612.77421" type="curve" smooth="yes"/>
			<point x="662.45085" y="641.39283"/>
			<point x="690.0632" y="664.58416"/>
			<point x="721.51301" y="679.79008" type="curve" smooth="yes"/>
			<point x="752.96281" y="694.99601"/>
			<point x="788.16934" y="702.228584"/>
			<point x="823.0846" y="701.117283" type="curve" smooth="yes"/>
			<point x="870.73925" y="699.60051"/>
			<point x="917.2985" y="682.62088"/>
			<point x="956.83579" y="655.97376" type="curve" smooth="yes"/>
			<point x="996.37308" y="629.32664"/>
			<point x="1029.089" y="593.28896"/>
			<point x="1054.9253" y="553.2171" type="curve" smooth="yes"/>
			<point x="1091.0107" y="497.24895"/>
			<point x="1113.9833" y="433.32237"/>
			<point x="1125.4764" y="367.72894" type="curve" smooth="yes"/>
			<point x="1134.2707" y="317.53811"/>
			<point x="1136.4494" y="265.9316"/>
			<point x="1128.633" y="215.57921" type="curve" smooth="yes"/>
			<point x="1120.8166" y="165.22682"/>
			<point x="1102.7947" y="116.12211"/>
			<point x="1073.4604" y="74.45727" type="curve" smooth="yes"/>
			<point x="1061.3193" y="57.21269"/>
			<point x="1047.1956" y="41.20064"/>
			<point x="1030.404" y="28.44029" type="curve" smooth="yes"/>
			<point x="1013.6125" y="15.67995"/>
			<point x="994.0457" y="6.24107"/>
			<point x="973.23254" y="2.83599" type="curve" smooth="yes"/>
			<point x="941.17009" y="-2.40949"/>
			<point x="907.63688" y="7.15411"/>
			<point x="880.91848" y="25.6377" type="curve" smooth="yes"/>
			<point x="854.20008" y="44.12128"/>
			<point x="833.96928" y="70.97435"/>
			<point x="820.02925" y="100.32041" type="curve" smooth="yes"/>
			<point x="798.44455" y="145.75975"/>
			<point x="791.38562" y="197.31188"/>
			<point x="795.29136" y="247.46543" type="curve" smooth="yes"/>
			<point x="799.19711" y="297.61897"/>
			<point x="813.72485" y="346.51405"/>
			<point x="833.50195" y="392.76877" type="curve" smooth="yes"/>
			<point x="857.60841" y="449.149"/>
			<point x="890.4157" y="503.07034"/>
			<point x="937.26083" y="542.6353" type="curve" smooth="yes"/>
			<point x="984.51191" y="582.54313"/>
			<point x="1044.9458" y="606.21528"/>
			<point x="1106.6466" y="610.49474" type="curve" smooth="yes"/>
			<point x="1178.6523" y="615.48893"/>
			<point x="1253.9984" y="592.85238"/>
			<point x="1305.1997" y="541.9782" type="curve" smooth="yes"/>
			<point x="1330.8004" y="516.5411"/>
			<point x="1349.9842" y="484.4771"/>
			<point x="1359.1001" y="449.55803" type="curve" smooth="yes"/>
			<point x="1368.2159" y="414.63896"/>
			<point x="1367.0798" y="376.93034"/>
			<point x="1354.7193" y="343.02372" type="curve" smooth="yes"/>
			<point x="1344.2503" y="314.30575"/>
			<point x="1325.8177" y="288.53727"/>
			<point x="1302.0213" y="269.35266" type="curve" smooth="yes"/>
			<point x="1278.2248" y="250.16805"/>
			<point x="1249.1323" y="237.62203"/>
			<point x="1218.847" y="233.4841" type="curve"/>
			<point x="1203.8128" y="269.51765" type="line"/>
			<point x="1240.1633" y="276.02217"/>
			<point x="1278.9903" y="267.33797"/>
			<point x="1309.1061" y="245.9673" type="curve" smooth="yes"/>
			<point x="1337.2022" y="226.02989"/>
			<point x="1357.3519" y="195.59033"/>
			<point x="1366.1781" y="162.28886" type="curve" smooth="yes"/>
			<point x="1375.0043" y="128.98739"/>
			<point x="1372.7087" y="93.06121"/>
			<point x="1361.1317" y="60.61337" type="curve" smooth="yes"/>
			<point x="1345.617" y="17.12898"/>
			<point x="1314.062" y="-19.49025"/>
			<point x="1276.4812" y="-46.30974" type="curve" smooth="yes"/>
			<point x="1238.9005" y="-73.12923"/>
			<point x="1195.4494" y="-90.73193"/>
			<point x="1151.1255" y="-103.65438" type="curve" smooth="yes"/>
			<point x="1068.7626" y="-127.66695"/>
			<point x="981.91103" y="-136.18649"/>
			<point x="896.45202" y="-128.63609" type="curve"/>
			<point x="892.33238" y="-71.00136" type="line"/>
			<point x="961.63679" y="-120.60486"/>
			<point x="1047.9398" y="-145.97548"/>
			<point x="1133.0627" y="-141.76923" type="curve" smooth="yes"/>
			<point x="1201.9501" y="-138.36524"/>
			<point x="1269.7596" y="-115.74627"/>
			<point x="1327.0212" y="-77.32712" type="curve" smooth="yes"/>
			<point x="1335.8887" y="-71.37759"/>
			<point x="1342.9178" y="-74.79967"/>
			<point x="1343.0713" y="-85.47818" type="curve" smooth="yes"/>
			<point x="1344.9748" y="-217.868" type="line" smooth="yes"/>
			<point x="1345.1283" y="-228.5466"/>
			<point x="1336.7117" y="-238.6328"/>
			<point x="1326.126" y="-240.043" type="curve" smooth="yes"/>
			<point x="1276.1278" y="-246.7036"/>
			<point x="1225.3514" y="-247.518"/>
			<point x="1175.1668" y="-242.4441" type="curve" smooth="yes"/>
			<point x="1083.3455" y="-233.1605"/>
			<point x="994.40179" y="-204.397"/>
			<point x="902.68907" y="-194.09567" type="curve" smooth="yes"/>
			<point x="844.60608" y="-187.57167"/>
			<point x="785.68711" y="-188.54178"/>
			<point x="727.84726" y="-196.94771" type="curve" smooth="yes"/>
			<point x="717.27903" y="-198.48361"/>
			<point x="708.54896" y="-191.34487"/>
			<point x="708.29704" y="-180.66823" type="curve" smooth="yes"/>
			<point x="706.05433" y="-85.61967" type="line" smooth="yes"/>
			<point x="705.80241" y="-74.94303"/>
			<point x="713.60999" y="-62.9962"/>
			<point x="723.65766" y="-59.37909" type="curve" smooth="yes"/>
			<point x="768.00953" y="-43.41264"/>
			<point x="814.67167" y="-33.86738"/>
			<point x="861.73401" y="-31.17289" type="curve" smooth="yes"/>
			<point x="911.66269" y="-28.31429"/>
			<point x="961.67453" y="-33.10774"/>
			<point x="1011.6711" y="-34.28665" type="curve" smooth="yes"/>
			<point x="1061.6676" y="-35.46557"/>
			<point x="1112.6468" y="-32.85191"/>
			<point x="1159.6855" y="-15.86954" type="curve" smooth="yes"/>
			<point x="1191.1355" y="-4.51517"/>
			<point x="1220.5896" y="13.43633"/>
			<point x="1242.7728" y="38.4549" type="curve" smooth="yes"/>
			<point x="1264.956" y="63.47348"/>
			<point x="1279.4904" y="95.84107"/>
			<point x="1280.321" y="129.2676" type="curve" smooth="yes"/>
			<point x="1280.7735" y="147.47923"/>
			<point x="1277.0676" y="166.08578"/>
			<point x="1267.6227" y="181.66334" type="curve" smooth="yes"/>
			<point x="1258.1777" y="197.2409"/>
			<point x="1242.6323" y="209.50104"/>
			<point x="1224.7404" y="212.92854" type="curve" smooth="yes"/>
			<point x="1217.479" y="214.31958"/>
			<point x="1209.9508" y="214.21693"/>
			<point x="1202.7115" y="212.72125" type="curve" smooth="yes"/>
			<point x="1192.304" y="210.57101"/>
			<point x="1182.4182" y="214.01956"/>
			<point x="1179.483" y="224.28792" type="curve" smooth="yes"/>
			<point x="1167.812" y="265.11818" type="line" smooth="yes"/>
			<point x="1164.8768" y="275.38654"/>
			<point x="1171.1904" y="282.96685"/>
			<point x="1181.8119" y="283.96236" type="curve" smooth="yes"/>
			<point x="1194.9832" y="285.19685"/>
			<point x="1207.954" y="288.59103"/>
			<point x="1220.0194" y="294.01859" type="curve" smooth="yes"/>
			<point x="1240.6051" y="303.27895"/>
			<point x="1258.6074" y="318.62291"/>
			<point x="1269.9589" y="338.13364" type="curve" smooth="yes"/>
			<point x="1281.3103" y="357.64437"/>
			<point x="1285.7444" y="381.3199"/>
			<point x="1281.0311" y="403.395" type="curve" smooth="yes"/>
			<point x="1275.3636" y="429.93954"/>
			<point x="1256.9325" y="452.66965"/>
			<point x="1234.1057" y="467.35541" type="curve" smooth="yes"/>
			<point x="1211.2789" y="482.04116"/>
			<point x="1184.3529" y="489.3116"/>
			<point x="1157.3995" y="492.51291" type="curve" smooth="yes"/>
			<point x="1116.6595" y="497.35168"/>
			<point x="1074.6852" y="493.20405"/>
			<point x="1036.2358" y="478.89325" type="curve" smooth="yes"/>
			<point x="990.21248" y="461.76346"/>
			<point x="949.92936" y="430.18153"/>
			<point x="920.9944" y="390.50353" type="curve" smooth="yes"/>
			<point x="892.05944" y="350.82553"/>
			<point x="874.38889" y="303.27235"/>
			<point x="868.77192" y="254.48685" type="curve" smooth="yes"/>
			<point x="866.27803" y="232.82648"/>
			<point x="866.1908" y="210.3645"/>
			<point x="873.52165" y="189.83038" type="curve" smooth="yes"/>
			<point x="877.18707" y="179.56332"/>
			<point x="882.71037" y="169.89528"/>
			<point x="890.1785" y="161.95332" type="curve" smooth="yes"/>
			<point x="897.64664" y="154.01136"/>
			<point x="907.09915" y="147.83853"/>
			<point x="917.5691" y="144.80076" type="curve" smooth="yes"/>
			<point x="928.12726" y="141.7374"/>
			<point x="939.51495" y="141.92167"/>
			<point x="950.15483" y="144.68786" type="curve" smooth="yes"/>
			<point x="960.79471" y="147.45405"/>
			<point x="970.6987" y="152.74223"/>
			<point x="979.34931" y="159.52646" type="curve" smooth="yes"/>
			<point x="996.65053" y="173.09493"/>
			<point x="1008.7047" y="192.23928"/>
			<point x="1018.5131" y="211.91746" type="curve" smooth="yes"/>
			<point x="1045.4049" y="265.86934"/>
			<point x="1057.7402" y="328.90756"/>
			<point x="1042.606" y="387.25936" type="curve" smooth="yes"/>
			<point x="1033.4729" y="422.47319"/>
			<point x="1014.7004" y="454.77991"/>
			<point x="990.81133" y="482.21599" type="curve" smooth="yes"/>
			<point x="971.44681" y="504.45571"/>
			<point x="948.44161" y="523.84735"/>
			<point x="921.97176" y="536.84494" type="curve" smooth="yes"/>
			<point x="895.50192" y="549.84253"/>
			<point x="865.42977" y="556.22719"/>
			<point x="836.17334" y="552.53241" type="curve" smooth="yes"/>
			<point x="798.73708" y="547.8046"/>
			<point x="764.42159" y="526.66003"/>
			<point x="739.94025" y="497.9461" type="curve" smooth="yes"/>
			<point x="715.45891" y="469.23218"/>
			<point x="700.29517" y="433.39975"/>
			<point x="692.29212" y="396.5246" type="curve" smooth="yes"/>
			<point x="673.25704" y="308.81786"/>
			<point x="694.06435" y="215.44493"/>
			<point x="737.82639" y="137.08876" type="curve" smooth="yes"/>
			<point x="746.73864" y="121.13132"/>
			<point x="756.65561" y="105.51363"/>
			<point x="762.25258" y="88.11415" type="curve" smooth="yes"/>
			<point x="765.05106" y="79.41441"/>
			<point x="766.73386" y="70.29813"/>
			<point x="766.52073" y="61.16185" type="curve" smooth="yes"/>
			<point x="766.3076" y="52.02557"/>
			<point x="764.14957" y="42.85942"/>
			<point x="759.64956" y="34.90537" type="curve" smooth="yes"/>
			<point x="755.43531" y="27.45642"/>
			<point x="749.24708" y="21.20983"/>
			<point x="742.13108" y="16.45492" type="curve" smooth="yes"/>
			<point x="735.01507" y="11.7"/>
			<point x="726.98623" y="8.40296"/>
			<point x="718.70691" y="6.23512" type="curve" smooth="yes"/>
			<point x="702.14827" y="1.89944"/>
			<point x="684.79287" y="2.04137"/>
			<point x="667.67658" y="2.18097" type="curve" smooth="yes"/>
			<point x="546.852" y="3.16645"/>
			<point x="426.02048" y="2.63407"/>
			<point x="305.19395" y="1.92668" type="curve" smooth="yes"/>
			<point x="219.37453" y="1.42424"/>
			<point x="133.55562" y="0.83351"/>
			<point x="47.737418" y="0.15449" type="curve" smooth="yes"/>
			<point x="37.058138" y="0.06999"/>
			<point x="27.638316" y="8.62389"/>
			<point x="26.697641" y="19.26199" type="curve" smooth="yes"/>
			<point x="13.851233" y="164.54228" type="line" smooth="yes"/>
			<point x="12.910558" y="175.18038"/>
			<point x="17.315463" y="176.8338"/>
			<point x="24.46826" y="168.90788" type="curve" smooth="yes"/>
			<point x="61.845219" y="127.49093"/>
			<point x="114.50451" y="99.97751"/>
			<point x="169.96389" y="93.50936" type="curve" smooth="yes"/>
			<point x="236.03009" y="85.80415"/>
			<point x="304.23748" y="107.79661"/>
			<point x="356.09242" y="149.45208" type="curve" smooth="yes"/>
			<point x="388.48103" y="175.4701"/>
			<point x="414.97635" y="209.10248"/>
			<point x="431.10524" y="247.38849" type="curve" smooth="yes"/>
			<point x="447.23413" y="285.6745"/>
			<point x="452.77535" y="328.60958"/>
			<point x="445.20662" y="369.45899" type="curve" smooth="yes"/>
			<point x="439.83799" y="398.43417"/>
			<point x="427.58562" y="426.70927"/>
			<point x="406.85306" y="447.65071" type="curve" smooth="yes"/>
			<point x="396.48678" y="458.12143"/>
			<point x="384.08456" y="466.64647"/>
			<point x="370.38262" y="472.06428" type="curve" smooth="yes"/>
			<point x="356.68068" y="477.4821"/>
			<point x="341.67435" y="479.74577"/>
			<point x="327.03613" y="478.06698" type="curve" smooth="yes"/>
			<point x="308.15599" y="475.9017"/>
			<point x="290.21952" y="467.14583"/>
			<point x="276.33199" y="454.17337" type="curve" smooth="yes"/>
			<point x="262.44445" y="441.20091"/>
			<point x="252.57387" y="424.14071"/>
			<point x="247.45057" y="405.84044" type="curve" smooth="yes"/>
			<point x="242.32726" y="387.54017"/>
			<point x="241.87726" y="368.04814"/>
			<point x="245.33263" y="349.36101" type="curve" smooth="yes"/>
			<point x="248.788" y="330.67389"/>
			<point x="256.09175" y="312.78526"/>
			<point x="265.99209" y="296.56393" type="curve" smooth="yes"/>
			<point x="278.22207" y="276.52557"/>
			<point x="294.48154" y="258.96935"/>
			<point x="313.465" y="245.16384" type="curve" smooth="yes"/>
			<point x="322.09782" y="238.88572"/>
			<point x="321.20913" y="232.93898"/>
			<point x="310.74406" y="230.80907" type="curve" smooth="yes"/>
			<point x="200.24102" y="208.31891" type="line" smooth="yes"/>
			<point x="189.77595" y="206.189"/>
			<point x="179.04239" y="212.8226"/>
			<point x="176.35599" y="223.15879" type="curve" smooth="yes"/>
			<point x="168.94956" y="251.65585"/>
			<point x="162.04552" y="280.28348"/>
			<point x="155.64825" y="309.02392" type="curve" smooth="yes"/>
			<point x="148.18283" y="342.5631"/>
			<point x="141.38523" y="376.43359"/>
			<point x="140.00899" y="410.76602" type="curve" smooth="yes"/>
			<point x="138.63275" y="445.09844"/>
			<point x="142.87238" y="480.13113"/>
			<point x="156.71033" y="511.58142" type="curve"/>
		</contour>
	</outline>
</glyph>
